<svg width="404" height="461" viewBox="0 0 404 461" fill="none" xmlns="http://www.w3.org/2000/svg">
<path d="M379 447.514H25C25 447.514 37.4031 403.612 75.6104 380.007C107.746 360.159 149.402 360.67 163.297 351.927C165.824 350.344 166.721 343.384 166.818 328.095C167.005 302.269 164.998 269 164.998 269H239.002C239.002 269 236.875 304.303 237.207 330.41C237.37 344.659 238.292 350.416 240.703 351.927C254.596 360.67 296.254 360.159 328.387 380.007C366.595 403.612 379 447.514 379 447.514Z" fill="#C0F0B8"/>
<path d="M403.723 461H0C0 461 10.614 420.078 45.913 391.67C80.3843 363.94 139.224 358 139.224 358C153.027 405.06 201.861 403.037 201.861 403.037C201.861 403.037 250.696 405.06 264.499 358C264.499 358 323.363 363.94 357.81 391.67C393.109 420.078 403.723 461 403.723 461Z" fill="#219653"/>
<path opacity="0.5" d="M166.5 343.5V316.5L237.5 321L166.5 343.5Z" fill="#64B449" stroke="#64B449"/>
<path d="M92.7997 195.633L85.7997 105.633C85.7997 105.633 110.168 80.5979 129.3 69.6331C149.767 57.9028 163.098 53.8968 186.3 49.6331C217.81 43.8426 239.027 39.1134 268.3 52.1331C290.689 62.0914 315.8 93.1331 315.8 93.1331L312.3 195.633C312.3 195.633 314.917 193.321 316.8 192.133C319.684 190.313 321.551 189.67 324.8 188.633C329.877 187.012 333.005 186.027 338.3 186.633L338.609 186.669C343.42 187.218 346.89 187.614 350.3 191.133C351.77 192.65 352.374 193.735 353.3 195.633C355.625 200.401 355.336 203.856 354.8 209.133C354.168 215.34 352.828 218.987 349.3 224.133C346.017 228.921 342.857 230.537 338.3 234.133C334.557 237.086 332.674 239.239 328.3 241.133C323.731 243.111 320.758 244.074 315.8 243.633C312.353 243.327 307.3 241.133 307.3 241.133C307.3 241.133 305.759 245.393 304.8 248.133C302.556 254.544 301.921 258.367 299.3 264.633C296.502 271.32 294.593 274.956 290.8 281.133C287.284 286.859 285.395 290.231 280.8 295.133C274.79 301.544 270.431 304.278 262.8 308.633C256.65 312.143 252.799 313.559 246.288 315.954L245.8 316.133C236.863 319.421 231.709 321.17 222.3 322.633C209.758 324.584 208.3 324.275 199.3 324.133C192.052 324.019 188.177 323.431 180.8 322.633C170.77 321.549 165.197 319.802 155.8 316.133C149.536 313.688 146.064 312.096 140.3 308.633C132.901 304.188 128.801 301.337 122.8 295.133C119.131 291.341 117.308 288.967 114.3 284.633C109.269 277.387 106.915 272.886 103.8 264.633C100.472 255.815 98.2997 241.133 98.2997 241.133C98.2997 241.133 95.0789 243.023 92.7997 243.633C87.0629 245.168 83.4141 243.069 77.7997 241.133C72.3486 239.254 69.3944 237.617 64.7997 234.133C59.5141 230.126 56.7152 227.319 53.2997 221.633L53.2807 221.601C50.5848 217.113 48.9201 214.342 48.2997 209.133C47.6694 203.841 47.8989 200.391 50.2997 195.633C52.4775 191.317 54.4278 188.697 58.7997 186.633C63.9206 184.216 67.729 185.617 73.2997 186.633C78.4038 187.564 85.7997 191.133 85.7997 191.133L92.7997 195.633Z" fill="#C0F0B8" stroke="#C0F0B8"/>
<path d="M191.146 214.133L193.646 203.133H208.3L210.8 214.133C210.8 214.133 211.58 217.924 210.8 220.133C210.059 222.233 209.142 223.383 207.3 224.633C205.192 226.063 203.48 226.012 200.973 226.125C198.466 226.012 196.754 226.063 194.646 224.633C192.804 223.383 191.887 222.233 191.146 220.133C190.367 217.924 191.146 214.133 191.146 214.133Z" fill="url(#paint0_radial)"/>
<path d="M166.3 140.133C167.683 141.285 168.72 141.929 169.3 143.633C169.803 145.112 169.994 146.234 169.3 147.633C168.481 149.283 167.007 149.441 165.3 150.133C163.454 150.881 162.275 150.878 160.3 151.133C156.62 151.609 154.506 150.964 150.8 151.133C148.257 151.249 146.831 151.359 144.3 151.633C141.554 151.931 140.003 152.071 137.3 152.633C132.886 153.551 128.3 156.633 126.3 156.133C124.3 155.633 124.401 155.23 123.8 154.133C123.049 152.763 123.405 151.644 123.8 150.133C124.266 148.351 125.151 147.573 126.3 146.133C127.939 144.08 129.17 143.172 131.3 141.633C133.991 139.689 135.679 138.765 138.8 137.633C141.07 136.809 142.412 136.498 144.8 136.133C148.66 135.544 150.928 135.624 154.8 136.133C156.774 136.393 157.895 136.554 159.8 137.133C162.475 137.946 164.152 138.344 166.3 140.133Z" fill="#083345" stroke="#083345"/>
<path d="M218.018 258.066C212.191 260.827 207.349 261.67 201.307 261.782C195.453 261.89 189.807 260.39 184.327 258.472C184.015 258.363 183.889 258.794 184.115 258.966C193.559 266.099 209.421 266.675 218.606 258.655C219.023 258.29 218.521 257.827 218.018 258.066Z" fill="#083345"/>
<path d="M208.047 269.24C204.264 270.899 198.764 271.495 194.116 269.321C194.027 269.279 193.956 269.375 194.009 269.447C197.221 273.787 204.721 273.537 208.233 269.597C208.368 269.445 208.248 269.151 208.047 269.24Z" fill="#083345"/>
<path d="M238.252 140.546C236.868 141.698 235.832 142.342 235.252 144.046C234.748 145.525 234.557 146.646 235.252 148.046C236.07 149.696 237.544 149.854 239.252 150.546C241.097 151.294 242.277 151.291 244.252 151.546C247.931 152.021 250.045 151.377 253.752 151.546C256.295 151.662 257.721 151.771 260.252 152.046C262.997 152.343 264.548 152.484 267.252 153.046C271.665 153.963 276.252 157.046 278.252 156.546C280.252 156.046 280.151 155.642 280.752 154.546C281.502 153.176 281.147 152.057 280.752 150.546C280.286 148.764 279.401 147.986 278.252 146.546C276.613 144.493 275.381 143.584 273.252 142.046C270.561 140.102 268.872 139.178 265.752 138.046C263.481 137.222 262.139 136.91 259.752 136.546C255.891 135.956 253.623 136.036 249.752 136.546C247.777 136.806 246.657 136.967 244.752 137.546C242.077 138.359 240.4 138.756 238.252 140.546Z" fill="#083345" stroke="#083345"/>
<ellipse cx="152.8" cy="199.133" rx="10" ry="13" fill="#083345"/>
<ellipse cx="250.8" cy="199.133" rx="10" ry="13" fill="#083345"/>
<ellipse cx="134.5" cy="235.018" rx="28.5" ry="23" fill="url(#paint1_radial)"/>
<path d="M86.7913 197.565C108.628 197.565 98.3728 120.613 99.1303 114.823C99.4807 112.159 100.953 125.043 130.849 126.66C174.602 129.027 226.463 97.1877 226.463 97.1877C226.463 97.1877 220.606 110.088 226.479 114.231C232.353 118.374 270.135 113.246 294.794 97.067C298.364 94.728 281.773 146.873 310.774 197.565C317.839 209.911 338.79 148.488 333.258 107.832C330.592 88.2554 320.173 76.0276 305.743 71.0252C305.743 71.0252 291.082 5.50648 220.206 0.314709C157.438 -4.28523 91.8197 42.616 80.0488 70.6322C72.0753 89.6119 82.4163 97.9832 82.4163 97.9832C82.4163 97.9832 69.0118 116.172 69 136.525C68.9882 160.988 80.8372 197.565 86.7913 197.565Z" fill="#083345"/>
<ellipse cx="279.5" cy="235.018" rx="28.5" ry="23" fill="url(#paint2_radial)"/>
<defs>
<radialGradient id="paint0_radial" cx="0" cy="0" r="1" gradientUnits="userSpaceOnUse" gradientTransform="translate(200.8 201.633) rotate(90) scale(24.5 21.6736)">
<stop offset="0.390064" stop-color="#C0F0B8"/>
<stop offset="0.833333" stop-color="#91D487"/>
</radialGradient>
<radialGradient id="paint1_radial" cx="0" cy="0" r="1" gradientUnits="userSpaceOnUse" gradientTransform="translate(134 235.018) rotate(89.9639) scale(23 23.6724)">
<stop stop-color="#91D487"/>
<stop offset="1" stop-color="#C0F0B8"/>
</radialGradient>
<radialGradient id="paint2_radial" cx="0" cy="0" r="1" gradientUnits="userSpaceOnUse" gradientTransform="translate(279 235.018) rotate(89.9639) scale(23 23.6724)">
<stop stop-color="#91D487"/>
<stop offset="1" stop-color="#C0F0B8"/>
</radialGradient>
</defs>
</svg>
