<svg width="404" height="451" viewBox="0 0 404 451" fill="none" xmlns="http://www.w3.org/2000/svg">
<path d="M337.625 103.219C331.585 85.624 316.846 60.3533 316.846 60.3533L203.701 277.352L165.3 351C194.326 353.405 213.75 354.223 242.733 351.34C264.279 349.198 297.687 343.984 297.687 343.984L305.732 273.93L302.186 343.954L312.157 339.39C312.157 339.39 319.051 297.444 321.209 270.329C321.486 266.853 321.686 264.083 321.825 261.891C322.962 271.358 321.692 293.065 321.209 308C320.806 320.482 318 338 318 338L339.114 332.715C339.114 332.715 342.733 308.974 344.361 293.68C347.879 260.625 347.847 241.89 348.309 208.652C348.6 187.761 350.089 175.938 347.962 155.153C345.857 134.581 344.339 122.778 337.625 103.219Z" fill="#083345"/>
<path d="M89.2997 60.5C89.2997 60.5 74.7258 85.8659 68.7997 103.5C62.2122 123.102 60.7712 134.915 58.7997 155.5C56.8077 176.298 58.3732 188.111 58.7997 209C59.4781 242.234 59.5672 260.969 63.2997 294C65.0267 309.284 68.7997 333 68.7997 333L86.2997 339.5C86.2997 339.5 81.4027 297.525 80.2997 270.5C79.1966 243.475 81.5 239 81.5 239C81.5 239 80.837 245.385 83 270.5C85.334 297.6 92.5 340.5 92.5 340.5L105.8 344L101.8 274L110.3 344C110.3 344 143.74 348.997 165.3 351L203.701 277.352L89.2997 60.5Z" fill="#083345"/>
<path d="M379 437.514H25C25 437.514 37.4031 393.613 75.6104 370.008C107.746 350.159 149.402 350.67 163.297 341.928C165.824 340.344 166.721 333.384 166.818 318.095C167.005 292.269 164.998 259 164.998 259H239.002C239.002 259 236.875 294.303 237.207 320.411C237.37 334.659 238.292 340.416 240.703 341.928C254.596 350.67 296.254 350.159 328.387 370.008C366.595 393.613 379 437.514 379 437.514Z" fill="#C0F0B8"/>
<path opacity="0.5" d="M167 335V308L238 312.5L167 335Z" fill="#64B449" stroke="#64B449"/>
<path d="M403.723 451H0C0 451 10.614 410.078 45.913 381.67C80.3843 353.94 139.224 348 139.224 348C153.027 395.06 201.861 393.037 201.861 393.037C201.861 393.037 250.696 395.06 264.499 348C264.499 348 323.363 353.94 357.81 381.67C393.109 410.078 403.723 451 403.723 451Z" fill="#219653"/>
<path d="M94.7997 186.5L87.7997 96.5001C87.7997 96.5001 112.168 71.4649 131.3 60.5001C151.767 48.7697 165.098 44.7638 188.3 40.5001C219.81 34.7096 241.027 29.9803 270.3 43.0001C292.689 52.9584 317.8 84.0001 317.8 84.0001L314.3 186.5C314.3 186.5 316.917 184.188 318.8 183C321.684 181.18 323.551 180.537 326.8 179.5C331.877 177.879 335.005 176.894 340.3 177.5L340.609 177.535C345.42 178.085 348.89 178.481 352.3 182C353.77 183.517 354.374 184.602 355.3 186.5C357.625 191.268 357.336 194.723 356.8 200C356.168 206.207 354.828 209.854 351.3 215C348.017 219.788 344.857 221.404 340.3 225C336.557 227.953 334.674 230.106 330.3 232C325.731 233.978 322.758 234.941 317.8 234.5C314.353 234.194 309.3 232 309.3 232C309.3 232 307.759 236.26 306.8 239C304.556 245.411 303.921 249.234 301.3 255.5C298.502 262.187 296.593 265.823 292.8 272C289.284 277.726 287.395 281.098 282.8 286C276.79 292.41 272.431 295.145 264.8 299.5C258.65 303.01 254.799 304.426 248.288 306.821L247.8 307C238.863 310.288 233.709 312.037 224.3 313.5C211.758 315.451 210.3 315.142 201.3 315C194.052 314.886 190.177 314.298 182.8 313.5C172.77 312.416 167.197 310.669 157.8 307C151.536 304.555 148.064 302.963 142.3 299.5C134.901 295.055 130.801 292.203 124.8 286C121.131 282.208 119.308 279.834 116.3 275.5C111.269 268.254 108.915 263.753 105.8 255.5C102.472 246.682 100.3 232 100.3 232C100.3 232 97.0789 233.89 94.7997 234.5C89.0629 236.035 85.4141 233.936 79.7997 232C74.3486 230.121 71.3944 228.484 66.7997 225C61.5141 220.992 58.7152 218.186 55.2997 212.5L55.2807 212.468C52.5848 207.98 50.9201 205.208 50.2997 200C49.6694 194.708 49.8989 191.258 52.2997 186.5C54.4775 182.184 56.4278 179.564 60.7997 177.5C65.9206 175.083 69.729 176.484 75.2997 177.5C80.4038 178.431 87.7997 182 87.7997 182L94.7997 186.5Z" fill="#C0F0B8" stroke="#C0F0B8"/>
<path d="M209.08 229C208.58 226.5 210.58 212 210.58 212C210.58 212 213.42 217.438 215.08 221C216.521 224.091 218.755 225.594 218.58 229C218.424 232.052 217.619 233.671 214.58 234C211.349 234.349 209.58 231.5 209.08 229Z" fill="url(#paint0_linear)" stroke="#F7F7F7"/>
<path d="M193.146 205L195.646 194H210.3L212.8 205C212.8 205 213.58 208.791 212.8 211C212.059 213.1 211.142 214.25 209.3 215.5C207.192 216.93 205.48 216.879 202.973 216.992C200.466 216.879 198.754 216.93 196.646 215.5C194.804 214.25 193.887 213.1 193.146 211C192.367 208.791 193.146 205 193.146 205Z" fill="url(#paint1_radial)"/>
<path d="M168.3 131C169.683 132.152 170.72 132.796 171.3 134.5C171.803 135.979 171.994 137.101 171.3 138.5C170.481 140.15 169.007 140.308 167.3 141C165.454 141.748 164.275 141.745 162.3 142C158.62 142.476 156.506 141.831 152.8 142C150.257 142.116 148.831 142.226 146.3 142.5C143.554 142.798 142.003 142.938 139.3 143.5C134.886 144.418 130.3 147.5 128.3 147C126.3 146.5 126.401 146.097 125.8 145C125.049 143.63 125.405 142.511 125.8 141C126.266 139.218 127.151 138.44 128.3 137C129.939 134.947 131.17 134.038 133.3 132.5C135.991 130.556 137.679 129.632 140.8 128.5C143.07 127.676 144.412 127.365 146.8 127C150.66 126.411 152.928 126.491 156.8 127C158.774 127.26 159.895 127.421 161.8 128C164.475 128.813 166.152 129.211 168.3 131Z" fill="#083345"/>
<path d="M240.252 131.413C238.868 132.565 237.832 133.209 237.252 134.913C236.748 136.391 236.557 137.513 237.252 138.913C238.07 140.563 239.544 140.721 241.252 141.413C243.097 142.161 244.277 142.157 246.252 142.413C249.931 142.888 252.045 142.244 255.752 142.413C258.295 142.529 259.721 142.638 262.252 142.913C264.997 143.21 266.548 143.351 269.252 143.913C273.665 144.83 278.252 147.913 280.252 147.413C282.252 146.913 282.151 146.509 282.752 145.413C283.502 144.043 283.147 142.924 282.752 141.413C282.286 139.631 281.401 138.852 280.252 137.413C278.613 135.36 277.381 134.451 275.252 132.913C272.561 130.969 270.872 130.045 267.752 128.913C265.481 128.089 264.139 127.777 261.752 127.413C257.891 126.823 255.623 126.903 251.752 127.413C249.777 127.673 248.657 127.834 246.752 128.413C244.077 129.226 242.4 129.623 240.252 131.413Z" fill="#083345"/>
<path d="M130.815 109.027C122.884 104.028 118.477 101.076 111.315 95.0266C109.729 93.6872 107.315 91.5266 107.315 91.5266V98.0266V111.527V127.527C107.315 134.947 108.125 139.151 107.315 146.527C106.663 152.465 105.698 155.715 104.315 161.527C102.955 167.241 100.315 176.027 100.315 176.027C100.315 176.027 96.2873 189.065 92.3151 186.027C90.4412 184.593 89.8151 180.527 89.8151 180.527L75.8151 142.527C75.8151 142.527 67.4631 112.983 72.3151 95.0266C74.6631 86.3371 77.4635 81.906 81.8151 74.0266C89.7636 59.6342 95.8136 52.2756 107.315 40.5266C118.195 29.4129 124.713 23.0668 138.315 15.5266C159.233 3.9315 173.902 0.663898 197.815 1.02662C210.047 1.21216 234.854 1.81748 256 11C270.259 17.1917 277.539 22.5711 289.5 32.5C298.861 40.2705 307.143 49.705 311.581 54.7603L311.815 55.0266C315.784 59.5467 318.815 64.0266 320.815 67.5266C322.815 71.0266 345.702 107.829 341.315 135.027C337.619 157.937 314 185.5 314 185.5C314 185.5 309.613 182.831 307.315 180.527C302.382 175.58 301.76 171.071 299.315 164.527C296.232 156.273 295.1 151.302 294.315 142.527C293.794 136.692 294.315 133.384 294.315 127.527V116.027C294.315 116.027 287.297 120.051 282.315 121.027C277.525 121.965 273.232 123.024 267.315 123.527C261.089 124.055 257.563 125.027 251.315 125.027C244.286 125.027 240.314 124.186 233.315 123.527C227.594 122.987 224.277 122.812 218.815 121.027C212.756 119.045 208.315 116.027 204.315 113.527C200.315 111.027 181.315 102.527 181.315 102.527C181.315 102.527 187.16 107.955 190.815 111.527C193.58 114.228 195.647 115.326 197.815 118.527C199.628 121.203 201.315 126.027 201.315 126.027H192.315C186.457 126.027 183.146 126.586 177.315 126.027C171.978 125.515 169.013 124.842 163.815 123.527C155.551 121.436 151.025 119.663 143.315 116.027C141.341 115.095 140.238 114.561 138.315 113.527C135.307 111.908 133.705 110.848 130.815 109.027Z" fill="#083345" stroke="#083345"/>
<path d="M221.018 245.066C215.191 247.827 210.349 248.67 204.307 248.782C198.453 248.89 192.807 247.39 187.327 245.472C187.015 245.363 186.889 245.794 187.115 245.966C196.559 253.099 212.421 253.675 221.606 245.655C222.023 245.29 221.521 244.827 221.018 245.066Z" fill="#083345"/>
<path d="M211.047 256.24C207.264 257.899 201.764 258.495 197.116 256.321C197.027 256.279 196.956 256.375 197.009 256.447C200.221 260.787 207.721 260.537 211.233 256.597C211.368 256.445 211.248 256.151 211.047 256.24Z" fill="#083345"/>
<ellipse cx="263.5" cy="227" rx="28.5" ry="23" fill="url(#paint2_radial)"/>
<ellipse cx="141.5" cy="226" rx="28.5" ry="23" fill="url(#paint3_radial)"/>
<path d="M146.015 185.001C146.015 192.182 150.099 198 155.133 198C160.17 198 164.254 192.182 164.254 185.001C164.254 177.818 160.17 172 155.133 172C150.099 172 146.015 177.818 146.015 185.001Z" fill="#2E333B"/>
<path d="M134 174.552C135.563 176.131 137.259 177.378 138.992 177.871C140.738 178.313 142.449 178.067 143.974 177.159C145.582 176.267 147.159 174.757 149.142 173.601C151.063 172.387 153.611 171.692 155.785 172.356C153.613 173.006 152.033 174.122 150.545 175.512C149.054 176.891 147.611 178.518 145.491 179.809C143.319 181.097 140.313 181.326 138.067 180.079C135.818 178.872 134.447 176.743 134 174.552Z" fill="#2E333B"/>
<path d="M263.239 185.001C263.239 192.182 259.155 198 254.121 198C249.084 198 245 192.182 245 185.001C245 177.818 249.084 172 254.121 172C259.155 172 263.239 177.818 263.239 185.001Z" fill="#2E333B"/>
<path d="M275.254 174.552C273.691 176.131 271.995 177.378 270.263 177.871C268.516 178.313 266.805 178.067 265.28 177.159C263.672 176.267 262.095 174.757 260.112 173.601C258.191 172.387 255.644 171.692 253.469 172.356C255.641 173.006 257.221 174.122 258.709 175.512C260.2 176.891 261.644 178.518 263.763 179.809C265.935 181.097 268.941 181.326 271.187 180.079C273.436 178.872 274.807 176.743 275.254 174.552Z" fill="#2E333B"/>
<defs>
<linearGradient id="paint0_linear" x1="213.795" y1="212" x2="213.795" y2="234.029" gradientUnits="userSpaceOnUse">
<stop stop-color="white" stop-opacity="0"/>
<stop offset="1" stop-color="white" stop-opacity="0.61"/>
</linearGradient>
<radialGradient id="paint1_radial" cx="0" cy="0" r="1" gradientUnits="userSpaceOnUse" gradientTransform="translate(202.8 192.5) rotate(90) scale(24.5 21.6736)">
<stop offset="0.390064" stop-color="#C0F0B8"/>
<stop offset="0.833333" stop-color="#91D487"/>
</radialGradient>
<radialGradient id="paint2_radial" cx="0" cy="0" r="1" gradientUnits="userSpaceOnUse" gradientTransform="translate(263 227) rotate(89.9639) scale(23 23.6724)">
<stop stop-color="#91D487"/>
<stop offset="1" stop-color="#C0F0B8"/>
</radialGradient>
<radialGradient id="paint3_radial" cx="0" cy="0" r="1" gradientUnits="userSpaceOnUse" gradientTransform="translate(141 226) rotate(89.9639) scale(23 23.6724)">
<stop stop-color="#91D487"/>
<stop offset="1" stop-color="#C0F0B8"/>
</radialGradient>
</defs>
</svg>
