<svg width="409" height="479" viewBox="0 0 409 479" fill="none" xmlns="http://www.w3.org/2000/svg">
<path d="M332.857 411.288C332.882 412.739 332.932 414.163 332.982 415.592V415.642C333.908 437.236 338.639 458.555 347.27 478.297H323.499C318.594 463.782 314.868 448.846 312.314 433.733C306.483 399.15 306.636 363.57 313.239 329.115C313.239 329.065 313.192 329.04 313.164 329.087C304.782 362.342 302.257 396.447 306.859 430.527C308.911 445.743 312.088 462.283 317.018 478.297H154.774C155.978 465.884 156 453.425 155.452 441.715C153.948 410.887 147.945 381.061 139.586 351.407C139.586 351.407 139.561 351.407 139.561 351.435C145.816 380.235 151.073 409.862 151.371 439.413C151.499 452.775 150.348 465.611 148.471 478.297H130.277C132.229 458.63 130.703 438.061 128.476 419.295C125.425 393.547 119.743 368.497 113.362 343.475C111.986 334.995 110.46 326.538 108.961 318.055C108.908 317.827 108.536 317.88 108.558 318.105C109.134 322.559 109.734 327.063 110.285 331.59C110.212 331.317 110.134 331.064 110.059 330.791C110.009 330.616 109.787 330.691 109.834 330.841C110.159 332.641 110.485 334.42 110.838 336.221C114.613 368.297 116.79 401.529 109.484 432.857C105.856 448.446 98.7994 463.309 92.2711 478.297H13.7991C13.7991 478.297 59.0392 432.857 61.3412 382.012C63.8434 326.963 34.8677 317.78 35.7185 248.644C36.5442 179.48 56.2617 150.457 83.0855 78.4929C94.1953 48.6665 165.609 47.5405 206.82 41.7103C248.007 35.8801 317.371 35.177 332.632 73.2883C372.467 172.776 386.907 209.334 384.978 266.084C383.301 315.303 357.954 336.947 357.954 382.012C357.954 429.554 395.813 478.297 395.813 478.297H365.21C349.947 460.181 339.513 440.011 333.432 415.792C333.307 414.29 333.132 412.812 333.032 411.288C333.032 411.163 332.832 411.163 332.857 411.288Z" fill="#2E333B"/>
<path d="M53.9185 159.197C53.9911 159.014 53.6783 158.879 53.5983 159.062C32.2644 206.881 18.85 259.338 30.6454 311.642C33.503 324.308 38.5749 336.176 42.2282 348.595C46.9649 364.686 47.11 381.176 43.4343 397.508C36.6582 427.61 18.5922 452.437 1.08923 477.126C0.286017 478.254 2.13766 479.701 3.02344 478.617C19.5631 458.404 35.1544 436.382 43.7896 411.528C52.8276 385.515 51.5239 361.028 42.4684 335.355C21.7776 276.698 31.6063 216.067 53.9185 159.197Z" fill="#2E333B"/>
<path d="M379.248 365.991C384.568 333.76 401.305 305.475 399.381 271.985C397.484 239.061 384.47 207.714 373.275 177.104C360.489 142.143 346.792 107.167 332.404 72.8265C332.329 72.6463 332.044 72.7089 332.101 72.9091C342.731 108.491 356.926 143.186 369.194 178.227C381.23 212.595 396.669 248.48 394.729 285.633C392.955 319.658 374.259 349.799 373.773 384.38C373.355 414.307 380.184 443.935 394.397 470.299C394.839 471.122 396.063 470.396 395.645 469.568C379.351 437.229 373.338 401.816 379.248 365.991Z" fill="#2E333B"/>
<path d="M408.463 478.308H2.88635C2.88635 478.308 17.099 428.008 60.8728 400.967C97.6904 378.227 145.415 378.81 161.332 368.793C164.229 366.982 165.258 359.005 165.368 341.492C165.583 311.903 163.283 273.789 163.283 273.789H248.066C248.066 273.789 245.631 314.233 246.009 344.144C246.199 360.469 247.255 367.062 250.018 368.793C265.934 378.81 313.659 378.227 350.477 400.967C394.248 428.008 408.463 478.308 408.463 478.308Z" fill="#DB876C"/>
<path opacity="0.5" d="M166 334L164.5 307.5L237 311.5L166 334Z" fill="#B46349" stroke="#B46349"/>
<path d="M320.977 192.642C319.103 212.678 318.442 234.755 309.702 255.378C298.497 281.827 269.116 317.821 207.114 317.821C144.09 317.821 112.928 281.827 104.523 255.378C97.7518 234.069 95.1244 212.678 93.2478 192.642C91.6939 175.963 77.0409 119.157 98.3148 69.8737C114.199 33.0785 161.568 9.84046 207.114 10.3359C252.659 9.84046 300.026 33.0785 315.915 69.8737C337.186 119.157 322.531 175.963 320.977 192.642Z" fill="#DB876C"/>
<path d="M317.473 186.607C317.473 186.607 334.943 168.318 355.652 173.786C376.36 179.255 370.215 213.991 347.212 226.527C325.518 238.35 311.765 228.992 311.765 228.992L317.473 186.607Z" fill="#DB876C"/>
<path d="M96.7542 186.607C96.7542 186.607 79.2812 168.319 58.5729 173.786C37.867 179.256 44.01 213.992 67.0129 226.528C88.7071 238.351 102.459 228.992 102.459 228.992L96.7542 186.607Z" fill="#DB876C"/>
<path d="M197.239 204L199.739 193H214.392L216.892 204C216.892 204 217.672 207.79 216.892 210C216.151 212.099 215.234 213.25 213.392 214.5C211.284 215.93 209.572 215.878 207.065 215.992C204.558 215.878 202.846 215.93 200.739 214.5C198.896 213.25 197.98 212.099 197.239 210C196.459 207.79 197.239 204 197.239 204Z" fill="url(#paint0_radial)"/>
<path d="M267.794 186.529C267.794 194.048 263.518 200.141 258.246 200.141C252.968 200.141 248.695 194.048 248.695 186.529C248.695 179.008 252.968 172.915 258.246 172.915C263.518 172.915 267.794 179.008 267.794 186.529Z" fill="#2E333B"/>
<path d="M280.376 175.587C278.74 177.241 276.963 178.547 275.146 179.062C273.32 179.525 271.528 179.268 269.932 178.317C268.245 177.383 266.594 175.802 264.519 174.591C262.508 173.32 259.84 172.592 257.563 173.287C259.838 173.968 261.492 175.136 263.048 176.593C264.612 178.036 266.123 179.74 268.343 181.092C270.617 182.44 273.765 182.681 276.117 181.374C278.472 180.111 279.908 177.881 280.376 175.587Z" fill="#2E333B"/>
<path d="M146.431 186.529C146.431 194.049 150.705 200.142 155.98 200.142C161.254 200.142 165.531 194.049 165.531 186.529C165.531 179.008 161.254 172.915 155.98 172.915C150.705 172.915 146.431 179.008 146.431 186.529Z" fill="#2E333B"/>
<path d="M133.85 175.587C135.484 177.241 137.263 178.547 139.077 179.063C140.903 179.525 142.697 179.268 144.291 178.317C145.978 177.384 147.629 175.802 149.704 174.591C151.718 173.32 154.385 172.592 156.662 173.287C154.388 173.968 152.734 175.137 151.175 176.593C149.614 178.037 148.1 179.741 145.883 181.092C143.606 182.441 140.458 182.681 138.108 181.375C135.754 180.111 134.318 177.882 133.85 175.587Z" fill="#2E333B"/>
<path d="M172.666 131.53C171.13 138.506 159.024 135.541 146.818 136.932C132.606 138.553 124.474 145.572 124.358 138.06C124.266 132.103 133.672 122.819 147.316 120.733C160.821 118.668 174.233 124.426 172.666 131.53Z" fill="#2E333B"/>
<path d="M241.56 131.53C243.096 138.506 255.202 135.541 267.405 136.932C281.618 138.553 289.75 145.572 289.868 138.06C289.958 132.103 280.552 122.819 266.907 120.733C253.405 118.668 239.993 124.426 241.56 131.53Z" fill="#2E333B"/>
<path d="M92.199 184.936C106.379 184.936 109.935 122.721 109.935 122.721C109.935 122.721 129.952 115.214 151.847 93.9453C151.847 93.9453 136.208 120.844 139.961 122.721C143.715 124.597 219.307 119.593 248.695 79.2448C248.695 79.2448 232.856 113.65 237.548 116.778C242.239 119.906 276.645 115.527 299.165 91.7558C299.165 91.7558 307.039 184.936 322.025 184.936C337.011 184.936 344.86 103.984 332.632 73.302C315.429 30.1387 270.702 15.4382 270.702 15.4382C270.702 15.4382 213.777 -10.2095 162.481 6.0549C103.094 24.8841 83.4587 72.3186 77.7212 93.575C65.0649 140.439 81.1592 184.936 92.199 184.936Z" fill="#2E333B"/>
<path d="M254.369 69.0666C229.307 104.253 194.994 125.306 151.253 127.521C150.803 127.543 150.795 128.221 151.253 128.226C193.002 128.707 235.34 107.015 256.193 70.1325C256.872 68.9289 255.145 67.9756 254.369 69.0666Z" fill="#2E333B"/>
<path d="M406.615 479H2.89197C2.89197 479 13.506 438.078 48.805 409.67C83.2763 381.94 142.116 376 142.116 376C155.919 423.06 204.753 421.037 204.753 421.037C204.753 421.037 253.588 423.06 267.391 376C267.391 376 326.255 381.94 360.702 409.67C396.001 438.078 406.615 479 406.615 479Z" fill="#2D9CDB"/>
<g filter="url(#filter0_d)">
<path d="M135.892 233C137.921 229.698 142.392 225.5 142.392 225.5H186.392L269.892 226C269.892 226 274.363 230.198 276.392 233.5C282.934 244.147 280.674 253.76 276.392 265.5C274.566 270.507 272.892 275.5 269.892 277.5C266.892 279.5 251.544 283.337 239.392 285C227.391 286.643 220.504 286.03 208.392 286C194.516 285.966 186.617 286.544 172.892 284.5C160.76 282.693 145.392 279.5 142.392 277C139.392 274.5 137.718 270.007 135.892 265C131.61 253.26 129.349 243.647 135.892 233Z" fill="#F1F3F6"/>
<path d="M135.892 233C137.921 229.698 142.392 225.5 142.392 225.5H186.392L269.892 226C269.892 226 274.363 230.198 276.392 233.5C282.934 244.147 280.674 253.76 276.392 265.5C274.566 270.507 272.892 275.5 269.892 277.5C266.892 279.5 251.544 283.337 239.392 285C227.391 286.643 220.504 286.03 208.392 286C194.516 285.966 186.617 286.544 172.892 284.5C160.76 282.693 145.392 279.5 142.392 277C139.392 274.5 137.718 270.007 135.892 265C131.61 253.26 129.349 243.647 135.892 233Z" fill="url(#paint1_linear)"/>
<path d="M91.392 184.5L142.392 226L138.892 231L91.392 184.5Z" fill="#F1F3F6"/>
<path d="M91.392 184.5L142.392 226L138.892 231L91.392 184.5Z" fill="url(#paint2_linear)"/>
<path d="M98.892 231L141.892 269V276L98.892 231Z" fill="#F1F3F6"/>
<path d="M98.892 231L141.892 269V276L98.892 231Z" fill="url(#paint3_linear)"/>
<path d="M320.892 184.5L268.892 226L270.892 232L320.892 184.5Z" fill="#F1F3F6"/>
<path d="M320.892 184.5L268.892 226L270.892 232L320.892 184.5Z" fill="url(#paint4_linear)"/>
<path d="M316.392 232L270.892 272L269.892 277.5L316.392 232Z" fill="#F1F3F6"/>
<path d="M316.392 232L270.892 272L269.892 277.5L316.392 232Z" fill="url(#paint5_linear)"/>
</g>
<defs>
<filter id="filter0_d" x="87.392" y="184.5" width="237.5" height="109.636" filterUnits="userSpaceOnUse" color-interpolation-filters="sRGB">
<feFlood flood-opacity="0" result="BackgroundImageFix"/>
<feColorMatrix in="SourceAlpha" type="matrix" values="0 0 0 0 0 0 0 0 0 0 0 0 0 0 0 0 0 0 127 0"/>
<feOffset dy="4"/>
<feGaussianBlur stdDeviation="2"/>
<feColorMatrix type="matrix" values="0 0 0 0 0 0 0 0 0 0 0 0 0 0 0 0 0 0 0.25 0"/>
<feBlend mode="normal" in2="BackgroundImageFix" result="effect1_dropShadow"/>
<feBlend mode="normal" in="SourceGraphic" in2="effect1_dropShadow" result="shape"/>
</filter>
<radialGradient id="paint0_radial" cx="0" cy="0" r="1" gradientUnits="userSpaceOnUse" gradientTransform="translate(206.892 191.5) rotate(90) scale(24.5 21.6736)">
<stop offset="0.390064" stop-color="#DC866B"/>
<stop offset="0.833333" stop-color="#C26E54"/>
</radialGradient>
<linearGradient id="paint1_linear" x1="213.607" y1="186" x2="213.607" y2="286.136" gradientUnits="userSpaceOnUse">
<stop stop-color="#E9FBFF" stop-opacity="0"/>
<stop offset="1" stop-color="#C7D7FF"/>
</linearGradient>
<linearGradient id="paint2_linear" x1="213.607" y1="186" x2="213.607" y2="286.136" gradientUnits="userSpaceOnUse">
<stop stop-color="#E9FBFF" stop-opacity="0"/>
<stop offset="1" stop-color="#C7D7FF"/>
</linearGradient>
<linearGradient id="paint3_linear" x1="213.607" y1="186" x2="213.607" y2="286.136" gradientUnits="userSpaceOnUse">
<stop stop-color="#E9FBFF" stop-opacity="0"/>
<stop offset="1" stop-color="#C7D7FF"/>
</linearGradient>
<linearGradient id="paint4_linear" x1="213.607" y1="186" x2="213.607" y2="286.136" gradientUnits="userSpaceOnUse">
<stop stop-color="#E9FBFF" stop-opacity="0"/>
<stop offset="1" stop-color="#C7D7FF"/>
</linearGradient>
<linearGradient id="paint5_linear" x1="213.607" y1="186" x2="213.607" y2="286.136" gradientUnits="userSpaceOnUse">
<stop stop-color="#E9FBFF" stop-opacity="0"/>
<stop offset="1" stop-color="#C7D7FF"/>
</linearGradient>
</defs>
</svg>
