<svg width="404" height="476" viewBox="0 0 404 476" fill="none" xmlns="http://www.w3.org/2000/svg">
<path d="M274.8 28.3703C274.8 28.3703 228.993 -10.4072 164.478 2.70865C95.4582 16.7382 61.636 67.6141 61.636 130.963C61.636 174.403 71.5653 206.052 66.245 235.6C60.9247 265.145 28.3695 283.955 25.3314 341.327C21.2617 418.1 94.0169 461.823 203.698 461.823C313.378 461.823 387.169 404.27 387.169 341.327C387.169 272.392 342.937 256.843 339.218 225.077C335.499 193.311 363.029 47.3551 274.8 28.3703Z" fill="#083345"/>
<path d="M379.169 461.514H25.1689C25.1689 461.514 37.572 417.613 75.7794 394.008C107.915 374.159 149.571 374.67 163.466 365.928C165.993 364.344 166.89 357.384 166.986 342.095C167.174 316.269 165.167 283 165.167 283H239.171C239.171 283 237.043 318.303 237.375 344.411C237.539 358.659 238.461 364.416 240.872 365.928C254.765 374.67 296.423 374.159 328.556 394.008C366.764 417.613 379.169 461.514 379.169 461.514Z" fill="#C0F0B8"/>
<path opacity="0.5" d="M166.669 348.5V321.5L237.669 326L166.669 348.5Z" fill="#40B561"/>
<path d="M403.892 476H0.168945C0.168945 476 10.783 435.078 46.082 406.67C80.5532 378.94 139.393 373 139.393 373C153.196 420.06 202.03 418.037 202.03 418.037C202.03 418.037 250.865 420.06 264.668 373C264.668 373 323.532 378.94 357.979 406.67C393.278 435.078 403.892 476 403.892 476Z" fill="#219653"/>
<path d="M93.1689 201.5L86.1689 111.5C86.1689 111.5 110.537 86.4651 129.669 75.5003C150.136 63.77 163.467 59.764 186.669 55.5003C218.179 49.7098 239.396 44.9805 268.669 58.0003C291.059 67.9586 316.169 99.0003 316.169 99.0003L312.669 201.5C312.669 201.5 315.286 199.189 317.169 198C320.053 196.18 321.92 195.538 325.169 194.5C330.246 192.879 333.374 191.894 338.669 192.5L338.978 192.536C343.789 193.085 347.259 193.481 350.669 197C352.139 198.517 352.743 199.602 353.669 201.5C355.994 206.268 355.706 209.723 355.169 215C354.538 221.208 353.197 224.855 349.669 230C346.386 234.788 343.227 236.404 338.669 240C334.927 242.953 333.043 245.106 328.669 247C324.1 248.978 321.128 249.941 316.169 249.5C312.722 249.194 307.669 247 307.669 247C307.669 247 306.128 251.26 305.169 254C302.925 260.411 302.29 264.234 299.669 270.5C296.871 277.187 294.962 280.824 291.169 287C287.653 292.726 285.764 296.099 281.169 301C275.159 307.411 270.8 310.145 263.169 314.5C257.019 318.01 253.168 319.426 246.657 321.821L246.169 322C237.233 325.288 232.078 327.037 222.669 328.5C210.128 330.451 208.669 330.142 199.669 330C192.421 329.886 188.546 329.298 181.169 328.5C171.14 327.416 165.566 325.669 156.169 322C149.905 319.555 146.433 317.963 140.669 314.5C133.27 310.055 129.17 307.204 123.169 301C119.501 297.209 117.678 294.834 114.669 290.5C109.638 283.254 107.284 278.753 104.169 270.5C100.841 261.682 98.6689 247 98.6689 247C98.6689 247 95.448 248.89 93.1689 249.5C87.4321 251.036 83.7833 248.936 78.1689 247C72.7177 245.121 69.7635 243.484 65.1689 240C59.8833 235.993 57.0843 233.187 53.6689 227.5L53.6498 227.469C50.9539 222.98 49.2893 220.209 48.6689 215C48.0385 209.708 48.2681 206.259 50.6689 201.5C52.8466 197.184 54.7969 194.564 59.1689 192.5C64.2898 190.083 68.0982 191.484 73.6689 192.5C78.7729 193.431 86.1689 197 86.1689 197L93.1689 201.5Z" fill="#C0F0B8" stroke="#C0F0B8"/>
<path d="M205.08 243C204.58 240.5 206.58 226 206.58 226C206.58 226 209.42 231.438 211.08 235C212.521 238.091 214.755 239.594 214.58 243C214.424 246.052 213.619 247.671 210.58 248C207.349 248.349 205.58 245.5 205.08 243Z" fill="url(#paint0_linear)" stroke="#F7F7F7"/>
<path d="M219.018 261.066C213.191 263.827 208.349 264.67 202.307 264.782C196.453 264.89 190.807 263.39 185.327 261.472C185.015 261.363 184.889 261.794 185.115 261.966C194.559 269.099 210.421 269.675 219.606 261.655C220.023 261.29 219.521 260.827 219.018 261.066Z" fill="#083345"/>
<path d="M209.047 272.24C205.264 273.899 199.764 274.495 195.116 272.321C195.027 272.279 194.956 272.375 195.009 272.447C198.221 276.787 205.721 276.537 209.233 272.597C209.368 272.445 209.248 272.151 209.047 272.24Z" fill="#083345"/>
<ellipse cx="261.5" cy="248" rx="28.5" ry="23" fill="url(#paint1_radial)"/>
<ellipse cx="139.5" cy="243" rx="28.5" ry="23" fill="url(#paint2_radial)"/>
<path d="M321.89 150.841C320.992 151.844 312.785 147.952 297.694 143.153C296.871 132.483 294.751 121.664 291.208 112.257C291.084 111.946 290.51 111.97 290.56 112.328C291.558 122.261 292.63 132.05 293.528 141.864C291.483 141.243 289.313 140.598 287.043 139.977C286.743 122.547 280.832 104.714 273.972 89.2873C273.722 88.7381 272.874 89.1679 272.999 89.6956C276.741 105.643 277.614 121.807 279.21 137.9C275.194 136.897 270.879 135.918 266.289 134.987C265.965 123.694 262.547 111.994 259.255 102.04C259.105 101.584 258.307 101.655 258.357 102.135C259.803 112.495 259.404 123.192 259.778 133.722C251.023 132.146 241.369 130.787 230.843 129.83C230.269 117.915 228.074 105.571 224.083 94.9938C223.958 94.6834 223.409 94.7073 223.434 95.0678C224.607 106.646 225.904 118.011 226.827 129.498C218.271 128.827 209.141 128.445 199.488 128.445C189.834 128.445 180.704 128.827 172.148 129.498C173.096 118.011 174.369 106.646 175.541 95.0678C175.591 94.7073 175.017 94.6834 174.892 94.9938C170.901 105.571 168.731 117.892 168.132 129.83C157.606 130.787 147.952 132.146 139.197 133.722C139.596 123.192 139.172 112.495 140.619 102.135C140.694 101.655 139.895 101.584 139.746 102.04C136.453 111.994 133.011 123.72 132.686 134.987C128.122 135.918 123.806 136.897 119.79 137.9C121.387 121.807 122.235 105.643 125.976 89.6956C126.101 89.1679 125.278 88.7381 125.028 89.2873C118.169 104.714 112.232 122.547 111.933 139.977C109.737 140.574 107.642 141.195 105.647 141.816C106.52 132.003 107.592 122.239 108.59 112.328C108.64 111.97 108.066 111.946 107.941 112.257C104.399 121.664 102.279 132.432 101.456 143.105C86.2647 147.907 77.9831 151.844 77.1101 150.841C75.0397 148.525 63.7149 21 199.488 21C335.285 21 323.96 148.525 321.89 150.841Z" fill="#083345"/>
<path d="M191.515 220L194.015 209H208.669L211.169 220C211.169 220 211.949 223.791 211.169 226C210.428 228.1 209.511 229.25 207.669 230.5C205.561 231.93 203.849 231.879 201.342 231.992C198.835 231.879 197.123 231.93 195.015 230.5C193.173 229.25 192.256 228.1 191.515 226C190.736 223.791 191.515 220 191.515 220Z" fill="url(#paint3_radial)"/>
<path d="M164.94 156.413C166.323 157.565 167.359 158.208 167.94 159.913C168.443 161.391 168.634 162.513 167.94 163.913C167.121 165.563 165.647 165.721 163.94 166.413C162.094 167.161 160.914 167.157 158.94 167.413C155.26 167.888 153.146 167.244 149.44 167.413C146.896 167.528 145.471 167.638 142.94 167.913C140.194 168.21 138.643 168.351 135.94 168.913C131.526 169.83 126.94 172.913 124.94 172.413C122.94 171.913 123.04 171.509 122.44 170.413C121.689 169.043 122.044 167.924 122.44 166.413C122.905 164.63 123.79 163.852 124.94 162.413C126.578 160.359 127.81 159.451 129.94 157.913C132.63 155.969 134.319 155.045 137.44 153.913C139.71 153.089 141.052 152.777 143.44 152.413C147.3 151.823 149.568 151.903 153.44 152.413C155.414 152.672 156.534 152.834 158.44 153.413C161.114 154.226 162.791 154.623 164.94 156.413Z" fill="#083345"/>
<path d="M238.621 156.413C237.238 157.565 236.201 158.209 235.621 159.913C235.117 161.392 234.927 162.514 235.621 163.913C236.44 165.563 237.914 165.721 239.621 166.413C241.466 167.161 242.646 167.158 244.621 167.413C248.3 167.889 250.415 167.244 254.121 167.413C256.664 167.529 258.09 167.639 260.621 167.913C263.366 168.211 264.917 168.351 267.621 168.913C272.034 169.831 276.621 172.913 278.621 172.413C280.621 171.913 280.52 171.51 281.121 170.413C281.871 169.043 281.516 167.924 281.121 166.413C280.655 164.631 279.77 163.853 278.621 162.413C276.982 160.36 275.75 159.451 273.621 157.913C270.93 155.969 269.241 155.045 266.121 153.913C263.85 153.089 262.508 152.778 260.121 152.413C256.26 151.824 253.993 151.904 250.121 152.413C248.147 152.673 247.026 152.834 245.121 153.413C242.446 154.226 240.769 154.624 238.621 156.413Z" fill="#083345"/>
<path d="M144.184 205.001C144.184 212.182 148.268 218 153.302 218C158.339 218 162.423 212.182 162.423 205.001C162.423 197.818 158.339 192 153.302 192C148.268 192 144.184 197.818 144.184 205.001Z" fill="#2E333B"/>
<path d="M132.169 194.552C133.732 196.131 135.428 197.378 137.161 197.871C138.907 198.313 140.618 198.067 142.143 197.159C143.751 196.267 145.328 194.757 147.311 193.601C149.232 192.387 151.779 191.692 153.954 192.356C151.782 193.006 150.202 194.122 148.714 195.512C147.223 196.891 145.779 198.518 143.66 199.809C141.488 201.097 138.482 201.326 136.236 200.079C133.987 198.872 132.616 196.743 132.169 194.552Z" fill="#2E333B"/>
<path d="M261.408 205.001C261.408 212.182 257.324 218 252.29 218C247.253 218 243.169 212.182 243.169 205.001C243.169 197.818 247.253 192 252.29 192C257.324 192 261.408 197.818 261.408 205.001Z" fill="#2E333B"/>
<path d="M273.423 194.552C271.86 196.131 270.164 197.378 268.431 197.871C266.685 198.313 264.974 198.067 263.449 197.159C261.841 196.267 260.264 194.757 258.281 193.601C256.36 192.387 253.813 191.692 251.638 192.356C253.81 193.006 255.39 194.122 256.878 195.512C258.369 196.891 259.813 198.518 261.932 199.809C264.104 201.097 267.11 201.326 269.356 200.079C271.605 198.872 272.976 196.743 273.423 194.552Z" fill="#2E333B"/>
<defs>
<linearGradient id="paint0_linear" x1="209.795" y1="226" x2="209.795" y2="248.029" gradientUnits="userSpaceOnUse">
<stop stop-color="white" stop-opacity="0"/>
<stop offset="1" stop-color="white" stop-opacity="0.61"/>
</linearGradient>
<radialGradient id="paint1_radial" cx="0" cy="0" r="1" gradientUnits="userSpaceOnUse" gradientTransform="translate(261 248) rotate(89.9639) scale(23 23.6724)">
<stop stop-color="#91D487"/>
<stop offset="1" stop-color="#C0F0B8"/>
</radialGradient>
<radialGradient id="paint2_radial" cx="0" cy="0" r="1" gradientUnits="userSpaceOnUse" gradientTransform="translate(139 243) rotate(89.9639) scale(23 23.6724)">
<stop stop-color="#91D487"/>
<stop offset="1" stop-color="#C0F0B8"/>
</radialGradient>
<radialGradient id="paint3_radial" cx="0" cy="0" r="1" gradientUnits="userSpaceOnUse" gradientTransform="translate(201.169 207.5) rotate(90) scale(24.5 21.6736)">
<stop offset="0.390064" stop-color="#C0F0B8"/>
<stop offset="0.833333" stop-color="#91D487"/>
</radialGradient>
</defs>
</svg>
