<svg width="405" height="476" viewBox="0 0 405 476" fill="none" xmlns="http://www.w3.org/2000/svg">
<path d="M275.077 28.3703C275.077 28.3703 229.27 -10.4072 164.755 2.70865C95.7353 16.7382 61.913 67.6141 61.913 130.963C61.913 174.403 71.8423 206.052 66.522 235.6C61.2017 265.145 28.6466 283.955 25.6084 341.327C21.5387 418.1 94.2939 461.823 203.975 461.823C313.655 461.823 387.446 404.27 387.446 341.327C387.446 272.392 343.214 256.843 339.495 225.077C335.776 193.311 363.306 47.3551 275.077 28.3703Z" fill="#435167"/>
<path d="M379.446 461.514H25.446C25.446 461.514 37.8491 417.613 76.0564 394.008C108.192 374.159 149.848 374.67 163.743 365.928C166.27 364.344 167.167 357.384 167.264 342.095C167.451 316.269 165.444 283 165.444 283H239.448C239.448 283 237.321 318.303 237.652 344.411C237.816 358.659 238.738 364.416 241.149 365.928C255.042 374.67 296.7 374.159 328.833 394.008C367.041 417.613 379.446 461.514 379.446 461.514Z" fill="#FFE8C7"/>
<path opacity="0.5" d="M166.946 348.5V321.5L237.946 326L166.946 348.5Z" fill="#FEB143"/>
<path d="M404.169 476H0.445984C0.445984 476 11.06 435.078 46.359 406.67C80.8303 378.94 139.67 373 139.67 373C153.473 420.06 202.307 418.037 202.307 418.037C202.307 418.037 251.142 420.06 264.945 373C264.945 373 323.809 378.94 358.256 406.67C393.555 435.078 404.169 476 404.169 476Z" fill="#F2C94C"/>
<path d="M93.4459 201.5L86.4459 111.5C86.4459 111.5 110.815 86.4651 129.946 75.5003C150.413 63.77 163.744 59.764 186.946 55.5003C218.456 49.7098 239.673 44.9805 268.946 58.0003C291.336 67.9586 316.446 99.0003 316.446 99.0003L312.946 201.5C312.946 201.5 315.563 199.189 317.446 198C320.33 196.18 322.197 195.538 325.446 194.5C330.523 192.879 333.651 191.894 338.946 192.5L339.255 192.536C344.066 193.085 347.536 193.481 350.946 197C352.416 198.517 353.02 199.602 353.946 201.5C356.271 206.268 355.983 209.723 355.446 215C354.815 221.208 353.474 224.855 349.946 230C346.663 234.788 343.504 236.404 338.946 240C335.204 242.953 333.32 245.106 328.946 247C324.378 248.978 321.405 249.941 316.446 249.5C312.999 249.194 307.946 247 307.946 247C307.946 247 306.405 251.26 305.446 254C303.202 260.411 302.567 264.234 299.946 270.5C297.149 277.187 295.239 280.824 291.446 287C287.93 292.726 286.041 296.099 281.446 301C275.436 307.411 271.077 310.145 263.446 314.5C257.296 318.01 253.445 319.426 246.934 321.821L246.446 322C237.51 325.288 232.355 327.037 222.946 328.5C210.405 330.451 208.946 330.142 199.946 330C192.698 329.886 188.823 329.298 181.446 328.5C171.417 327.416 165.843 325.669 156.446 322C150.182 319.555 146.71 317.963 140.946 314.5C133.547 310.055 129.448 307.204 123.446 301C119.778 297.209 117.955 294.834 114.946 290.5C109.915 283.254 107.561 278.753 104.446 270.5C101.118 261.682 98.9459 247 98.9459 247C98.9459 247 95.7251 248.89 93.4459 249.5C87.7091 251.036 84.0603 248.936 78.4459 247C72.9948 245.121 70.0406 243.484 65.4459 240C60.1603 235.993 57.3613 233.187 53.9459 227.5L53.9269 227.469C51.231 222.98 49.5663 220.209 48.9459 215C48.3156 209.708 48.5451 206.259 50.9459 201.5C53.1237 197.184 55.0739 194.564 59.4459 192.5C64.5668 190.083 68.3752 191.484 73.9459 192.5C79.05 193.431 86.4459 197 86.4459 197L93.4459 201.5Z" fill="#FFE8C7" stroke="#FFE8C7"/>
<path d="M325.899 150.841C325.008 151.844 316.868 147.952 301.899 143.153C301.082 132.483 298.979 121.664 295.466 112.257C295.342 111.946 294.773 111.97 294.823 112.328C295.812 122.261 296.876 132.05 297.767 141.864C295.738 141.243 293.585 140.598 291.334 139.977C291.037 122.547 285.173 104.714 278.369 89.2873C278.121 88.7381 277.28 89.1679 277.404 89.6956C281.115 105.643 281.981 121.807 283.565 137.9C279.581 136.897 275.301 135.918 270.748 134.987C270.426 123.694 267.037 111.994 263.771 102.04C263.622 101.584 262.83 101.655 262.88 102.135C264.315 112.495 263.919 123.192 264.29 133.722C255.606 132.146 246.03 130.787 235.589 129.83C235.02 117.915 232.843 105.571 228.884 94.9938C228.76 94.6834 228.216 94.7073 228.241 95.0678C229.403 106.646 230.69 118.011 231.605 129.498C223.119 128.827 214.063 128.445 204.488 128.445C194.912 128.445 185.857 128.827 177.37 129.498C178.31 118.011 179.572 106.646 180.735 95.0678C180.784 94.7073 180.215 94.6834 180.092 94.9938C176.133 105.571 173.98 117.892 173.386 129.83C162.945 130.787 153.37 132.146 144.685 133.722C145.081 123.192 144.66 112.495 146.095 102.135C146.17 101.655 145.378 101.584 145.229 102.04C141.963 111.994 138.549 123.72 138.227 134.987C133.699 135.918 129.419 136.897 125.435 137.9C127.019 121.807 127.86 105.643 131.572 89.6956C131.695 89.1679 130.879 88.7381 130.631 89.2873C123.827 104.714 117.939 122.547 117.642 139.977C115.464 140.574 113.386 141.195 111.406 141.816C112.272 132.003 113.336 122.239 114.326 112.328C114.376 111.97 113.807 111.946 113.683 112.257C110.169 121.664 108.066 132.432 107.25 143.105C92.1816 147.907 83.9671 151.844 83.1011 150.841C81.0475 148.525 69.8144 21 204.488 21C339.186 21 327.953 148.525 325.899 150.841Z" fill="#435167"/>
<path d="M191.793 220L194.293 209H208.946L211.446 220C211.446 220 212.226 223.791 211.446 226C210.705 228.1 209.788 229.25 207.946 230.5C205.838 231.93 204.126 231.879 201.619 231.992C199.112 231.879 197.4 231.93 195.293 230.5C193.45 229.25 192.533 228.1 191.793 226C191.013 223.791 191.793 220 191.793 220Z" fill="url(#paint0_radial)"/>
<g filter="url(#filter0_d)">
<path d="M132.446 242C134.475 238.698 138.946 234.5 138.946 234.5H182.946L266.446 235C266.446 235 270.917 239.198 272.946 242.5C279.488 253.148 277.228 262.76 272.946 274.5C271.12 279.507 269.446 284.5 266.446 286.5C263.446 288.5 248.098 292.337 235.946 294C223.945 295.643 217.058 295.03 204.946 295C191.07 294.966 183.171 295.544 169.446 293.5C157.314 291.694 141.946 288.5 138.946 286C135.946 283.5 134.272 279.007 132.446 274C128.164 262.26 125.903 252.648 132.446 242Z" fill="#F1F3F6"/>
<path d="M132.446 242C134.475 238.698 138.946 234.5 138.946 234.5H182.946L266.446 235C266.446 235 270.917 239.198 272.946 242.5C279.488 253.148 277.228 262.76 272.946 274.5C271.12 279.507 269.446 284.5 266.446 286.5C263.446 288.5 248.098 292.337 235.946 294C223.945 295.643 217.058 295.03 204.946 295C191.07 294.966 183.171 295.544 169.446 293.5C157.314 291.694 141.946 288.5 138.946 286C135.946 283.5 134.272 279.007 132.446 274C128.164 262.26 125.903 252.648 132.446 242Z" fill="url(#paint1_linear)"/>
<path d="M91.9459 199L138.946 235L135.446 240L91.9459 199Z" fill="#F1F3F6"/>
<path d="M91.9459 199L138.946 235L135.446 240L91.9459 199Z" fill="url(#paint2_linear)"/>
<path d="M98.4459 248L138.446 278V285L98.4459 248Z" fill="#F1F3F6"/>
<path d="M98.4459 248L138.446 278V285L98.4459 248Z" fill="url(#paint3_linear)"/>
<path d="M320.446 195L265.446 235L267.446 241L320.446 195Z" fill="#F1F3F6"/>
<path d="M320.446 195L265.446 235L267.446 241L320.446 195Z" fill="url(#paint4_linear)"/>
<path d="M307.946 248L267.446 281L266.446 286.5L307.946 248Z" fill="#F1F3F6"/>
<path d="M307.946 248L267.446 281L266.446 286.5L307.946 248Z" fill="url(#paint5_linear)"/>
</g>
<path d="M163.94 156.413C165.323 157.565 166.359 158.208 166.94 159.913C167.443 161.391 167.634 162.513 166.94 163.913C166.121 165.563 164.647 165.721 162.94 166.413C161.094 167.161 159.914 167.157 157.94 167.413C154.26 167.888 152.146 167.244 148.44 167.413C145.896 167.528 144.471 167.638 141.94 167.913C139.194 168.21 137.643 168.351 134.94 168.913C130.526 169.83 125.94 172.913 123.94 172.413C121.94 171.913 122.04 171.509 121.44 170.413C120.689 169.043 121.044 167.924 121.44 166.413C121.905 164.63 122.79 163.852 123.94 162.413C125.578 160.359 126.81 159.451 128.94 157.913C131.63 155.969 133.319 155.045 136.44 153.913C138.71 153.089 140.052 152.777 142.44 152.413C146.3 151.823 148.568 151.903 152.44 152.413C154.414 152.672 155.534 152.834 157.44 153.413C160.114 154.226 161.791 154.623 163.94 156.413Z" fill="#435167"/>
<path d="M238.898 156.413C237.515 157.565 236.478 158.209 235.898 159.913C235.394 161.392 235.204 162.514 235.898 163.913C236.717 165.563 238.191 165.721 239.898 166.413C241.743 167.161 242.923 167.158 244.898 167.413C248.577 167.889 250.692 167.244 254.398 167.413C256.941 167.529 258.367 167.639 260.898 167.913C263.643 168.211 265.194 168.351 267.898 168.913C272.311 169.831 276.898 172.913 278.898 172.413C280.898 171.913 280.797 171.51 281.398 170.413C282.148 169.043 281.793 167.924 281.398 166.413C280.932 164.631 280.047 163.853 278.898 162.413C277.259 160.36 276.027 159.451 273.898 157.913C271.207 155.969 269.518 155.045 266.398 153.913C264.127 153.089 262.785 152.778 260.398 152.413C256.537 151.824 254.27 151.904 250.398 152.413C248.424 152.673 247.303 152.834 245.398 153.413C242.723 154.226 241.046 154.624 238.898 156.413Z" fill="#435167"/>
<path d="M144.461 205.001C144.461 212.182 148.545 218 153.579 218C158.616 218 162.7 212.182 162.7 205.001C162.7 197.818 158.616 192 153.579 192C148.545 192 144.461 197.818 144.461 205.001Z" fill="#2E333B"/>
<path d="M132.446 194.552C134.009 196.131 135.705 197.378 137.438 197.871C139.184 198.313 140.895 198.067 142.42 197.159C144.028 196.267 145.605 194.757 147.588 193.601C149.509 192.387 152.056 191.692 154.231 192.356C152.059 193.006 150.479 194.122 148.991 195.512C147.5 196.891 146.056 198.518 143.937 199.809C141.765 201.097 138.759 201.326 136.513 200.079C134.264 198.872 132.893 196.743 132.446 194.552Z" fill="#2E333B"/>
<path d="M261.685 205.001C261.685 212.182 257.601 218 252.567 218C247.53 218 243.446 212.182 243.446 205.001C243.446 197.818 247.53 192 252.567 192C257.601 192 261.685 197.818 261.685 205.001Z" fill="#2E333B"/>
<path d="M273.7 194.552C272.137 196.131 270.441 197.378 268.708 197.871C266.962 198.313 265.251 198.067 263.726 197.159C262.118 196.267 260.541 194.757 258.558 193.601C256.637 192.387 254.09 191.692 251.915 192.356C254.087 193.006 255.667 194.122 257.155 195.512C258.646 196.891 260.09 198.518 262.209 199.809C264.381 201.097 267.387 201.326 269.633 200.079C271.882 198.872 273.253 196.743 273.7 194.552Z" fill="#2E333B"/>
<defs>
<filter id="filter0_d" x="87.9459" y="195" width="236.5" height="108.136" filterUnits="userSpaceOnUse" color-interpolation-filters="sRGB">
<feFlood flood-opacity="0" result="BackgroundImageFix"/>
<feColorMatrix in="SourceAlpha" type="matrix" values="0 0 0 0 0 0 0 0 0 0 0 0 0 0 0 0 0 0 127 0"/>
<feOffset dy="4"/>
<feGaussianBlur stdDeviation="2"/>
<feColorMatrix type="matrix" values="0 0 0 0 0 0 0 0 0 0 0 0 0 0 0 0 0 0 0.25 0"/>
<feBlend mode="normal" in2="BackgroundImageFix" result="effect1_dropShadow"/>
<feBlend mode="normal" in="SourceGraphic" in2="effect1_dropShadow" result="shape"/>
</filter>
<radialGradient id="paint0_radial" cx="0" cy="0" r="1" gradientUnits="userSpaceOnUse" gradientTransform="translate(201.446 207.5) rotate(90) scale(24.5 21.6736)">
<stop offset="0.390064" stop-color="#FFE8C7"/>
<stop offset="0.833333" stop-color="#FAC373"/>
</radialGradient>
<linearGradient id="paint1_linear" x1="210.161" y1="195" x2="210.161" y2="295.137" gradientUnits="userSpaceOnUse">
<stop stop-color="#E9FBFF" stop-opacity="0"/>
<stop offset="1" stop-color="#C7D7FF"/>
</linearGradient>
<linearGradient id="paint2_linear" x1="210.161" y1="195" x2="210.161" y2="295.137" gradientUnits="userSpaceOnUse">
<stop stop-color="#E9FBFF" stop-opacity="0"/>
<stop offset="1" stop-color="#C7D7FF"/>
</linearGradient>
<linearGradient id="paint3_linear" x1="210.161" y1="195" x2="210.161" y2="295.137" gradientUnits="userSpaceOnUse">
<stop stop-color="#E9FBFF" stop-opacity="0"/>
<stop offset="1" stop-color="#C7D7FF"/>
</linearGradient>
<linearGradient id="paint4_linear" x1="210.161" y1="195" x2="210.161" y2="295.137" gradientUnits="userSpaceOnUse">
<stop stop-color="#E9FBFF" stop-opacity="0"/>
<stop offset="1" stop-color="#C7D7FF"/>
</linearGradient>
<linearGradient id="paint5_linear" x1="210.161" y1="195" x2="210.161" y2="295.137" gradientUnits="userSpaceOnUse">
<stop stop-color="#E9FBFF" stop-opacity="0"/>
<stop offset="1" stop-color="#C7D7FF"/>
</linearGradient>
</defs>
</svg>
