<svg width="404" height="457" viewBox="0 0 404 457" fill="none" xmlns="http://www.w3.org/2000/svg">
<path d="M379.169 443.014H25.1689C25.1689 443.014 37.572 399.113 75.7794 375.508C107.915 355.659 149.571 356.17 163.466 347.428C165.993 345.844 166.89 338.884 166.986 323.595C167.174 297.769 165.167 264.5 165.167 264.5H239.171C239.171 264.5 237.043 299.803 237.375 325.911C237.539 340.159 238.461 345.916 240.872 347.428C254.765 356.17 296.423 355.659 328.556 375.508C366.764 399.113 379.169 443.014 379.169 443.014Z" fill="#C0F0B8"/>
<path opacity="0.5" d="M166.669 344V317L237.669 321.5L166.669 344Z" fill="#40B561"/>
<path d="M403.892 456.5H0.168945C0.168945 456.5 10.783 415.578 46.082 387.17C80.5533 359.44 139.393 353.5 139.393 353.5C153.196 400.56 202.03 398.537 202.03 398.537C202.03 398.537 250.865 400.56 264.668 353.5C264.668 353.5 323.532 359.44 357.979 387.17C393.278 415.578 403.892 456.5 403.892 456.5Z" fill="#219653"/>
<path d="M94.1689 196.999L87.1689 106.999C87.1689 106.999 111.537 81.9638 130.669 70.999C151.136 59.2687 164.467 55.2627 187.669 50.999C219.179 45.2086 240.396 40.4793 269.669 53.499C292.059 63.4573 317.169 94.499 317.169 94.499L313.669 196.999C313.669 196.999 316.286 194.687 318.169 193.499C321.053 191.679 322.92 191.036 326.169 189.999C331.246 188.378 334.374 187.393 339.669 187.999L339.978 188.034C344.789 188.584 348.259 188.98 351.669 192.499C353.139 194.016 353.743 195.101 354.669 196.999C356.994 201.767 356.706 205.222 356.169 210.499C355.538 216.706 354.197 220.353 350.669 225.499C347.386 230.287 344.227 231.903 339.669 235.499C335.927 238.452 334.043 240.605 329.669 242.499C325.1 244.477 322.128 245.44 317.169 244.999C313.722 244.693 308.669 242.499 308.669 242.499C308.669 242.499 307.128 246.759 306.169 249.499C303.925 255.91 303.29 259.733 300.669 265.999C297.871 272.686 295.962 276.322 292.169 282.499C288.653 288.224 286.764 291.597 282.169 296.499C276.159 302.909 271.8 305.644 264.169 309.999C258.019 313.509 254.168 314.925 247.657 317.319L247.169 317.499C238.233 320.787 233.078 322.536 223.669 323.999C211.128 325.95 209.669 325.641 200.669 325.499C193.421 325.385 189.546 324.797 182.169 323.999C172.14 322.915 166.566 321.168 157.169 317.499C150.905 315.054 147.433 313.462 141.669 309.999C134.27 305.554 130.17 302.702 124.169 296.499C120.501 292.707 118.678 290.333 115.669 285.999C110.638 278.753 108.284 274.252 105.169 265.999C101.841 257.181 99.6689 242.499 99.6689 242.499C99.6689 242.499 96.448 244.389 94.1689 244.999C88.4321 246.534 84.7833 244.435 79.1689 242.499C73.7177 240.62 70.7635 238.983 66.1689 235.499C60.8833 231.491 58.0843 228.685 54.6689 222.999L54.6498 222.967C51.9539 218.479 50.2893 215.707 49.6689 210.499C49.0385 205.207 49.2681 201.757 51.6689 196.999C53.8466 192.683 55.7969 190.062 60.1689 187.999C65.2898 185.582 69.0982 186.983 74.6689 187.999C79.7729 188.93 87.1689 192.499 87.1689 192.499L94.1689 196.999Z" fill="#C0F0B8" stroke="#C0F0B8"/>
<path d="M208.08 238C207.58 235.5 209.58 221 209.58 221C209.58 221 212.42 226.438 214.08 230C215.521 233.091 217.755 234.594 217.58 238C217.424 241.052 216.619 242.671 213.58 243C210.349 243.349 208.58 240.5 208.08 238Z" fill="url(#paint0_linear)" stroke="#F7F7F7"/>
<path d="M220.018 258.066C214.191 260.827 209.349 261.67 203.307 261.782C197.453 261.89 191.807 260.39 186.327 258.472C186.015 258.363 185.889 258.794 186.115 258.966C195.559 266.099 211.421 266.675 220.606 258.655C221.023 258.29 220.521 257.827 220.018 258.066Z" fill="#083345"/>
<path d="M210.047 269.24C206.264 270.899 200.764 271.495 196.116 269.321C196.027 269.279 195.956 269.375 196.009 269.447C199.221 273.787 206.721 273.537 210.233 269.597C210.368 269.445 210.248 269.151 210.047 269.24Z" fill="#083345"/>
<ellipse cx="262.5" cy="250" rx="28.5" ry="23" fill="url(#paint1_radial)"/>
<ellipse cx="140.5" cy="252" rx="28.5" ry="23" fill="url(#paint2_radial)"/>
<path d="M192.516 215.5L195.016 204.5H209.669L212.169 215.5C212.169 215.5 212.949 219.29 212.169 221.5C211.428 223.599 210.511 224.75 208.669 226C206.561 227.43 204.849 227.379 202.342 227.492C199.835 227.379 198.123 227.43 196.016 226C194.173 224.75 193.257 223.599 192.516 221.5C191.736 219.29 192.516 215.5 192.516 215.5Z" fill="url(#paint3_radial)"/>
<path d="M167.669 141.5C169.052 142.652 170.089 143.296 170.669 145C171.172 146.479 171.363 147.601 170.669 149C169.85 150.65 168.376 150.808 166.669 151.5C164.823 152.248 163.644 152.245 161.669 152.5C157.99 152.976 155.875 152.331 152.169 152.5C149.626 152.616 148.2 152.726 145.669 153C142.924 153.298 141.373 153.438 138.669 154C134.255 154.918 129.669 158 127.669 157.5C125.669 157 125.77 156.597 125.169 155.5C124.418 154.13 124.774 153.011 125.169 151.5C125.635 149.718 126.52 148.94 127.669 147.5C129.308 145.447 130.539 144.538 132.669 143C135.36 141.056 137.049 140.132 140.169 139C142.439 138.176 143.781 137.865 146.169 137.5C150.029 136.911 152.297 136.991 156.169 137.5C158.143 137.76 159.264 137.921 161.169 138.5C163.844 139.313 165.521 139.711 167.669 141.5Z" fill="#083345"/>
<path d="M239.621 141.913C238.238 143.065 237.201 143.708 236.621 145.413C236.117 146.891 235.927 148.013 236.621 149.413C237.439 151.063 238.914 151.221 240.621 151.913C242.466 152.661 243.646 152.657 245.621 152.913C249.3 153.388 251.415 152.744 255.121 152.913C257.664 153.029 259.09 153.138 261.621 153.413C264.366 153.71 265.917 153.851 268.621 154.413C273.034 155.33 277.621 158.413 279.621 157.913C281.621 157.413 281.52 157.009 282.121 155.913C282.871 154.543 282.516 153.424 282.121 151.913C281.655 150.13 280.77 149.352 279.621 147.913C277.982 145.859 276.75 144.951 274.621 143.413C271.93 141.469 270.241 140.545 267.121 139.413C264.85 138.589 263.508 138.277 261.121 137.913C257.26 137.323 254.993 137.403 251.121 137.913C249.146 138.172 248.026 138.334 246.121 138.913C243.446 139.726 241.769 140.123 239.621 141.913Z" fill="#083345"/>
<ellipse cx="154.169" cy="200.5" rx="10" ry="13" fill="#2F333C"/>
<ellipse cx="252.169" cy="200.5" rx="10" ry="13" fill="#2F333C"/>
<path d="M94.5255 199.771C88.258 210.513 69.2522 121.603 78.8064 86.5702C85.9721 60.296 107.689 48.4368 107.689 48.4368C107.689 48.4368 115.201 15.766 154.409 4.04298C209.915 -12.5551 277.272 34.4207 293.378 36.8093C309.487 39.1978 336.047 32.0322 344.715 40.3921C353.381 48.7521 337.213 72.8431 325.425 82.3902C325.425 82.3902 337.965 101.697 337.965 117.223C337.965 132.748 329.426 199.771 315.274 199.771C306.479 199.771 298.702 139.219 303.116 96.5233C303.116 96.5233 255.5 120.495 203.219 120.607C173.929 120.672 143.128 115.271 118.32 96.6881C118.32 96.6881 110.441 172.501 94.5255 199.771Z" fill="#083345"/>
<defs>
<linearGradient id="paint0_linear" x1="212.795" y1="221" x2="212.795" y2="243.029" gradientUnits="userSpaceOnUse">
<stop stop-color="white" stop-opacity="0"/>
<stop offset="1" stop-color="white" stop-opacity="0.61"/>
</linearGradient>
<radialGradient id="paint1_radial" cx="0" cy="0" r="1" gradientUnits="userSpaceOnUse" gradientTransform="translate(262 250) rotate(89.9639) scale(23 23.6724)">
<stop stop-color="#91D487"/>
<stop offset="1" stop-color="#C0F0B8"/>
</radialGradient>
<radialGradient id="paint2_radial" cx="0" cy="0" r="1" gradientUnits="userSpaceOnUse" gradientTransform="translate(140 252) rotate(89.9639) scale(23 23.6724)">
<stop stop-color="#91D487"/>
<stop offset="1" stop-color="#C0F0B8"/>
</radialGradient>
<radialGradient id="paint3_radial" cx="0" cy="0" r="1" gradientUnits="userSpaceOnUse" gradientTransform="translate(202.169 203) rotate(90) scale(24.5 21.6736)">
<stop offset="0.390064" stop-color="#C0F0B8"/>
<stop offset="0.833333" stop-color="#91D487"/>
</radialGradient>
</defs>
</svg>
