<svg width="405" height="462" viewBox="0 0 405 462" fill="none" xmlns="http://www.w3.org/2000/svg">
<path d="M67.7229 104.5C73.649 86.8659 88.2229 61.5 88.2229 61.5L241.656 352.34C212.646 354.934 193.224 354.694 164.223 352C142.664 349.997 109.223 345 109.223 345L100.723 275L104.723 345L90.5 340.5C90.5 340.5 84.834 302.1 82.5 275C80.337 249.885 78.9591 223.5 78.9591 223.5L79.2229 210C79.2229 210 78.2435 247.503 79.2229 271.5C80.326 298.525 85.2229 340.5 85.2229 340.5L67.7229 334C67.7229 334 63.95 310.284 62.2229 295C58.4905 261.969 58.4014 243.234 57.7229 210C57.2965 189.111 55.731 177.298 57.7229 156.5C59.6945 135.915 61.1355 124.102 67.7229 104.5Z" fill="#703838"/>
<path d="M336.548 104.219C330.508 86.624 315.77 61.3533 315.77 61.3533L164.223 352C193.25 354.405 212.673 355.223 241.656 352.34C263.202 350.198 296.61 344.984 296.61 344.984L304.655 274.93L301.11 344.954L315.5 340.5C315.5 340.5 317.974 298.444 320.132 271.329C320.409 267.853 320.609 265.083 320.749 262.891C321.885 272.358 320.615 297.065 320.132 312C319.729 324.482 320.58 340.328 320.58 340.328L338.038 333.715C338.038 333.715 341.656 309.974 343.284 294.68C346.802 261.625 346.77 242.89 347.233 209.652C347.524 188.761 349.012 176.938 346.885 156.153C344.78 135.581 343.263 123.778 336.548 104.219Z" fill="#703838"/>
<path d="M379.723 447.514H25.723C25.723 447.514 38.1261 403.613 76.3335 380.008C108.469 360.159 150.125 360.67 164.02 351.928C166.547 350.344 167.444 343.384 167.541 328.095C167.728 302.269 165.721 269 165.721 269H239.725C239.725 269 237.598 304.303 237.93 330.411C238.093 344.659 239.015 350.416 241.426 351.928C255.319 360.67 296.977 360.159 329.11 380.008C367.318 403.613 379.723 447.514 379.723 447.514Z" fill="#FFC29C"/>
<path opacity="0.5" d="M167.223 334.5V307.5L238.223 312L167.223 334.5Z" fill="#B46349" stroke="#B46349"/>
<path d="M404.446 462H0.723022C0.723022 462 11.3371 421.078 46.636 392.67C81.1073 364.94 139.947 359 139.947 359C153.75 406.06 202.585 404.037 202.585 404.037C202.585 404.037 251.419 406.06 265.222 359C265.222 359 324.086 364.94 358.533 392.67C393.832 421.078 404.446 462 404.446 462Z" fill="#BB6BD9"/>
<path d="M93.723 187.5L86.723 97.5001C86.723 97.5001 111.092 72.4649 130.223 61.5001C150.69 49.7697 164.021 45.7638 187.223 41.5001C218.733 35.7096 239.95 30.9803 269.223 44.0001C291.613 53.9584 316.723 85.0001 316.723 85.0001L313.223 187.5C313.223 187.5 315.84 185.188 317.723 184C320.607 182.18 322.474 181.537 325.723 180.5C330.8 178.879 333.928 177.894 339.223 178.5L339.533 178.535C344.343 179.085 347.813 179.481 351.223 183C352.693 184.517 353.297 185.602 354.223 187.5C356.548 192.268 356.26 195.723 355.723 201C355.092 207.207 353.751 210.854 350.223 216C346.94 220.788 343.781 222.404 339.223 226C335.481 228.953 333.597 231.106 329.223 233C324.655 234.978 321.682 235.941 316.723 235.5C313.276 235.194 308.223 233 308.223 233C308.223 233 306.682 237.26 305.723 240C303.479 246.411 302.844 250.234 300.223 256.5C297.426 263.187 295.516 266.823 291.723 273C288.207 278.726 286.318 282.098 281.723 287C275.713 293.41 271.355 296.145 263.723 300.5C257.573 304.01 253.722 305.426 247.211 307.821L246.723 308C237.787 311.288 232.632 313.037 223.223 314.5C210.682 316.451 209.223 316.142 200.223 316C192.975 315.886 189.1 315.298 181.723 314.5C171.694 313.416 166.12 311.669 156.723 308C150.459 305.555 146.987 303.963 141.223 300.5C133.824 296.055 129.725 293.203 123.723 287C120.055 283.208 118.232 280.834 115.223 276.5C110.192 269.254 107.838 264.753 104.723 256.5C101.395 247.682 99.223 233 99.223 233C99.223 233 96.0021 234.89 93.723 235.5C87.9862 237.035 84.3373 234.936 78.723 233C73.2718 231.121 70.3176 229.484 65.723 226C60.4373 221.992 57.6384 219.186 54.223 213.5L54.2039 213.468C51.508 208.98 49.8433 206.208 49.223 201C48.5926 195.708 48.8222 192.258 51.223 187.5C53.4007 183.184 55.351 180.564 59.723 178.5C64.8439 176.083 68.6523 177.484 74.223 178.5C79.327 179.431 86.723 183 86.723 183L93.723 187.5Z" fill="#FFC29C" stroke="#FFC29C"/>
<path d="M192.07 206L194.57 195H209.223L211.723 206C211.723 206 212.503 209.791 211.723 212C210.982 214.1 210.065 215.25 208.223 216.5C206.115 217.93 204.403 217.879 201.896 217.992C199.389 217.879 197.677 217.93 195.57 216.5C193.727 215.25 192.811 214.1 192.07 212C191.29 209.791 192.07 206 192.07 206Z" fill="url(#paint0_radial)"/>
<g filter="url(#filter0_d)">
<path d="M132.723 228C134.752 224.698 139.223 220.5 139.223 220.5H183.223L266.723 221C266.723 221 271.194 225.198 273.223 228.5C279.765 239.147 277.505 248.76 273.223 260.5C271.397 265.507 269.723 270.5 266.723 272.5C263.723 274.5 248.375 278.337 236.223 280C224.222 281.643 217.335 281.03 205.223 281C191.347 280.966 183.448 281.544 169.723 279.5C157.591 277.694 142.223 274.5 139.223 272C136.223 269.5 134.549 265.007 132.723 260C128.441 248.26 126.18 238.647 132.723 228Z" fill="#F1F3F6"/>
<path d="M132.723 228C134.752 224.698 139.223 220.5 139.223 220.5H183.223L266.723 221C266.723 221 271.194 225.198 273.223 228.5C279.765 239.147 277.505 248.76 273.223 260.5C271.397 265.507 269.723 270.5 266.723 272.5C263.723 274.5 248.375 278.337 236.223 280C224.222 281.643 217.335 281.03 205.223 281C191.347 280.966 183.448 281.544 169.723 279.5C157.591 277.694 142.223 274.5 139.223 272C136.223 269.5 134.549 265.007 132.723 260C128.441 248.26 126.18 238.647 132.723 228Z" fill="url(#paint1_linear)"/>
<path d="M92.223 185L139.223 221L135.723 226L92.223 185Z" fill="#F1F3F6"/>
<path d="M92.223 185L139.223 221L135.723 226L92.223 185Z" fill="url(#paint2_linear)"/>
<path d="M98.723 234L138.723 264V271L98.723 234Z" fill="#F1F3F6"/>
<path d="M98.723 234L138.723 264V271L98.723 234Z" fill="url(#paint3_linear)"/>
<path d="M320.723 181L265.723 221L267.723 227L320.723 181Z" fill="#F1F3F6"/>
<path d="M320.723 181L265.723 221L267.723 227L320.723 181Z" fill="url(#paint4_linear)"/>
<path d="M308.223 234L267.723 267L266.723 272.5L308.223 234Z" fill="#F1F3F6"/>
<path d="M308.223 234L267.723 267L266.723 272.5L308.223 234Z" fill="url(#paint5_linear)"/>
</g>
<path d="M167.223 132C168.606 133.152 169.643 133.796 170.223 135.5C170.726 136.979 170.917 138.101 170.223 139.5C169.404 141.15 167.93 141.308 166.223 142C164.378 142.748 163.198 142.745 161.223 143C157.544 143.476 155.429 142.831 151.723 143C149.18 143.116 147.754 143.226 145.223 143.5C142.478 143.798 140.927 143.938 138.223 144.5C133.809 145.418 129.223 148.5 127.223 148C125.223 147.5 125.324 147.097 124.723 146C123.972 144.63 124.328 143.511 124.723 142C125.189 140.218 126.074 139.44 127.223 138C128.862 135.947 130.094 135.038 132.223 133.5C134.914 131.556 136.603 130.632 139.723 129.5C141.993 128.676 143.335 128.365 145.723 128C149.584 127.411 151.851 127.491 155.723 128C157.697 128.26 158.818 128.421 160.723 129C163.398 129.813 165.075 130.211 167.223 132Z" fill="#703838"/>
<path d="M239.175 132.413C237.792 133.565 236.755 134.209 236.175 135.913C235.671 137.391 235.481 138.513 236.175 139.913C236.994 141.563 238.468 141.721 240.175 142.413C242.02 143.161 243.2 143.157 245.175 143.413C248.854 143.888 250.969 143.244 254.675 143.413C257.218 143.529 258.644 143.638 261.175 143.913C263.92 144.21 265.471 144.351 268.175 144.913C272.589 145.83 277.175 148.913 279.175 148.413C281.175 147.913 281.074 147.509 281.675 146.413C282.426 145.043 282.07 143.924 281.675 142.413C281.209 140.631 280.324 139.852 279.175 138.413C277.536 136.36 276.304 135.451 274.175 133.913C271.484 131.969 269.795 131.045 266.675 129.913C264.404 129.089 263.062 128.777 260.675 128.413C256.814 127.823 254.547 127.903 250.675 128.413C248.701 128.673 247.58 128.834 245.675 129.413C243 130.226 241.323 130.623 239.175 132.413Z" fill="#703838"/>
<path d="M313 185.5C313.372 185.835 313.372 185.834 313.372 185.834L313.373 185.833L313.377 185.829L313.39 185.814L313.445 185.753C313.492 185.699 313.563 185.62 313.655 185.515C313.839 185.306 314.109 184.998 314.453 184.597C315.142 183.795 316.129 182.625 317.324 181.15C319.715 178.2 322.942 174.028 326.285 169.137C332.959 159.372 340.142 146.677 342.009 135.106C344.226 121.363 339.553 105.253 334.122 92.198C329.267 80.5273 323.773 71.2206 321.943 68.1206C321.723 67.7481 321.556 67.4651 321.449 67.2785C319.434 63.7514 316.384 59.2437 312.391 54.6967L312.157 54.4304L312.152 54.424C307.714 49.3691 299.411 39.9109 290.02 32.1153C278.04 22.1712 270.719 16.7594 256.399 10.5414C235.151 1.31439 210.25 0.712143 198.023 0.52668C186.042 0.344952 176.351 1.07211 167.025 3.30619C157.698 5.54058 148.759 9.2768 138.273 15.0893C124.606 22.6654 118.047 29.0535 107.158 40.1769C95.634 51.9489 89.5534 59.3431 81.5776 73.7849C81.0724 74.6997 80.5876 75.5688 80.1216 76.4042C76.581 82.7514 74.1242 87.1556 72.0326 94.8962C69.5775 103.982 70.4686 115.946 71.9516 125.586C72.6947 130.417 73.5898 134.684 74.299 137.743C74.6537 139.273 74.9621 140.501 75.1819 141.348C75.2919 141.771 75.3797 142.099 75.4402 142.322C75.4704 142.433 75.4938 142.518 75.5097 142.575L75.5278 142.64L75.5325 142.657L75.5337 142.661L75.534 142.662C75.5341 142.662 75.5342 142.663 76.0153 142.527L75.5342 142.663L75.5394 142.681L75.5461 142.699L89.5295 180.654L89.5296 180.655C89.5351 180.688 89.5431 180.734 89.554 180.794C89.5756 180.913 89.6085 181.083 89.6539 181.291C89.7444 181.706 89.8853 182.276 90.0873 182.894C90.4809 184.099 91.1435 185.607 92.2115 186.424C92.8012 186.875 93.4295 187.05 94.0659 186.965C94.6847 186.882 95.2546 186.56 95.7647 186.127C96.7778 185.267 97.6901 183.85 98.4481 182.397C99.213 180.932 99.8487 179.377 100.292 178.192C100.514 177.598 100.689 177.095 100.808 176.74C100.868 176.563 100.914 176.422 100.945 176.325C100.961 176.277 100.972 176.24 100.981 176.214L100.99 176.185L100.992 176.177L100.993 176.175L100.993 176.175C100.993 176.174 100.993 176.174 100.981 176.171L100.993 176.174L100.994 176.171L100.515 176.027C100.994 176.171 100.994 176.171 100.994 176.17L100.994 176.17L100.995 176.169L100.996 176.164L101.002 176.145L101.024 176.07L101.111 175.781C101.186 175.529 101.294 175.163 101.429 174.706C101.698 173.792 102.071 172.514 102.486 171.057C103.317 168.145 104.319 164.511 105.002 161.642C105.245 160.621 105.475 159.677 105.694 158.783C106.714 154.605 107.472 151.505 108.012 146.581C108.421 142.862 108.421 139.941 108.319 137.026C108.288 136.155 108.249 135.287 108.209 134.401C108.115 132.315 108.015 130.122 108.015 127.527V111.527V98.0266V92.641C108.189 92.795 108.383 92.9665 108.59 93.1492C109.392 93.8572 110.395 94.7352 111.193 95.4086C118.379 101.479 122.808 104.445 130.749 109.45C131.152 109.704 131.53 109.943 131.891 110.171C134.113 111.578 135.675 112.566 138.278 113.967C140.212 115.007 141.323 115.546 143.302 116.479C151.035 120.125 155.591 121.911 163.893 124.011C169.102 125.329 172.094 126.009 177.468 126.524C181.28 126.89 184.057 126.781 187.125 126.66C188.77 126.595 190.498 126.527 192.515 126.527H201.515H202.22L201.987 125.862L201.515 126.027C201.987 125.862 201.987 125.861 201.987 125.861L201.987 125.861L201.987 125.86L201.986 125.857L201.982 125.846L201.967 125.804C201.954 125.767 201.935 125.713 201.909 125.644C201.859 125.505 201.785 125.304 201.691 125.054C201.503 124.556 201.233 123.863 200.906 123.086C200.255 121.54 199.365 119.627 198.429 118.246C197.315 116.601 196.226 115.496 195.072 114.466C194.679 114.115 194.285 113.778 193.882 113.433C193.094 112.759 192.274 112.058 191.365 111.169C189.533 109.38 187.156 107.127 185.237 105.323C184.823 104.933 184.43 104.565 184.068 104.226C184.157 104.266 184.248 104.307 184.34 104.349C186.183 105.185 188.682 106.325 191.305 107.543C196.569 109.987 202.283 112.721 204.25 113.951C204.667 114.211 205.09 114.478 205.52 114.749C209.193 117.069 213.372 119.707 218.86 121.502C223.874 123.142 227.117 123.44 231.946 123.883C232.436 123.928 232.942 123.975 233.468 124.024C235.609 124.226 237.474 124.446 239.236 124.654C243.193 125.121 246.63 125.527 251.515 125.527C254.668 125.527 257.134 125.281 259.586 124.971C260.199 124.893 260.809 124.812 261.428 124.729C263.29 124.481 265.232 124.222 267.558 124.025C272.322 123.62 276.049 122.855 279.792 122.087C280.726 121.895 281.66 121.704 282.611 121.517C285.167 121.017 288.214 119.743 290.598 118.612C291.795 118.044 292.835 117.507 293.576 117.112C293.737 117.026 293.884 116.947 294.015 116.875V127.527C294.015 129.546 293.952 131.275 293.891 132.92C293.778 135.986 293.676 138.758 294.017 142.571C294.806 151.392 295.948 156.406 299.047 164.702C299.466 165.825 299.842 166.884 300.2 167.894C301.914 172.73 303.239 176.467 307.142 180.859C308.125 181.966 309.518 183.227 310.652 184.203C311.221 184.693 311.73 185.115 312.097 185.414C312.165 185.47 312.228 185.521 312.286 185.568C312.384 185.647 312.466 185.714 312.53 185.765C312.582 185.806 312.621 185.838 312.648 185.859L312.679 185.884L312.687 185.89L312.689 185.892L312.69 185.892L312.69 185.892C312.69 185.893 312.69 185.893 313 185.5ZM313 185.5L313.372 185.835L313.058 186.183L312.69 185.893L313 185.5Z" fill="#703838" stroke="#703838"/>
<path d="M143.738 189.001C143.738 196.182 147.822 202 152.856 202C157.893 202 161.977 196.182 161.977 189.001C161.977 181.818 157.893 176 152.856 176C147.822 176 143.738 181.818 143.738 189.001Z" fill="#2E333B"/>
<path d="M131.723 178.552C133.286 180.131 134.982 181.378 136.715 181.871C138.461 182.313 140.172 182.067 141.697 181.159C143.305 180.267 144.882 178.757 146.865 177.601C148.786 176.387 151.334 175.692 153.508 176.356C151.336 177.006 149.756 178.122 148.268 179.512C146.777 180.891 145.334 182.518 143.214 183.809C141.042 185.097 138.036 185.326 135.79 184.079C133.541 182.872 132.17 180.743 131.723 178.552Z" fill="#2E333B"/>
<path d="M260.962 189.001C260.962 196.182 256.878 202 251.844 202C246.807 202 242.723 196.182 242.723 189.001C242.723 181.818 246.807 176 251.844 176C256.878 176 260.962 181.818 260.962 189.001Z" fill="#2E333B"/>
<path d="M272.977 178.552C271.414 180.131 269.718 181.378 267.986 181.871C266.239 182.313 264.528 182.067 263.003 181.159C261.395 180.267 259.818 178.757 257.835 177.601C255.914 176.387 253.367 175.692 251.192 176.356C253.364 177.006 254.944 178.122 256.432 179.512C257.923 180.891 259.367 182.518 261.486 183.809C263.658 185.097 266.664 185.326 268.91 184.079C271.159 182.872 272.53 180.743 272.977 178.552Z" fill="#2E333B"/>
<defs>
<filter id="filter0_d" x="88.223" y="181" width="236.5" height="108.136" filterUnits="userSpaceOnUse" color-interpolation-filters="sRGB">
<feFlood flood-opacity="0" result="BackgroundImageFix"/>
<feColorMatrix in="SourceAlpha" type="matrix" values="0 0 0 0 0 0 0 0 0 0 0 0 0 0 0 0 0 0 127 0"/>
<feOffset dy="4"/>
<feGaussianBlur stdDeviation="2"/>
<feColorMatrix type="matrix" values="0 0 0 0 0 0 0 0 0 0 0 0 0 0 0 0 0 0 0.25 0"/>
<feBlend mode="normal" in2="BackgroundImageFix" result="effect1_dropShadow"/>
<feBlend mode="normal" in="SourceGraphic" in2="effect1_dropShadow" result="shape"/>
</filter>
<radialGradient id="paint0_radial" cx="0" cy="0" r="1" gradientUnits="userSpaceOnUse" gradientTransform="translate(201.723 193.5) rotate(90) scale(24.5 21.6736)">
<stop offset="0.390064" stop-color="#FFC29C"/>
<stop offset="0.833333" stop-color="#FE9E62"/>
</radialGradient>
<linearGradient id="paint1_linear" x1="210.438" y1="181" x2="210.438" y2="281.136" gradientUnits="userSpaceOnUse">
<stop stop-color="#E9FBFF" stop-opacity="0"/>
<stop offset="1" stop-color="#C7D7FF"/>
</linearGradient>
<linearGradient id="paint2_linear" x1="210.438" y1="181" x2="210.438" y2="281.136" gradientUnits="userSpaceOnUse">
<stop stop-color="#E9FBFF" stop-opacity="0"/>
<stop offset="1" stop-color="#C7D7FF"/>
</linearGradient>
<linearGradient id="paint3_linear" x1="210.438" y1="181" x2="210.438" y2="281.136" gradientUnits="userSpaceOnUse">
<stop stop-color="#E9FBFF" stop-opacity="0"/>
<stop offset="1" stop-color="#C7D7FF"/>
</linearGradient>
<linearGradient id="paint4_linear" x1="210.438" y1="181" x2="210.438" y2="281.136" gradientUnits="userSpaceOnUse">
<stop stop-color="#E9FBFF" stop-opacity="0"/>
<stop offset="1" stop-color="#C7D7FF"/>
</linearGradient>
<linearGradient id="paint5_linear" x1="210.438" y1="181" x2="210.438" y2="281.136" gradientUnits="userSpaceOnUse">
<stop stop-color="#E9FBFF" stop-opacity="0"/>
<stop offset="1" stop-color="#C7D7FF"/>
</linearGradient>
</defs>
</svg>
