<svg width="405" height="457" viewBox="0 0 405 457" fill="none" xmlns="http://www.w3.org/2000/svg">
<path d="M379.446 443.014H25.446C25.446 443.014 37.8491 399.113 76.0564 375.508C108.192 355.659 149.848 356.17 163.743 347.428C166.27 345.844 167.167 338.884 167.264 323.595C167.451 297.769 165.444 264.5 165.444 264.5H239.448C239.448 264.5 237.321 299.803 237.652 325.911C237.816 340.159 238.738 345.916 241.149 347.428C255.042 356.17 296.7 355.659 328.833 375.508C367.041 399.113 379.446 443.014 379.446 443.014Z" fill="#FFC29C"/>
<path opacity="0.5" d="M166.946 344V317L237.946 321.5L166.946 344Z" fill="#B46349" stroke="#B46349"/>
<path d="M404.169 456.5H0.445984C0.445984 456.5 11.06 415.578 46.359 387.17C80.8303 359.44 139.67 353.5 139.67 353.5C153.473 400.56 202.307 398.537 202.307 398.537C202.307 398.537 251.142 400.56 264.945 353.5C264.945 353.5 323.809 359.44 358.256 387.17C393.555 415.578 404.169 456.5 404.169 456.5Z" fill="#2F80ED"/>
<path d="M94.4459 196.999L87.4459 106.999C87.4459 106.999 111.815 81.9638 130.946 70.999C151.413 59.2687 164.744 55.2627 187.946 50.999C219.456 45.2086 240.673 40.4793 269.946 53.499C292.336 63.4573 317.446 94.499 317.446 94.499L313.946 196.999C313.946 196.999 316.563 194.687 318.446 193.499C321.33 191.679 323.197 191.036 326.446 189.999C331.523 188.378 334.651 187.393 339.946 187.999L340.255 188.034C345.066 188.584 348.536 188.98 351.946 192.499C353.416 194.016 354.02 195.101 354.946 196.999C357.271 201.767 356.983 205.222 356.446 210.499C355.815 216.706 354.474 220.353 350.946 225.499C347.663 230.287 344.504 231.903 339.946 235.499C336.204 238.452 334.32 240.605 329.946 242.499C325.378 244.477 322.405 245.44 317.446 244.999C313.999 244.693 308.946 242.499 308.946 242.499C308.946 242.499 307.405 246.759 306.446 249.499C304.202 255.91 303.567 259.733 300.946 265.999C298.149 272.686 296.239 276.322 292.446 282.499C288.93 288.224 287.041 291.597 282.446 296.499C276.436 302.909 272.077 305.644 264.446 309.999C258.296 313.509 254.445 314.925 247.934 317.319L247.446 317.499C238.51 320.787 233.355 322.536 223.946 323.999C211.405 325.95 209.946 325.641 200.946 325.499C193.698 325.385 189.823 324.797 182.446 323.999C172.417 322.915 166.843 321.168 157.446 317.499C151.182 315.054 147.71 313.462 141.946 309.999C134.547 305.554 130.448 302.702 124.446 296.499C120.778 292.707 118.955 290.333 115.946 285.999C110.915 278.753 108.561 274.252 105.446 265.999C102.118 257.181 99.9459 242.499 99.9459 242.499C99.9459 242.499 96.7251 244.389 94.4459 244.999C88.7091 246.534 85.0603 244.435 79.4459 242.499C73.9948 240.62 71.0406 238.983 66.4459 235.499C61.1603 231.491 58.3613 228.685 54.9459 222.999L54.9269 222.967C52.231 218.479 50.5663 215.707 49.9459 210.499C49.3156 205.207 49.5451 201.757 51.9459 196.999C54.1237 192.683 56.0739 190.062 60.4459 187.999C65.5668 185.582 69.3752 186.983 74.9459 187.999C80.05 188.93 87.4459 192.499 87.4459 192.499L94.4459 196.999Z" fill="#FFC29C" stroke="#DC866B"/>
<path d="M192.793 215.5L195.293 204.5H209.946L212.446 215.5C212.446 215.5 213.226 219.29 212.446 221.5C211.705 223.599 210.788 224.75 208.946 226C206.838 227.43 205.126 227.379 202.619 227.492C200.112 227.379 198.4 227.43 196.293 226C194.45 224.75 193.534 223.599 192.793 221.5C192.013 219.29 192.793 215.5 192.793 215.5Z" fill="url(#paint0_radial)"/>
<g filter="url(#filter0_d)">
<path d="M133.446 237.5C135.475 234.198 139.946 230 139.946 230H183.946L267.446 230.5C267.446 230.5 271.917 234.698 273.946 238C280.488 248.647 278.228 258.26 273.946 270C272.12 275.007 270.446 280 267.446 282C264.446 284 249.099 287.837 236.946 289.5C224.945 291.143 218.059 290.53 205.946 290.5C192.07 290.466 184.171 291.044 170.446 289C158.314 287.194 142.946 284 139.946 281.5C136.946 279 135.272 274.507 133.446 269.5C129.164 257.76 126.903 248.147 133.446 237.5Z" fill="#F1F3F6"/>
<path d="M133.446 237.5C135.475 234.198 139.946 230 139.946 230H183.946L267.446 230.5C267.446 230.5 271.917 234.698 273.946 238C280.488 248.647 278.228 258.26 273.946 270C272.12 275.007 270.446 280 267.446 282C264.446 284 249.099 287.837 236.946 289.5C224.945 291.143 218.059 290.53 205.946 290.5C192.07 290.466 184.171 291.044 170.446 289C158.314 287.194 142.946 284 139.946 281.5C136.946 279 135.272 274.507 133.446 269.5C129.164 257.76 126.903 248.147 133.446 237.5Z" fill="url(#paint1_linear)"/>
<path d="M92.946 195L139.946 230L135.946 235.291L92.946 195Z" fill="#F1F3F6"/>
<path d="M92.946 195L139.946 230L135.946 235.291L92.946 195Z" fill="url(#paint2_linear)"/>
<path d="M99.446 243.5L139.446 273.5V280.5L99.446 243.5Z" fill="#F1F3F6"/>
<path d="M99.446 243.5L139.446 273.5V280.5L99.446 243.5Z" fill="url(#paint3_linear)"/>
<path d="M321.446 190.5L266.446 230.5L271.446 234.5L321.446 190.5Z" fill="#F1F3F6"/>
<path d="M321.446 190.5L266.446 230.5L271.446 234.5L321.446 190.5Z" fill="url(#paint4_linear)"/>
<path d="M308.946 243.5L268.446 276.5L267.446 282L308.946 243.5Z" fill="#F1F3F6"/>
<path d="M308.946 243.5L268.446 276.5L267.446 282L308.946 243.5Z" fill="url(#paint5_linear)"/>
</g>
<path d="M167.946 141.5C169.329 142.652 170.366 143.296 170.946 145C171.449 146.479 171.64 147.601 170.946 149C170.127 150.65 168.653 150.808 166.946 151.5C165.101 152.248 163.921 152.245 161.946 152.5C158.267 152.976 156.152 152.331 152.446 152.5C149.903 152.616 148.477 152.726 145.946 153C143.201 153.298 141.65 153.438 138.946 154C134.532 154.918 129.946 158 127.946 157.5C125.946 157 126.047 156.597 125.446 155.5C124.695 154.13 125.051 153.011 125.446 151.5C125.912 149.718 126.797 148.94 127.946 147.5C129.585 145.447 130.816 144.538 132.946 143C135.637 141.056 137.326 140.132 140.446 139C142.716 138.176 144.058 137.865 146.446 137.5C150.306 136.911 152.574 136.991 156.446 137.5C158.42 137.76 159.541 137.921 161.446 138.5C164.121 139.313 165.798 139.711 167.946 141.5Z" fill="#2F333C" stroke="#2F333C"/>
<path d="M239.898 141.913C238.515 143.065 237.478 143.708 236.898 145.413C236.394 146.891 236.204 148.013 236.898 149.413C237.716 151.063 239.191 151.221 240.898 151.913C242.743 152.661 243.923 152.657 245.898 152.913C249.577 153.388 251.692 152.744 255.398 152.913C257.941 153.029 259.367 153.138 261.898 153.413C264.643 153.71 266.194 153.851 268.898 154.413C273.311 155.33 277.898 158.413 279.898 157.913C281.898 157.413 281.797 157.009 282.398 155.913C283.148 154.543 282.793 153.424 282.398 151.913C281.932 150.13 281.047 149.352 279.898 147.913C278.259 145.859 277.027 144.951 274.898 143.413C272.207 141.469 270.518 140.545 267.398 139.413C265.127 138.589 263.785 138.277 261.398 137.913C257.537 137.323 255.27 137.403 251.398 137.913C249.424 138.172 248.303 138.334 246.398 138.913C243.723 139.726 242.046 140.123 239.898 141.913Z" fill="#2F333C" stroke="#2F333C"/>
<ellipse cx="154.446" cy="200.5" rx="10" ry="13" fill="#2F333C"/>
<ellipse cx="252.446" cy="200.5" rx="10" ry="13" fill="#2F333C"/>
<path d="M94.8026 199.771C88.535 210.513 69.5292 121.603 79.0835 86.5702C86.2491 60.296 107.966 48.4368 107.966 48.4368C107.966 48.4368 115.478 15.766 154.686 4.04298C210.192 -12.5551 277.549 34.4207 293.655 36.8093C309.764 39.1978 336.324 32.0322 344.993 40.3921C353.658 48.7521 337.49 72.8431 325.702 82.3902C325.702 82.3902 338.242 101.697 338.242 117.223C338.242 132.748 329.703 199.771 315.551 199.771C306.756 199.771 298.979 139.219 303.393 96.5233C303.393 96.5233 255.777 120.495 203.496 120.607C174.206 120.672 143.405 115.271 118.597 96.6881C118.597 96.6881 110.718 172.501 94.8026 199.771Z" fill="#2E333B"/>
<defs>
<filter id="filter0_d" x="88.946" y="190.5" width="236.5" height="108.136" filterUnits="userSpaceOnUse" color-interpolation-filters="sRGB">
<feFlood flood-opacity="0" result="BackgroundImageFix"/>
<feColorMatrix in="SourceAlpha" type="matrix" values="0 0 0 0 0 0 0 0 0 0 0 0 0 0 0 0 0 0 127 0"/>
<feOffset dy="4"/>
<feGaussianBlur stdDeviation="2"/>
<feColorMatrix type="matrix" values="0 0 0 0 0 0 0 0 0 0 0 0 0 0 0 0 0 0 0.25 0"/>
<feBlend mode="normal" in2="BackgroundImageFix" result="effect1_dropShadow"/>
<feBlend mode="normal" in="SourceGraphic" in2="effect1_dropShadow" result="shape"/>
</filter>
<radialGradient id="paint0_radial" cx="0" cy="0" r="1" gradientUnits="userSpaceOnUse" gradientTransform="translate(202.446 203) rotate(90) scale(24.5 21.6736)">
<stop offset="0.390064" stop-color="#FFC29C"/>
<stop offset="0.833333" stop-color="#C26E54"/>
</radialGradient>
<linearGradient id="paint1_linear" x1="209.196" y1="190.5" x2="209.196" y2="290.636" gradientUnits="userSpaceOnUse">
<stop stop-color="#E9FBFF" stop-opacity="0"/>
<stop offset="1" stop-color="#C7D7FF"/>
</linearGradient>
<linearGradient id="paint2_linear" x1="209.196" y1="190.5" x2="209.196" y2="290.636" gradientUnits="userSpaceOnUse">
<stop stop-color="#E9FBFF" stop-opacity="0"/>
<stop offset="1" stop-color="#C7D7FF"/>
</linearGradient>
<linearGradient id="paint3_linear" x1="209.196" y1="190.5" x2="209.196" y2="290.636" gradientUnits="userSpaceOnUse">
<stop stop-color="#E9FBFF" stop-opacity="0"/>
<stop offset="1" stop-color="#C7D7FF"/>
</linearGradient>
<linearGradient id="paint4_linear" x1="209.196" y1="190.5" x2="209.196" y2="290.636" gradientUnits="userSpaceOnUse">
<stop stop-color="#E9FBFF" stop-opacity="0"/>
<stop offset="1" stop-color="#C7D7FF"/>
</linearGradient>
<linearGradient id="paint5_linear" x1="209.196" y1="190.5" x2="209.196" y2="290.636" gradientUnits="userSpaceOnUse">
<stop stop-color="#E9FBFF" stop-opacity="0"/>
<stop offset="1" stop-color="#C7D7FF"/>
</linearGradient>
</defs>
</svg>
