<svg width="405" height="457" viewBox="0 0 405 457" fill="none" xmlns="http://www.w3.org/2000/svg">
<path d="M379.723 443.014H25.723C25.723 443.014 38.1261 399.112 76.3335 375.507C108.469 355.659 150.125 356.17 164.02 347.427C166.547 345.844 167.444 338.884 167.541 323.595C167.728 297.769 165.721 264.5 165.721 264.5H239.725C239.725 264.5 237.598 299.803 237.93 325.91C238.093 340.159 239.015 345.916 241.426 347.427C255.319 356.17 296.977 355.659 329.11 375.507C367.318 399.112 379.723 443.014 379.723 443.014Z" fill="#DB876C"/>
<path opacity="0.5" d="M167.223 344V317L238.223 321.5L167.223 344Z" fill="#B46349" stroke="#B46349"/>
<path d="M404.446 456.5H0.723022C0.723022 456.5 11.3371 415.578 46.636 387.17C81.1073 359.44 139.947 353.5 139.947 353.5C153.75 400.56 202.585 398.537 202.585 398.537C202.585 398.537 251.419 400.56 265.222 353.5C265.222 353.5 324.086 359.44 358.533 387.17C393.832 415.578 404.446 456.5 404.446 456.5Z" fill="#EB5757"/>
<path d="M94.723 196.999L87.723 106.999C87.723 106.999 112.092 81.9638 131.223 70.999C151.69 59.2686 165.021 55.2627 188.223 50.999C219.733 45.2085 240.95 40.4792 270.223 53.499C292.613 63.4573 317.723 94.499 317.723 94.499L314.223 196.999C314.223 196.999 316.84 194.687 318.723 193.499C321.607 191.679 323.474 191.036 326.723 189.999C331.8 188.378 334.928 187.393 340.223 187.999L340.533 188.034C345.343 188.584 348.813 188.98 352.223 192.499C353.693 194.016 354.297 195.101 355.223 196.999C357.548 201.767 357.26 205.222 356.723 210.499C356.092 216.706 354.751 220.353 351.223 225.499C347.94 230.287 344.781 231.903 340.223 235.499C336.481 238.452 334.597 240.605 330.223 242.499C325.655 244.477 322.682 245.44 317.723 244.999C314.276 244.693 309.223 242.499 309.223 242.499C309.223 242.499 307.682 246.759 306.723 249.499C304.479 255.91 303.844 259.733 301.223 265.999C298.426 272.686 296.516 276.322 292.723 282.499C289.207 288.224 287.318 291.597 282.723 296.499C276.713 302.909 272.355 305.644 264.723 309.999C258.573 313.509 254.722 314.925 248.211 317.319L247.723 317.499C238.787 320.787 233.632 322.536 224.223 323.999C211.682 325.95 210.223 325.641 201.223 325.499C193.975 325.385 190.1 324.797 182.723 323.999C172.694 322.915 167.12 321.168 157.723 317.499C151.459 315.053 147.987 313.462 142.223 309.999C134.824 305.554 130.725 302.702 124.723 296.499C121.055 292.707 119.232 290.333 116.223 285.999C111.192 278.753 108.838 274.252 105.723 265.999C102.395 257.181 100.223 242.499 100.223 242.499C100.223 242.499 97.0021 244.389 94.723 244.999C88.9862 246.534 85.3373 244.435 79.723 242.499C74.2718 240.62 71.3176 238.983 66.723 235.499C61.4373 231.491 58.6384 228.685 55.223 222.999L55.2039 222.967C52.508 218.479 50.8433 215.707 50.223 210.499C49.5926 205.207 49.8222 201.757 52.223 196.999C54.4007 192.683 56.351 190.062 60.723 187.999C65.8439 185.582 69.6523 186.983 75.223 187.999C80.327 188.93 87.723 192.499 87.723 192.499L94.723 196.999Z" fill="#DC866B" stroke="#DC866B"/>
<path d="M87.5143 198.065C109.352 198.065 99.0958 121.113 99.8534 115.323C100.204 112.659 101.676 125.543 131.572 127.16C175.325 129.527 227.186 97.6877 227.186 97.6877C227.186 97.6877 221.329 110.588 227.202 114.731C233.076 118.874 270.858 113.746 295.517 97.567C299.087 95.228 282.496 147.373 311.497 198.065C318.562 210.411 339.513 148.988 333.981 108.332C331.315 88.7554 320.896 76.5276 306.466 71.5252C306.466 71.5252 291.805 6.00648 220.929 0.814709C158.161 -3.78523 92.5427 43.116 80.7718 71.1322C72.7983 90.1119 83.1393 98.4832 83.1393 98.4832C83.1393 98.4832 69.7349 116.672 69.723 137.025C69.7112 161.488 81.5602 198.065 87.5143 198.065Z" fill="#2E333B"/>
<path d="M193.07 215.5L195.57 204.5H210.223L212.723 215.5C212.723 215.5 213.503 219.29 212.723 221.5C211.982 223.599 211.065 224.75 209.223 226C207.115 227.43 205.403 227.378 202.896 227.492C200.389 227.378 198.677 227.43 196.57 226C194.727 224.75 193.811 223.599 193.07 221.5C192.29 219.29 193.07 215.5 193.07 215.5Z" fill="url(#paint0_radial)"/>
<g filter="url(#filter0_d)">
<path d="M133.723 237.5C135.752 234.198 140.223 230 140.223 230H184.223L267.723 230.5C267.723 230.5 272.194 234.698 274.223 238C280.766 248.647 278.505 258.26 274.223 270C272.397 275.007 270.723 280 267.723 282C264.723 284 249.376 287.837 237.223 289.5C225.222 291.143 218.336 290.53 206.223 290.5C192.347 290.466 184.448 291.044 170.723 289C158.591 287.193 143.223 284 140.223 281.5C137.223 279 135.549 274.507 133.723 269.5C129.441 257.76 127.181 248.147 133.723 237.5Z" fill="#F1F3F6"/>
<path d="M133.723 237.5C135.752 234.198 140.223 230 140.223 230H184.223L267.723 230.5C267.723 230.5 272.194 234.698 274.223 238C280.766 248.647 278.505 258.26 274.223 270C272.397 275.007 270.723 280 267.723 282C264.723 284 249.376 287.837 237.223 289.5C225.222 291.143 218.336 290.53 206.223 290.5C192.347 290.466 184.448 291.044 170.723 289C158.591 287.193 143.223 284 140.223 281.5C137.223 279 135.549 274.507 133.723 269.5C129.441 257.76 127.181 248.147 133.723 237.5Z" fill="url(#paint1_linear)"/>
<path d="M93.223 195L140.223 230L136.223 235.291L93.223 195Z" fill="#F1F3F6"/>
<path d="M93.223 195L140.223 230L136.223 235.291L93.223 195Z" fill="url(#paint2_linear)"/>
<path d="M99.7231 243.5L139.723 273.5V280.5L99.7231 243.5Z" fill="#F1F3F6"/>
<path d="M99.7231 243.5L139.723 273.5V280.5L99.7231 243.5Z" fill="url(#paint3_linear)"/>
<path d="M321.723 190.5L266.723 230.5L271.723 234.5L321.723 190.5Z" fill="#F1F3F6"/>
<path d="M321.723 190.5L266.723 230.5L271.723 234.5L321.723 190.5Z" fill="url(#paint4_linear)"/>
<path d="M309.223 243.5L268.723 276.5L267.723 282L309.223 243.5Z" fill="#F1F3F6"/>
<path d="M309.223 243.5L268.723 276.5L267.723 282L309.223 243.5Z" fill="url(#paint5_linear)"/>
</g>
<path d="M168.223 141.5C169.606 142.652 170.643 143.296 171.223 145C171.726 146.479 171.917 147.601 171.223 149C170.404 150.65 168.93 150.808 167.223 151.5C165.378 152.248 164.198 152.245 162.223 152.5C158.544 152.976 156.429 152.331 152.723 152.5C150.18 152.616 148.754 152.726 146.223 153C143.478 153.298 141.927 153.438 139.223 154C134.809 154.918 130.223 158 128.223 157.5C126.223 157 126.324 156.596 125.723 155.5C124.972 154.13 125.328 153.011 125.723 151.5C126.189 149.718 127.074 148.94 128.223 147.5C129.862 145.447 131.094 144.538 133.223 143C135.914 141.056 137.603 140.132 140.723 139C142.993 138.176 144.335 137.865 146.723 137.5C150.584 136.911 152.851 136.991 156.723 137.5C158.697 137.76 159.818 137.921 161.723 138.5C164.398 139.313 166.075 139.711 168.223 141.5Z" fill="#2F333C" stroke="#2F333C"/>
<path d="M240.175 141.913C238.792 143.065 237.755 143.708 237.175 145.413C236.671 146.891 236.481 148.013 237.175 149.413C237.994 151.063 239.468 151.221 241.175 151.913C243.02 152.661 244.2 152.657 246.175 152.913C249.854 153.388 251.969 152.744 255.675 152.913C258.218 153.028 259.644 153.138 262.175 153.413C264.92 153.71 266.471 153.851 269.175 154.413C273.588 155.33 278.175 158.413 280.175 157.913C282.175 157.413 282.074 157.009 282.675 155.913C283.425 154.543 283.07 153.424 282.675 151.913C282.209 150.13 281.324 149.352 280.175 147.913C278.536 145.859 277.304 144.951 275.175 143.413C272.484 141.469 270.795 140.545 267.675 139.413C265.404 138.589 264.062 138.277 261.675 137.913C257.814 137.323 255.547 137.403 251.675 137.913C249.701 138.172 248.58 138.334 246.675 138.913C244 139.726 242.323 140.123 240.175 141.913Z" fill="#2F333C" stroke="#2F333C"/>
<ellipse cx="154.723" cy="200.5" rx="10" ry="13" fill="#2F333C"/>
<ellipse cx="252.723" cy="200.5" rx="10" ry="13" fill="#2F333C"/>
<defs>
<filter id="filter0_d" x="89.223" y="190.5" width="236.5" height="108.136" filterUnits="userSpaceOnUse" color-interpolation-filters="sRGB">
<feFlood flood-opacity="0" result="BackgroundImageFix"/>
<feColorMatrix in="SourceAlpha" type="matrix" values="0 0 0 0 0 0 0 0 0 0 0 0 0 0 0 0 0 0 127 0"/>
<feOffset dy="4"/>
<feGaussianBlur stdDeviation="2"/>
<feColorMatrix type="matrix" values="0 0 0 0 0 0 0 0 0 0 0 0 0 0 0 0 0 0 0.25 0"/>
<feBlend mode="normal" in2="BackgroundImageFix" result="effect1_dropShadow"/>
<feBlend mode="normal" in="SourceGraphic" in2="effect1_dropShadow" result="shape"/>
</filter>
<radialGradient id="paint0_radial" cx="0" cy="0" r="1" gradientUnits="userSpaceOnUse" gradientTransform="translate(202.723 203) rotate(90) scale(24.5 21.6736)">
<stop offset="0.390064" stop-color="#DC866B"/>
<stop offset="0.833333" stop-color="#C26E54"/>
</radialGradient>
<linearGradient id="paint1_linear" x1="209.473" y1="190.5" x2="209.473" y2="290.636" gradientUnits="userSpaceOnUse">
<stop stop-color="#E9FBFF" stop-opacity="0"/>
<stop offset="1" stop-color="#C7D7FF"/>
</linearGradient>
<linearGradient id="paint2_linear" x1="209.473" y1="190.5" x2="209.473" y2="290.636" gradientUnits="userSpaceOnUse">
<stop stop-color="#E9FBFF" stop-opacity="0"/>
<stop offset="1" stop-color="#C7D7FF"/>
</linearGradient>
<linearGradient id="paint3_linear" x1="209.473" y1="190.5" x2="209.473" y2="290.636" gradientUnits="userSpaceOnUse">
<stop stop-color="#E9FBFF" stop-opacity="0"/>
<stop offset="1" stop-color="#C7D7FF"/>
</linearGradient>
<linearGradient id="paint4_linear" x1="209.473" y1="190.5" x2="209.473" y2="290.636" gradientUnits="userSpaceOnUse">
<stop stop-color="#E9FBFF" stop-opacity="0"/>
<stop offset="1" stop-color="#C7D7FF"/>
</linearGradient>
<linearGradient id="paint5_linear" x1="209.473" y1="190.5" x2="209.473" y2="290.636" gradientUnits="userSpaceOnUse">
<stop stop-color="#E9FBFF" stop-opacity="0"/>
<stop offset="1" stop-color="#C7D7FF"/>
</linearGradient>
</defs>
</svg>
