<svg width="409" height="479" viewBox="0 0 409 479" fill="none" xmlns="http://www.w3.org/2000/svg">
<path d="M332.428 411.288C332.453 412.739 332.503 414.163 332.553 415.592V415.642C333.479 437.236 338.211 458.555 346.841 478.297H323.07C318.166 463.782 314.44 448.846 311.885 433.733C306.055 399.15 306.207 363.57 312.811 329.115C312.811 329.065 312.763 329.04 312.736 329.087C304.353 362.342 301.829 396.447 306.43 430.527C308.482 445.743 311.66 462.283 316.589 478.297H154.345C155.549 465.884 155.572 453.425 155.023 441.715C153.52 410.887 147.517 381.061 139.157 351.407C139.157 351.407 139.132 351.407 139.132 351.435C145.387 380.235 150.645 409.862 150.942 439.413C151.07 452.775 149.919 465.611 148.042 478.297H129.849C131.8 458.63 130.274 438.061 128.047 419.295C124.997 393.547 119.314 368.497 112.934 343.475C111.557 334.995 110.031 326.538 108.532 318.055C108.48 317.827 108.107 317.88 108.129 318.105C108.705 322.559 109.305 327.063 109.856 331.59C109.783 331.317 109.706 331.064 109.631 330.791C109.581 330.616 109.358 330.691 109.406 330.841C109.731 332.641 110.056 334.42 110.409 336.221C114.185 368.297 116.362 401.529 109.055 432.857C105.427 448.446 98.3708 463.309 91.8425 478.297H13.3705C13.3705 478.297 58.6106 432.857 60.9126 382.012C63.4148 326.963 34.4392 317.78 35.2899 248.644C36.1156 179.48 55.8331 150.457 82.6569 78.4929C93.7667 48.6665 165.18 47.5405 206.392 41.7103C247.578 35.8801 316.942 35.177 332.203 73.2883C372.038 172.776 386.479 209.334 384.549 266.084C382.873 315.303 357.525 336.947 357.525 382.012C357.525 429.554 395.384 478.297 395.384 478.297H364.782C349.518 460.181 339.084 440.011 333.004 415.792C332.879 414.29 332.703 412.812 332.603 411.288C332.603 411.163 332.403 411.163 332.428 411.288Z" fill="#083345"/>
<path d="M53.49 159.197C53.5625 159.014 53.2497 158.879 53.1697 159.062C31.8358 206.881 18.4214 259.338 30.2168 311.642C33.0744 324.308 38.1464 336.176 41.7996 348.595C46.5363 364.686 46.6814 381.176 43.0057 397.508C36.2297 427.61 18.1636 452.437 0.66064 477.126C-0.142572 478.254 1.70907 479.701 2.59486 478.617C19.1345 458.404 34.7258 436.382 43.361 411.528C52.399 385.515 51.0953 361.028 42.0398 335.355C21.349 276.698 31.1777 216.067 53.49 159.197Z" fill="#083345"/>
<path d="M378.82 365.991C384.139 333.76 400.877 305.475 398.952 271.985C397.056 239.061 384.042 207.714 372.847 177.104C360.06 142.143 346.363 107.167 331.976 72.8265C331.9 72.6463 331.615 72.7089 331.673 72.9091C342.302 108.491 356.497 143.186 368.766 178.227C380.801 212.595 396.24 248.48 394.301 285.633C392.527 319.658 373.83 349.799 373.345 384.38C372.927 414.307 379.755 443.935 393.968 470.299C394.411 471.122 395.634 470.396 395.217 469.568C378.922 437.229 372.909 401.816 378.82 365.991Z" fill="#083345"/>
<path d="M408.035 478.308H2.45776C2.45776 478.308 16.6704 428.008 60.4442 400.967C97.2618 378.227 144.987 378.81 160.903 368.793C163.801 366.982 164.829 359.005 164.939 341.492C165.154 311.903 162.855 273.789 162.855 273.789H247.638C247.638 273.789 245.203 314.233 245.581 344.144C245.771 360.469 246.827 367.062 249.589 368.793C265.506 378.81 313.231 378.227 350.048 400.967C393.82 428.008 408.035 478.308 408.035 478.308Z" fill="#C0F0B8"/>
<path opacity="0.5" d="M164.463 338V311L235.463 315.5L164.463 338Z" fill="#40B561"/>
<path d="M320.548 192.642C318.674 212.678 318.014 234.755 309.273 255.378C298.069 281.827 268.688 317.821 206.685 317.821C143.662 317.821 112.499 281.827 104.094 255.378C97.3231 234.069 94.6958 212.678 92.8191 192.642C91.2653 175.963 76.6123 119.157 97.8861 69.8737C113.77 33.0785 161.14 9.84046 206.685 10.3359C252.23 9.84046 299.597 33.0785 315.486 69.8737C336.758 119.157 322.102 175.963 320.548 192.642Z" fill="#C0F0B8"/>
<path d="M317.044 186.607C317.044 186.607 334.515 168.318 355.223 173.786C375.931 179.255 369.786 213.991 346.783 226.527C325.089 238.35 311.337 228.992 311.337 228.992L317.044 186.607Z" fill="#C0F0B8"/>
<path d="M96.3256 186.607C96.3256 186.607 78.8526 168.319 58.1442 173.786C37.4384 179.256 43.5813 213.992 66.5842 226.528C88.2784 238.351 102.031 228.992 102.031 228.992L96.3256 186.607Z" fill="#C0F0B8"/>
<path d="M211.544 230C211.044 227.5 213.044 213 213.044 213C213.044 213 215.883 218.438 217.544 222C218.985 225.091 221.218 226.594 221.044 230C220.887 233.052 220.082 234.671 217.044 235C213.813 235.349 212.043 232.5 211.544 230Z" fill="url(#paint0_linear)" stroke="#F7F7F7"/>
<path d="M196.81 204L199.31 193H213.963L216.463 204C216.463 204 217.243 207.79 216.463 210C215.722 212.099 214.806 213.25 212.963 214.5C210.856 215.93 209.144 215.878 206.637 215.992C204.13 215.878 202.418 215.93 200.31 214.5C198.468 213.25 197.551 212.099 196.81 210C196.03 207.79 196.81 204 196.81 204Z" fill="url(#paint1_radial)"/>
<path d="M267.365 186.529C267.365 194.048 263.089 200.141 257.817 200.141C252.54 200.141 248.266 194.048 248.266 186.529C248.266 179.008 252.54 172.915 257.817 172.915C263.089 172.915 267.365 179.008 267.365 186.529Z" fill="#2E333B"/>
<path d="M279.947 175.587C278.311 177.241 276.534 178.547 274.718 179.062C272.891 179.525 271.1 179.268 269.503 178.317C267.817 177.383 266.165 175.802 264.091 174.591C262.079 173.32 259.412 172.592 257.135 173.287C259.409 173.968 261.063 175.136 262.62 176.593C264.183 178.036 265.695 179.74 267.914 181.092C270.189 182.44 273.337 182.681 275.689 181.374C278.043 180.111 279.48 177.881 279.947 175.587Z" fill="#2E333B"/>
<path d="M146.003 186.529C146.003 194.049 150.276 200.142 155.551 200.142C160.826 200.142 165.102 194.049 165.102 186.529C165.102 179.008 160.826 172.915 155.551 172.915C150.276 172.915 146.003 179.008 146.003 186.529Z" fill="#2E333B"/>
<path d="M133.421 175.587C135.055 177.241 136.834 178.547 138.648 179.063C140.475 179.525 142.269 179.268 143.863 178.317C145.549 177.384 147.201 175.802 149.275 174.591C151.289 173.32 153.957 172.592 156.234 173.287C153.959 173.968 152.305 175.137 150.746 176.593C149.185 178.037 147.671 179.741 145.454 181.092C143.177 182.441 140.029 182.681 137.68 181.375C135.325 180.111 133.889 177.882 133.421 175.587Z" fill="#2E333B"/>
<path d="M172.238 131.53C170.701 138.506 158.595 135.541 146.39 136.932C132.177 138.553 124.045 145.572 123.93 138.06C123.837 132.103 133.243 122.819 146.888 120.733C160.392 118.668 173.804 124.426 172.238 131.53Z" fill="#083345"/>
<path d="M241.131 131.53C242.668 138.506 254.773 135.541 266.977 136.932C281.189 138.553 289.321 145.572 289.439 138.06C289.529 132.103 280.123 122.819 266.479 120.733C252.977 118.668 239.565 124.426 241.131 131.53Z" fill="#083345"/>
<path d="M91.7705 184.936C105.951 184.936 109.506 122.721 109.506 122.721C109.506 122.721 129.524 115.214 151.418 93.9453C151.418 93.9453 135.779 120.844 139.533 122.721C143.286 124.597 218.878 119.593 248.267 79.2448C248.267 79.2448 232.428 113.65 237.119 116.778C241.811 119.906 276.216 115.527 298.736 91.7558C298.736 91.7558 306.611 184.936 321.597 184.936C336.582 184.936 344.432 103.984 332.204 73.302C315.001 30.1387 270.274 15.4382 270.274 15.4382C270.274 15.4382 213.348 -10.2095 162.053 6.0549C102.665 24.8841 83.0302 72.3186 77.2926 93.575C64.6364 140.439 80.7307 184.936 91.7705 184.936Z" fill="#083345"/>
<path d="M253.941 69.0666C228.879 104.253 194.566 125.306 150.824 127.521C150.374 127.543 150.367 128.221 150.824 128.226C192.574 128.707 234.911 107.015 255.765 70.1325C256.443 68.9289 254.717 67.9756 253.941 69.0666Z" fill="#083345"/>
<path d="M222.481 244.066C216.655 246.827 211.812 247.67 205.771 247.782C199.916 247.89 194.271 246.39 188.791 244.472C188.479 244.363 188.352 244.794 188.579 244.966C198.023 252.099 213.884 252.675 223.069 244.655C223.487 244.29 222.984 243.827 222.481 244.066Z" fill="#083345"/>
<path d="M212.51 255.24C208.727 256.899 203.227 257.495 198.579 255.321C198.49 255.279 198.419 255.375 198.473 255.447C201.685 259.787 209.185 259.537 212.697 255.597C212.831 255.445 212.711 255.151 212.51 255.24Z" fill="#083345"/>
<ellipse cx="271.963" cy="234" rx="28.5" ry="23" fill="url(#paint2_radial)"/>
<ellipse cx="136.963" cy="232" rx="28.5" ry="23" fill="url(#paint3_radial)"/>
<path d="M406.186 479H2.46338C2.46338 479 13.0774 438.078 48.3764 409.67C82.8477 381.94 141.687 376 141.687 376C155.491 423.06 204.325 421.037 204.325 421.037C204.325 421.037 253.159 423.06 266.962 376C266.962 376 325.826 381.94 360.273 409.67C395.572 438.078 406.186 479 406.186 479Z" fill="#219653"/>
<defs>
<linearGradient id="paint0_linear" x1="216.258" y1="213" x2="216.258" y2="235.029" gradientUnits="userSpaceOnUse">
<stop stop-color="white" stop-opacity="0"/>
<stop offset="1" stop-color="white" stop-opacity="0.61"/>
</linearGradient>
<radialGradient id="paint1_radial" cx="0" cy="0" r="1" gradientUnits="userSpaceOnUse" gradientTransform="translate(206.463 191.5) rotate(90) scale(24.5 21.6736)">
<stop offset="0.390064" stop-color="#C0F0B8"/>
<stop offset="0.833333" stop-color="#91D487"/>
</radialGradient>
<radialGradient id="paint2_radial" cx="0" cy="0" r="1" gradientUnits="userSpaceOnUse" gradientTransform="translate(271.463 234) rotate(89.9639) scale(23 23.6724)">
<stop stop-color="#91D487"/>
<stop offset="1" stop-color="#C0F0B8"/>
</radialGradient>
<radialGradient id="paint3_radial" cx="0" cy="0" r="1" gradientUnits="userSpaceOnUse" gradientTransform="translate(136.463 232) rotate(89.9639) scale(23 23.6724)">
<stop stop-color="#91D487"/>
<stop offset="1" stop-color="#C0F0B8"/>
</radialGradient>
</defs>
</svg>
