<svg width="375" height="273" viewBox="0 0 375 273" fill="none" xmlns="http://www.w3.org/2000/svg">
<g clip-path="url(#clip0)">
<path d="M53.6438 224.596C58.4279 238.153 51.1371 253.116 37.3142 257.993C33.9411 259.183 29.4118 259.379 24.3647 258.727C19.3355 258.078 13.878 256.599 8.69877 254.524C3.51815 252.449 -1.3509 249.792 -5.21601 246.804C-9.0975 243.804 -11.8798 240.538 -13.0313 237.275C-17.8153 223.717 -10.5246 208.755 3.29835 203.878C6.67142 202.687 11.2007 202.492 16.2479 203.144C21.2771 203.793 26.7346 205.272 31.9138 207.346C37.0944 209.421 41.9634 212.079 45.8286 215.067C49.71 218.067 52.4924 221.332 53.6438 224.596Z" fill="#E9E9E0"/>
<path d="M53.6438 224.596C58.4279 238.153 51.1371 253.116 37.3142 257.993C33.9411 259.183 29.4118 259.379 24.3647 258.727C19.3355 258.078 13.878 256.599 8.69877 254.524C3.51815 252.449 -1.3509 249.792 -5.21601 246.804C-9.0975 243.804 -11.8798 240.538 -13.0313 237.275C-17.8153 223.717 -10.5246 208.755 3.29835 203.878C6.67142 202.687 11.2007 202.492 16.2479 203.144C21.2771 203.793 26.7346 205.272 31.9138 207.346C37.0944 209.421 41.9634 212.079 45.8286 215.067C49.71 218.067 52.4924 221.332 53.6438 224.596Z" fill="url(#paint0_linear)"/>
<path d="M53.6438 224.596C58.4279 238.153 51.1371 253.116 37.3142 257.993C33.9411 259.183 29.4118 259.379 24.3647 258.727C19.3355 258.078 13.878 256.599 8.69877 254.524C3.51815 252.449 -1.3509 249.792 -5.21601 246.804C-9.0975 243.804 -11.8798 240.538 -13.0313 237.275C-17.8153 223.717 -10.5246 208.755 3.29835 203.878C6.67142 202.687 11.2007 202.492 16.2479 203.144C21.2771 203.793 26.7346 205.272 31.9138 207.346C37.0944 209.421 41.9634 212.079 45.8286 215.067C49.71 218.067 52.4924 221.332 53.6438 224.596Z" stroke="#2A7940" stroke-width="2.03318"/>
<path d="M6.93481 230.561C7.50404 232.174 6.65775 233.944 5.04458 234.513C3.4314 235.082 1.66222 234.236 1.093 232.623C0.523772 231.009 1.37006 229.24 2.98323 228.671C4.5964 228.102 6.36559 228.948 6.93481 230.561Z" fill="#40B561"/>
<path d="M2.28193 240.288C2.676 241.405 2.09011 242.63 0.973302 243.024C-0.14351 243.418 -1.36833 242.832 -1.76241 241.715C-2.15649 240.598 -1.57059 239.374 -0.453783 238.98C0.663029 238.585 1.88785 239.171 2.28193 240.288Z" fill="#40B561"/>
<path d="M9.84163 241.663C10.1481 242.532 9.69244 243.484 8.82381 243.791C7.95518 244.098 7.00254 243.642 6.69604 242.773C6.38953 241.905 6.84523 240.952 7.71386 240.645C8.58249 240.339 9.53512 240.795 9.84163 241.663Z" fill="#40B561"/>
<path d="M15.8478 249.01C16.1543 249.879 15.6986 250.832 14.83 251.138C13.9614 251.445 13.0087 250.989 12.7022 250.12C12.3957 249.252 12.8514 248.299 13.7201 247.992C14.5887 247.686 15.5413 248.142 15.8478 249.01Z" fill="#40B561"/>
<path d="M18.2217 229.61C18.7909 231.224 17.9447 232.993 16.3315 233.562C14.7183 234.131 12.9491 233.285 12.3799 231.672C11.8107 230.059 12.657 228.289 14.2701 227.72C15.8833 227.151 17.6525 227.997 18.2217 229.61Z" fill="#40B561"/>
<path d="M8.4421 221.944C8.83618 223.061 8.25029 224.286 7.13348 224.68C6.01667 225.074 4.79185 224.488 4.39777 223.371C4.00369 222.254 4.58958 221.03 5.70639 220.636C6.82321 220.241 8.04802 220.827 8.4421 221.944Z" fill="#40B561"/>
<path d="M21.764 225.329C21.983 225.949 21.6575 226.629 21.037 226.848C20.4166 227.067 19.7361 226.742 19.5172 226.121C19.2982 225.501 19.6237 224.82 20.2442 224.602C20.8646 224.383 21.5451 224.708 21.764 225.329Z" fill="#40B561"/>
<path d="M28.8508 243.917C29.0698 244.537 28.7443 245.218 28.1238 245.437C27.5034 245.655 26.8229 245.33 26.604 244.709C26.385 244.089 26.7105 243.409 27.331 243.19C27.9514 242.971 28.6319 243.296 28.8508 243.917Z" fill="#40B561"/>
<path d="M24.2832 243.956C24.8524 245.569 24.0062 247.339 22.393 247.908C20.7798 248.477 19.0106 247.631 18.4414 246.018C17.8722 244.404 18.7185 242.635 20.3316 242.066C21.9448 241.497 23.714 242.343 24.2832 243.956Z" fill="#40B561"/>
<path d="M28.0703 250.233C28.4644 251.35 27.8785 252.575 26.7617 252.969C25.6449 253.363 24.42 252.777 24.026 251.661C23.6319 250.544 24.2178 249.319 25.3346 248.925C26.4514 248.531 27.6762 249.117 28.0703 250.233Z" fill="#40B561"/>
<path d="M9.81196 213.129C10.3812 214.742 9.5349 216.511 7.92172 217.08C6.30855 217.649 4.53937 216.803 3.97015 215.19C3.40092 213.577 4.24721 211.808 5.86038 211.238C7.47355 210.669 9.24273 211.515 9.81196 213.129Z" fill="#40B561"/>
<path d="M15.3666 210.158C15.7607 211.275 15.1748 212.5 14.058 212.894C12.9412 213.288 11.7163 212.702 11.3223 211.585C10.9282 210.468 11.5141 209.243 12.6309 208.849C13.7477 208.455 14.9725 209.041 15.3666 210.158Z" fill="#40B561"/>
<path d="M41.8256 239.125C42.1321 239.994 41.6764 240.946 40.8078 241.253C39.9391 241.559 38.9865 241.104 38.68 240.235C38.3735 239.366 38.8292 238.414 39.6978 238.107C40.5665 237.801 41.5191 238.256 41.8256 239.125Z" fill="#40B561"/>
<path d="M31.6008 230.515C31.9073 231.384 31.4516 232.337 30.583 232.643C29.7144 232.95 28.7617 232.494 28.4552 231.625C28.1487 230.757 28.6044 229.804 29.473 229.498C30.3417 229.191 31.2943 229.647 31.6008 230.515Z" fill="#40B561"/>
<path d="M35.4401 221.379C36.0093 222.992 35.163 224.761 33.5499 225.33C31.9367 225.9 30.1675 225.053 29.5983 223.44C29.0291 221.827 29.8753 220.058 31.4885 219.488C33.1017 218.919 34.8709 219.766 35.4401 221.379Z" fill="#40B561"/>
<path d="M25.6605 213.712C26.0546 214.829 25.4687 216.054 24.3519 216.448C23.235 216.842 22.0102 216.256 21.6162 215.14C21.2221 214.023 21.808 212.798 22.9248 212.404C24.0416 212.01 25.2664 212.596 25.6605 213.712Z" fill="#40B561"/>
<path d="M38.9824 217.097C39.2013 217.717 38.8758 218.398 38.2554 218.617C37.6349 218.836 36.9545 218.51 36.7356 217.89C36.5166 217.269 36.8421 216.589 37.4626 216.37C38.083 216.151 38.7635 216.476 38.9824 217.097Z" fill="#40B561"/>
<path d="M40.0654 227.326C40.2844 227.947 39.9589 228.627 39.3384 228.846C38.718 229.065 38.0375 228.74 37.8186 228.119C37.5996 227.499 37.9251 226.818 38.5456 226.599C39.166 226.38 39.8465 226.706 40.0654 227.326Z" fill="#40B561"/>
<path d="M40.7523 232.137C41.3216 233.75 40.4753 235.52 38.8621 236.089C37.2489 236.658 35.4797 235.812 34.9105 234.199C34.3413 232.585 35.1876 230.816 36.8008 230.247C38.4139 229.678 40.1831 230.524 40.7523 232.137Z" fill="#40B561"/>
<path d="M45.6428 227.38C46.0368 228.497 45.4509 229.721 44.3341 230.115C43.2173 230.509 41.9925 229.924 41.5984 228.807C41.2043 227.69 41.7902 226.465 42.907 226.071C44.0239 225.677 45.2487 226.263 45.6428 227.38Z" fill="#40B561"/>
<path d="M206.577 98.3944C199.335 98.3499 193.486 92.3424 193.531 84.9584C193.543 83.1566 194.223 80.9764 195.392 78.6951C196.558 76.422 198.189 74.0873 200.056 71.9861C201.923 69.8843 204.013 68.0296 206.088 66.707C208.172 65.3788 210.195 64.6169 211.938 64.6276C219.18 64.6721 225.029 70.6797 224.984 78.0636C224.973 79.8655 224.293 82.0457 223.123 84.3269C221.958 86.6001 220.326 88.9348 218.459 91.0359C216.592 93.1377 214.502 94.9924 212.427 96.315C210.343 97.6432 208.32 98.4051 206.577 98.3944Z" fill="#E9E9E0"/>
<path d="M206.577 98.3944C199.335 98.3499 193.486 92.3424 193.531 84.9584C193.543 83.1566 194.223 80.9764 195.392 78.6951C196.558 76.422 198.189 74.0873 200.056 71.9861C201.923 69.8843 204.013 68.0296 206.088 66.707C208.172 65.3788 210.195 64.6169 211.938 64.6276C219.18 64.6721 225.029 70.6797 224.984 78.0636C224.973 79.8655 224.293 82.0457 223.123 84.3269C221.958 86.6001 220.326 88.9348 218.459 91.0359C216.592 93.1377 214.502 94.9924 212.427 96.315C210.343 97.6432 208.32 98.4051 206.577 98.3944Z" fill="url(#paint1_linear)"/>
<path d="M206.577 98.3944C199.335 98.3499 193.486 92.3424 193.531 84.9584C193.543 83.1566 194.223 80.9764 195.392 78.6951C196.558 76.422 198.189 74.0873 200.056 71.9861C201.923 69.8843 204.013 68.0296 206.088 66.707C208.172 65.3788 210.195 64.6169 211.938 64.6276C219.18 64.6721 225.029 70.6797 224.984 78.0636C224.973 79.8655 224.293 82.0457 223.123 84.3269C221.958 86.6001 220.326 88.9348 218.459 91.0359C216.592 93.1377 214.502 94.9924 212.427 96.315C210.343 97.6432 208.32 98.4051 206.577 98.3944Z" stroke="#2A7940" stroke-width="1.02422"/>
<path d="M211.715 75.2367C210.854 75.2314 210.159 74.5285 210.165 73.6668C210.17 72.805 210.873 72.1108 211.734 72.1161C212.596 72.1214 213.291 72.8242 213.285 73.686C213.28 74.5477 212.577 75.242 211.715 75.2367Z" fill="#40B561"/>
<path d="M207.898 71.3723C207.302 71.3687 206.821 70.8821 206.825 70.2855C206.828 69.6889 207.315 69.2082 207.911 69.2119C208.508 69.2156 208.989 69.7022 208.985 70.2988C208.981 70.8953 208.495 71.376 207.898 71.3723Z" fill="#40B561"/>
<path d="M205.957 74.7212C205.493 74.7183 205.119 74.3398 205.122 73.8758C205.125 73.4118 205.503 73.038 205.967 73.0408C206.431 73.0437 206.805 73.4222 206.802 73.8862C206.8 74.3502 206.421 74.724 205.957 74.7212Z" fill="#40B561"/>
<path d="M201.45 76.3152C200.986 76.3123 200.612 75.9339 200.615 75.4698C200.618 75.0058 200.997 74.632 201.461 74.6348C201.925 74.6377 202.299 75.0162 202.296 75.4802C202.293 75.9442 201.914 76.318 201.45 76.3152Z" fill="#40B561"/>
<path d="M210.241 80.7489C209.379 80.7436 208.685 80.0407 208.69 79.179C208.696 78.3173 209.399 77.623 210.26 77.6283C211.122 77.6336 211.816 78.3364 211.811 79.1982C211.806 80.0599 211.103 80.7542 210.241 80.7489Z" fill="#40B561"/>
<path d="M215.543 77.4207C214.946 77.417 214.466 76.9304 214.469 76.3338C214.473 75.7373 214.959 75.2566 215.556 75.2603C216.153 75.2639 216.633 75.7505 216.63 76.3471C216.626 76.9437 216.139 77.4243 215.543 77.4207Z" fill="#40B561"/>
<path d="M211.667 83.1582C211.335 83.1561 211.068 82.8858 211.07 82.5544C211.072 82.2229 211.343 81.9559 211.674 81.958C212.005 81.96 212.272 82.2303 212.27 82.5618C212.268 82.8932 211.998 83.1602 211.667 83.1582Z" fill="#40B561"/>
<path d="M201.647 83.3473C201.316 83.3453 201.049 83.075 201.051 82.7435C201.053 82.4121 201.323 82.1451 201.655 82.1471C201.986 82.1491 202.253 82.4195 202.251 82.7509C202.249 83.0823 201.979 83.3494 201.647 83.3473Z" fill="#40B561"/>
<path d="M202.407 81.1755C201.546 81.1702 200.851 80.4673 200.857 79.6056C200.862 78.7439 201.565 78.0496 202.427 78.0549C203.288 78.0602 203.983 78.7631 203.977 79.6248C203.972 80.4865 203.269 81.1808 202.407 81.1755Z" fill="#40B561"/>
<path d="M198.786 81.9001C198.189 81.8964 197.709 81.4098 197.712 80.8132C197.716 80.2167 198.203 79.736 198.799 79.7397C199.396 79.7433 199.877 80.2299 199.873 80.8265C199.869 81.4231 199.383 81.9038 198.786 81.9001Z" fill="#40B561"/>
<path d="M219.488 79.5734C218.626 79.5681 217.932 78.8653 217.937 78.0035C217.942 77.1418 218.645 76.4475 219.507 76.4528C220.369 76.4581 221.063 77.161 221.058 78.0227C221.052 78.8844 220.35 79.5787 219.488 79.5734Z" fill="#40B561"/>
<path d="M219.949 82.713C219.352 82.7093 218.871 82.2227 218.875 81.6261C218.879 81.0295 219.365 80.5489 219.962 80.5526C220.558 80.5562 221.039 81.0428 221.035 81.6394C221.032 82.236 220.545 82.7166 219.949 82.713Z" fill="#40B561"/>
<path d="M201.706 90.3146C201.242 90.3118 200.868 89.9333 200.871 89.4693C200.874 89.0053 201.252 88.6314 201.716 88.6343C202.18 88.6372 202.554 89.0156 202.551 89.4796C202.548 89.9436 202.17 90.3175 201.706 90.3146Z" fill="#40B561"/>
<path d="M207.53 86.9363C207.066 86.9335 206.693 86.555 206.695 86.091C206.698 85.627 207.077 85.2531 207.541 85.256C208.005 85.2588 208.379 85.6373 208.376 86.1013C208.373 86.5653 207.994 86.9392 207.53 86.9363Z" fill="#40B561"/>
<path d="M211.207 90.3143C210.345 90.309 209.651 89.6062 209.656 88.7444C209.661 87.8827 210.364 87.1884 211.226 87.1937C212.087 87.199 212.782 87.9019 212.776 88.7636C212.771 89.6254 212.068 90.3196 211.207 90.3143Z" fill="#40B561"/>
<path d="M216.508 86.9861C215.912 86.9825 215.431 86.4959 215.435 85.8993C215.438 85.3027 215.925 84.8221 216.522 84.8257C217.118 84.8294 217.599 85.316 217.595 85.9126C217.591 86.5092 217.105 86.9898 216.508 86.9861Z" fill="#40B561"/>
<path d="M212.632 92.7236C212.301 92.7216 212.034 92.4513 212.036 92.1198C212.038 91.7884 212.308 91.5214 212.639 91.5234C212.971 91.5255 213.238 91.7958 213.236 92.1272C213.234 92.4587 212.964 92.7257 212.632 92.7236Z" fill="#40B561"/>
<path d="M207.598 91.4924C207.267 91.4904 207 91.2201 207.002 90.8886C207.004 90.5572 207.274 90.2902 207.606 90.2922C207.937 90.2942 208.204 90.5646 208.202 90.896C208.2 91.2274 207.93 91.4945 207.598 91.4924Z" fill="#40B561"/>
<path d="M205.201 90.9976C204.339 90.9923 203.645 90.2894 203.65 89.4277C203.656 88.566 204.358 87.8717 205.22 87.877C206.082 87.8823 206.776 88.5852 206.771 89.4469C206.766 90.3086 206.063 91.0029 205.201 90.9976Z" fill="#40B561"/>
<path d="M206.622 94.127C206.025 94.1234 205.545 93.6368 205.549 93.0402C205.552 92.4436 206.039 91.963 206.635 91.9666C207.232 91.9703 207.713 92.4569 207.709 93.0535C207.705 93.6501 207.219 94.1307 206.622 94.127Z" fill="#40B561"/>
<path d="M284.346 236.996C281.811 227.977 287.187 218.558 296.382 215.973C298.625 215.342 301.579 215.408 304.833 216.046C308.075 216.681 311.561 217.874 314.84 219.443C318.121 221.012 321.174 222.947 323.56 225.054C325.957 227.169 327.627 229.41 328.238 231.581C330.773 240.6 325.397 250.019 316.202 252.604C313.959 253.234 311.005 253.169 307.751 252.531C304.509 251.895 301.023 250.702 297.744 249.134C294.463 247.565 291.41 245.63 289.024 243.523C286.627 241.408 284.957 239.166 284.346 236.996Z" fill="#E9E9E0"/>
<path d="M284.346 236.996C281.811 227.977 287.187 218.558 296.382 215.973C298.625 215.342 301.579 215.408 304.833 216.046C308.075 216.681 311.561 217.874 314.84 219.443C318.121 221.012 321.174 222.947 323.56 225.054C325.957 227.169 327.627 229.41 328.238 231.581C330.773 240.6 325.397 250.019 316.202 252.604C313.959 253.234 311.005 253.169 307.751 252.531C304.509 251.895 301.023 250.702 297.744 249.134C294.463 247.565 291.41 245.63 289.024 243.523C286.627 241.408 284.957 239.166 284.346 236.996Z" fill="url(#paint2_linear)"/>
<path d="M284.346 236.996C281.811 227.977 287.187 218.558 296.382 215.973C298.625 215.342 301.579 215.408 304.833 216.046C308.075 216.681 311.561 217.874 314.84 219.443C318.121 221.012 321.174 222.947 323.56 225.054C325.957 227.169 327.627 229.41 328.238 231.581C330.773 240.6 325.397 250.019 316.202 252.604C313.959 253.234 311.005 253.169 307.751 252.531C304.509 251.895 301.023 250.702 297.744 249.134C294.463 247.565 291.41 245.63 289.024 243.523C286.627 241.408 284.957 239.166 284.346 236.996Z" stroke="#2A7940" stroke-width="1.32481"/>
<path d="M314.969 235.099C314.668 234.026 315.293 232.911 316.366 232.609C317.439 232.308 318.554 232.933 318.855 234.006C319.157 235.079 318.532 236.194 317.458 236.495C316.385 236.797 315.271 236.172 314.969 235.099Z" fill="#40B561"/>
<path d="M318.408 228.972C318.199 228.229 318.632 227.457 319.375 227.248C320.117 227.039 320.889 227.472 321.098 228.215C321.307 228.958 320.874 229.73 320.131 229.939C319.388 230.147 318.616 229.714 318.408 228.972Z" fill="#40B561"/>
<path d="M313.55 227.757C313.388 227.179 313.725 226.579 314.303 226.416C314.88 226.254 315.48 226.591 315.643 227.168C315.805 227.746 315.469 228.346 314.891 228.509C314.313 228.671 313.713 228.334 313.55 227.757Z" fill="#40B561"/>
<path d="M309.957 222.725C309.795 222.147 310.131 221.547 310.709 221.384C311.287 221.222 311.887 221.559 312.049 222.136C312.212 222.714 311.875 223.314 311.297 223.477C310.719 223.639 310.119 223.302 309.957 222.725Z" fill="#40B561"/>
<path d="M307.59 235.238C307.288 234.165 307.914 233.05 308.987 232.749C310.06 232.447 311.174 233.072 311.476 234.145C311.778 235.218 311.152 236.333 310.079 236.635C309.006 236.936 307.892 236.311 307.59 235.238Z" fill="#40B561"/>
<path d="M313.624 240.638C313.415 239.895 313.848 239.123 314.591 238.914C315.333 238.705 316.105 239.138 316.314 239.881C316.523 240.624 316.09 241.396 315.347 241.605C314.604 241.813 313.832 241.38 313.624 240.638Z" fill="#40B561"/>
<path d="M305.105 237.872C304.989 237.459 305.23 237.03 305.642 236.914C306.055 236.798 306.484 237.039 306.6 237.451C306.716 237.864 306.475 238.293 306.062 238.409C305.65 238.525 305.221 238.284 305.105 237.872Z" fill="#40B561"/>
<path d="M301.286 225.485C301.17 225.072 301.411 224.643 301.823 224.527C302.236 224.411 302.665 224.652 302.781 225.064C302.897 225.477 302.656 225.906 302.243 226.022C301.831 226.138 301.402 225.897 301.286 225.485Z" fill="#40B561"/>
<path d="M304.258 225.653C303.956 224.58 304.581 223.465 305.654 223.164C306.728 222.862 307.842 223.487 308.144 224.56C308.445 225.633 307.82 226.748 306.747 227.049C305.674 227.351 304.559 226.726 304.258 225.653Z" fill="#40B561"/>
<path d="M302.062 221.41C301.853 220.668 302.286 219.896 303.029 219.687C303.772 219.478 304.543 219.911 304.752 220.654C304.961 221.397 304.528 222.169 303.785 222.377C303.042 222.586 302.271 222.153 302.062 221.41Z" fill="#40B561"/>
<path d="M312.359 246.311C312.057 245.238 312.682 244.124 313.756 243.822C314.829 243.521 315.943 244.146 316.245 245.219C316.546 246.292 315.921 247.406 314.848 247.708C313.775 248.01 312.66 247.384 312.359 246.311Z" fill="#40B561"/>
<path d="M308.621 248.007C308.412 247.264 308.845 246.493 309.588 246.284C310.331 246.075 311.102 246.508 311.311 247.251C311.52 247.994 311.087 248.765 310.344 248.974C309.601 249.183 308.83 248.75 308.621 248.007Z" fill="#40B561"/>
<path d="M292.646 228.05C292.484 227.472 292.821 226.872 293.398 226.709C293.976 226.547 294.576 226.884 294.739 227.461C294.901 228.039 294.565 228.639 293.987 228.802C293.409 228.964 292.809 228.627 292.646 228.05Z" fill="#40B561"/>
<path d="M298.929 234.082C298.767 233.504 299.104 232.904 299.681 232.741C300.259 232.579 300.859 232.916 301.022 233.493C301.184 234.071 300.847 234.671 300.27 234.834C299.692 234.996 299.092 234.659 298.929 234.082Z" fill="#40B561"/>
<path d="M296.045 239.859C295.744 238.786 296.369 237.672 297.442 237.37C298.515 237.069 299.629 237.694 299.931 238.767C300.233 239.84 299.607 240.955 298.534 241.256C297.461 241.558 296.347 240.932 296.045 239.859Z" fill="#40B561"/>
<path d="M302.079 245.259C301.87 244.516 302.303 243.745 303.046 243.536C303.789 243.327 304.56 243.76 304.769 244.503C304.978 245.246 304.545 246.017 303.802 246.226C303.059 246.435 302.287 246.002 302.079 245.259Z" fill="#40B561"/>
<path d="M293.56 242.493C293.444 242.081 293.685 241.652 294.097 241.536C294.51 241.42 294.939 241.66 295.055 242.073C295.171 242.486 294.93 242.914 294.518 243.03C294.105 243.146 293.676 242.906 293.56 242.493Z" fill="#40B561"/>
<path d="M293.29 235.796C293.174 235.383 293.415 234.955 293.827 234.838C294.24 234.722 294.669 234.963 294.785 235.376C294.901 235.788 294.66 236.217 294.248 236.333C293.835 236.449 293.406 236.209 293.29 235.796Z" fill="#40B561"/>
<path d="M293.048 232.639C292.746 231.566 293.371 230.451 294.444 230.149C295.517 229.848 296.632 230.473 296.934 231.546C297.235 232.619 296.61 233.734 295.537 234.035C294.464 234.337 293.349 233.712 293.048 232.639Z" fill="#40B561"/>
<path d="M289.666 235.525C289.457 234.782 289.89 234.01 290.633 233.801C291.376 233.592 292.147 234.025 292.356 234.768C292.565 235.511 292.132 236.283 291.389 236.491C290.646 236.7 289.875 236.267 289.666 235.525Z" fill="#40B561"/>
<path d="M24.815 51.2568L27.6555 55.0689L29.1471 53.9574L26.3067 50.1453C26.3067 50.1453 27.5393 49.7963 27.6326 49.1573C27.726 48.5184 27.5124 47.9581 26.6447 47.8314C25.7769 47.7047 22.6278 50.0511 22.5011 50.9188C22.3744 51.7865 22.8501 52.1514 23.4891 52.2448C24.128 52.3381 24.815 51.2568 24.815 51.2568Z" fill="#206AAE"/>
<path d="M17.8042 73.7279L22.4675 72.8037L22.1059 70.979L17.4426 71.9031C17.4426 71.9031 17.6578 70.6402 17.1212 70.2811C16.5845 69.9219 15.9869 69.8737 15.4992 70.6025C15.0115 71.3313 15.7749 75.1836 16.5036 75.6713C17.2324 76.159 17.7665 75.8865 18.1257 75.3499C18.4848 74.8132 17.8042 73.7279 17.8042 73.7279Z" fill="#206AAE"/>
<path d="M18.5236 61.4704L22.9847 63.1132L23.6276 61.3676L19.1665 59.7247C19.1665 59.7247 20.0086 58.7593 19.7379 58.173C19.4672 57.5868 18.9824 57.234 18.1862 57.6016C17.3901 57.9692 16.033 61.6545 16.4005 62.4506C16.7681 63.2468 17.3659 63.2927 17.9522 63.022C18.5385 62.7514 18.5236 61.4704 18.5236 61.4704Z" fill="#206AAE"/>
<path d="M57.5681 52.3185L53.8402 55.2685L54.9945 56.7273L58.7225 53.7773C58.7225 53.7773 59.1071 54.9993 59.7486 55.074C60.39 55.1487 60.9438 54.919 61.0452 54.0479C61.1467 53.1769 58.7098 50.0973 57.8387 49.9958C56.9677 49.8943 56.6168 50.3804 56.5421 51.0219C56.4673 51.6633 57.5681 52.3185 57.5681 52.3185Z" fill="#206AAE"/>
<path d="M34.9029 45.9634L35.9621 50.5979L37.7756 50.1834L36.7164 45.549C36.7164 45.549 37.985 45.7274 38.3284 45.1806C38.6718 44.6337 38.7026 44.0349 37.96 43.5686C37.2173 43.1023 33.3888 43.9772 32.9225 44.7199C32.4562 45.4625 32.744 45.9884 33.2909 46.3319C33.8378 46.6753 34.9029 45.9634 34.9029 45.9634Z" fill="#206AAE"/>
<path d="M47.1761 46.3265L45.6636 50.8334L47.4271 51.4253L48.9397 46.9184C48.9397 46.9184 49.9291 47.7321 50.5073 47.4445C51.0855 47.1569 51.424 46.662 51.0334 45.8769C50.6428 45.0917 46.9197 43.8422 46.1346 44.2328C45.3495 44.6233 45.3209 45.2222 45.6085 45.8004C45.8961 46.3786 47.1761 46.3265 47.1761 46.3265Z" fill="#206AAE"/>
<path d="M55.8205 85.9274L53.0586 82.0581L51.5445 83.1388L54.3064 87.0081C54.3064 87.0081 53.067 87.3319 52.9606 87.9688C52.8542 88.6058 53.0563 89.1703 53.9213 89.3147C54.7862 89.4591 57.9826 87.1775 58.1271 86.3125C58.2715 85.4476 57.8033 85.073 57.1664 84.9667C56.5294 84.8603 55.8205 85.9274 55.8205 85.9274Z" fill="#206AAE"/>
<path d="M63.2889 63.6042L58.6077 64.4329L58.932 66.2646L63.6131 65.436C63.6131 65.436 63.3722 66.6942 63.9014 67.0642C64.4306 67.4342 65.0271 67.4946 65.5296 66.776C66.0321 66.0573 65.3476 62.1902 64.6289 61.6877C63.9102 61.1852 63.3707 61.4467 63.0007 61.976C62.6306 62.5052 63.2889 63.6042 63.2889 63.6042Z" fill="#206AAE"/>
<path d="M62.3192 75.8444L57.8926 74.1108L57.2143 75.843L61.6409 77.5766C61.6409 77.5766 60.7792 78.5246 61.0379 79.1163C61.2965 79.7079 61.774 80.0705 62.5775 79.7193C63.381 79.368 64.8132 75.7112 64.4619 74.9078C64.1107 74.1043 63.5139 74.0461 62.9222 74.3048C62.3305 74.5634 62.3192 75.8444 62.3192 75.8444Z" fill="#206AAE"/>
<path d="M23.0959 84.1968L26.8834 81.3236L25.7591 79.8415L21.9716 82.7147C21.9716 82.7147 21.612 81.4852 20.9723 81.3974C20.3325 81.3095 19.7741 81.5279 19.6549 82.3967C19.5356 83.2655 21.9092 86.3943 22.7779 86.5135C23.6467 86.6328 24.0075 86.1539 24.0953 85.5141C24.1831 84.8744 23.0959 84.1968 23.0959 84.1968Z" fill="#206AAE"/>
<path d="M45.6266 91.0135L44.6623 86.3584L42.8408 86.7357L43.8051 91.3909C43.8051 91.3909 42.5404 91.1865 42.1859 91.7263C41.8314 92.266 41.7883 92.8641 42.5213 93.3455C43.2543 93.8269 47.0998 93.0303 47.5812 92.2973C48.0626 91.5644 47.7855 91.0326 47.2458 90.6781C46.7061 90.3236 45.6266 91.0135 45.6266 91.0135Z" fill="#206AAE"/>
<path d="M33.3634 90.3998L34.9677 85.9248L33.2166 85.297L31.6123 89.7721C31.6123 89.7721 30.6396 88.9383 30.0557 89.2141C29.4718 89.4898 29.1232 89.9776 29.4977 90.7706C29.8722 91.5636 33.569 92.8889 34.3619 92.5144C35.1549 92.14 35.1957 91.5418 34.9199 90.9579C34.6442 90.3739 33.3634 90.3998 33.3634 90.3998Z" fill="#206AAE"/>
<path d="M24.815 51.2568L27.6555 55.0689L29.1471 53.9574L26.3067 50.1453C26.3067 50.1453 27.5393 49.7963 27.6326 49.1573C27.726 48.5184 27.5124 47.9581 26.6447 47.8314C25.7769 47.7047 22.6278 50.0511 22.5011 50.9188C22.3744 51.7865 22.8501 52.1514 23.4891 52.2448C24.128 52.3381 24.815 51.2568 24.815 51.2568Z" stroke="#206AAE" stroke-width="0.413388"/>
<path d="M17.8042 73.7279L22.4675 72.8037L22.1059 70.979L17.4426 71.9031C17.4426 71.9031 17.6578 70.6402 17.1212 70.2811C16.5845 69.9219 15.9869 69.8737 15.4992 70.6025C15.0115 71.3313 15.7749 75.1836 16.5036 75.6713C17.2324 76.159 17.7665 75.8865 18.1257 75.3499C18.4848 74.8132 17.8042 73.7279 17.8042 73.7279Z" stroke="#206AAE" stroke-width="0.413388"/>
<path d="M18.5236 61.4704L22.9847 63.1132L23.6276 61.3676L19.1665 59.7247C19.1665 59.7247 20.0086 58.7593 19.7379 58.173C19.4672 57.5868 18.9824 57.234 18.1862 57.6016C17.3901 57.9692 16.033 61.6545 16.4005 62.4506C16.7681 63.2468 17.3659 63.2927 17.9522 63.022C18.5385 62.7514 18.5236 61.4704 18.5236 61.4704Z" stroke="#206AAE" stroke-width="0.413388"/>
<path d="M57.5681 52.3185L53.8402 55.2685L54.9945 56.7273L58.7225 53.7773C58.7225 53.7773 59.1071 54.9993 59.7486 55.074C60.39 55.1487 60.9438 54.919 61.0452 54.0479C61.1467 53.1769 58.7098 50.0973 57.8387 49.9958C56.9677 49.8943 56.6168 50.3804 56.5421 51.0219C56.4673 51.6633 57.5681 52.3185 57.5681 52.3185Z" stroke="#206AAE" stroke-width="0.413388"/>
<path d="M34.9029 45.9634L35.9621 50.5979L37.7756 50.1834L36.7164 45.549C36.7164 45.549 37.985 45.7274 38.3284 45.1806C38.6718 44.6337 38.7026 44.0349 37.96 43.5686C37.2173 43.1023 33.3888 43.9772 32.9225 44.7199C32.4562 45.4625 32.744 45.9884 33.2909 46.3319C33.8378 46.6753 34.9029 45.9634 34.9029 45.9634Z" stroke="#206AAE" stroke-width="0.413388"/>
<path d="M47.1761 46.3265L45.6636 50.8334L47.4271 51.4253L48.9397 46.9184C48.9397 46.9184 49.9291 47.7321 50.5073 47.4445C51.0855 47.1569 51.424 46.662 51.0334 45.8769C50.6428 45.0917 46.9197 43.8422 46.1346 44.2328C45.3495 44.6233 45.3209 45.2222 45.6085 45.8004C45.8961 46.3786 47.1761 46.3265 47.1761 46.3265Z" stroke="#206AAE" stroke-width="0.413388"/>
<path d="M55.8205 85.9274L53.0586 82.0581L51.5445 83.1388L54.3064 87.0081C54.3064 87.0081 53.067 87.3319 52.9606 87.9688C52.8542 88.6058 53.0563 89.1703 53.9213 89.3147C54.7862 89.4591 57.9826 87.1775 58.1271 86.3125C58.2715 85.4476 57.8033 85.073 57.1664 84.9667C56.5294 84.8603 55.8205 85.9274 55.8205 85.9274Z" stroke="#206AAE" stroke-width="0.413388"/>
<path d="M63.2889 63.6042L58.6077 64.4329L58.932 66.2646L63.6131 65.436C63.6131 65.436 63.3722 66.6942 63.9014 67.0642C64.4306 67.4342 65.0271 67.4946 65.5296 66.776C66.0321 66.0573 65.3476 62.1902 64.6289 61.6877C63.9102 61.1852 63.3707 61.4467 63.0007 61.976C62.6306 62.5052 63.2889 63.6042 63.2889 63.6042Z" stroke="#206AAE" stroke-width="0.413388"/>
<path d="M62.3192 75.8444L57.8926 74.1108L57.2143 75.843L61.6409 77.5766C61.6409 77.5766 60.7792 78.5246 61.0379 79.1163C61.2965 79.7079 61.774 80.0705 62.5775 79.7193C63.381 79.368 64.8132 75.7112 64.4619 74.9078C64.1107 74.1043 63.5139 74.0461 62.9222 74.3048C62.3305 74.5634 62.3192 75.8444 62.3192 75.8444Z" stroke="#206AAE" stroke-width="0.413388"/>
<path d="M23.0959 84.1968L26.8834 81.3236L25.7591 79.8415L21.9716 82.7147C21.9716 82.7147 21.612 81.4852 20.9723 81.3974C20.3325 81.3095 19.7741 81.5279 19.6549 82.3967C19.5356 83.2655 21.9092 86.3943 22.7779 86.5135C23.6467 86.6328 24.0075 86.1539 24.0953 85.5141C24.1831 84.8744 23.0959 84.1968 23.0959 84.1968Z" stroke="#206AAE" stroke-width="0.413388"/>
<path d="M45.6266 91.0135L44.6623 86.3584L42.8408 86.7357L43.8051 91.3909C43.8051 91.3909 42.5404 91.1865 42.1859 91.7263C41.8314 92.266 41.7883 92.8641 42.5213 93.3455C43.2543 93.8269 47.0998 93.0303 47.5812 92.2973C48.0626 91.5644 47.7855 91.0326 47.2458 90.6781C46.7061 90.3236 45.6266 91.0135 45.6266 91.0135Z" stroke="#206AAE" stroke-width="0.413388"/>
<path d="M33.3634 90.3998L34.9677 85.9248L33.2166 85.297L31.6123 89.7721C31.6123 89.7721 30.6396 88.9383 30.0557 89.2141C29.4718 89.4898 29.1232 89.9776 29.4977 90.7706C29.8722 91.5636 33.569 92.8889 34.3619 92.5144C35.1549 92.14 35.1957 91.5418 34.9199 90.9579C34.6442 90.3739 33.3634 90.3998 33.3634 90.3998Z" stroke="#206AAE" stroke-width="0.413388"/>
<path d="M37.0187 50.5345C46.9825 48.56 56.6821 55.1262 58.6797 65.2062C60.6772 75.2862 54.2147 85.0552 44.2509 87.0297C34.2871 89.0042 24.5875 82.438 22.59 72.358C20.5925 62.2781 27.055 52.509 37.0187 50.5345Z" fill="#488BC8" stroke="#206AAE" stroke-width="0.413388"/>
<path fill-rule="evenodd" clip-rule="evenodd" d="M45.0478 50.5314C47.9363 53.1588 50.0432 56.7139 50.8638 60.8551C52.8831 71.045 46.3504 80.9244 36.2725 82.9216C33.5108 83.4688 30.7695 83.3674 28.2032 82.722C32.4222 86.5596 38.3089 88.418 44.2911 87.2325C54.3689 85.2354 60.9017 75.3559 58.8824 65.1661C57.4164 57.7686 51.8463 52.2412 45.0478 50.5314Z" fill="#206AAE"/>
<path d="M31.031 56.989C34.3903 56.3233 37.1339 55.8863 37.5555 58.0139C37.9771 60.1414 35.1939 60.3783 31.8346 61.044C28.4753 61.7097 26.4274 68.3302 26.0058 66.2026C25.5842 64.0751 27.6717 57.6547 31.031 56.989Z" fill="#39125C" fill-opacity="0.5"/>
<path d="M55.8663 70.9158C55.3709 74.3044 54.8657 77.0362 52.7196 76.7225C50.5735 76.4087 52.909 71.7474 53.4044 68.3588C53.8998 64.9702 51.7334 60.5759 53.8795 60.8897C56.0256 61.2034 56.3617 67.5272 55.8663 70.9158Z" fill="#39125C" fill-opacity="0.5"/>
<path d="M36.2232 83.7192C32.805 83.5096 30.0404 83.2351 30.1732 81.0702C30.306 78.9054 33.058 79.3834 36.4762 79.5931C39.8944 79.8028 41.8394 79.4691 41.7066 81.634C41.5738 83.7988 39.6414 83.9289 36.2232 83.7192Z" fill="#39125C" fill-opacity="0.5"/>
<path d="M36.0414 53.0461C37.7211 52.7132 39.3525 53.805 39.6854 55.4847C40.0182 57.1643 38.9264 58.7958 37.2468 59.1286C35.5671 59.4615 33.9357 58.3697 33.6028 56.69C33.27 55.0104 34.3618 53.3789 36.0414 53.0461Z" fill="#39125C" fill-opacity="0.5"/>
<path d="M30.9775 74.278C31.9853 74.0783 32.9642 74.7334 33.1639 75.7412C33.3636 76.749 32.7085 77.7279 31.7007 77.9276C30.693 78.1273 29.7141 77.4722 29.5144 76.4644C29.3147 75.4566 29.9697 74.4778 30.9775 74.278Z" fill="#39125C" fill-opacity="0.5"/>
<circle cx="42.0429" cy="74.8245" r="1.86024" transform="rotate(-101.209 42.0429 74.8245)" fill="#206AAE"/>
<path d="M41.5206 72.1888C42.9763 71.9003 44.3902 72.8465 44.6787 74.3022C44.9672 75.7579 44.021 77.1718 42.5653 77.4603C41.1096 77.7488 39.6957 76.8026 39.4072 75.3469C39.1187 73.8912 40.0649 72.4773 41.5206 72.1888Z" fill="#DEDEDE" fill-opacity="0.51"/>
<path d="M43.1686 57.1123C44.6243 56.8238 46.0382 57.77 46.3267 59.2257C46.6152 60.6814 45.669 62.0953 44.2133 62.3838C42.7576 62.6723 41.3437 61.7261 41.0552 60.2704C40.7667 58.8147 41.7129 57.4008 43.1686 57.1123Z" fill="#DEDEDE" fill-opacity="0.51"/>
<path d="M38.7662 71.0489C40.2219 70.7605 41.6358 71.7067 41.9243 73.1624C42.2127 74.6181 41.2665 76.032 39.8108 76.3204C38.3551 76.6089 36.9412 75.6627 36.6527 74.207C36.3643 72.7513 37.3105 71.3374 38.7662 71.0489Z" fill="#DEDEDE" fill-opacity="0.51"/>
<path d="M388.583 27.0001L382.033 29.2252L382.904 31.7882L389.454 29.563C389.454 29.563 389.385 31.4258 390.228 31.8412C391.071 32.2566 391.942 32.2118 392.506 31.0672C393.07 29.9227 391.232 24.512 390.087 23.9479C388.943 23.3839 388.225 23.8791 387.809 24.7219C387.394 25.5647 388.583 27.0001 388.583 27.0001Z" fill="#206AAE"/>
<path d="M360.613 7.23001L359.804 14.0999L362.492 14.4166L363.301 7.54663C363.301 7.54663 364.953 8.4102 365.691 7.82806C366.428 7.24592 366.763 6.44012 365.972 5.43852C365.182 4.43691 359.506 3.76851 358.505 4.55903C357.503 5.34956 357.641 6.21101 358.223 6.94858C358.806 7.68615 360.613 7.23001 360.613 7.23001Z" fill="#206AAE"/>
<path d="M377.261 13.7157L372.988 19.1561L375.117 20.8279L379.389 15.3875C379.389 15.3875 380.349 16.9857 381.282 16.8735C382.215 16.7614 382.92 16.2481 382.768 14.9812C382.615 13.7144 378.121 10.185 376.854 10.3374C375.587 10.4897 375.256 11.2967 375.368 12.2297C375.48 13.1626 377.261 13.7157 377.261 13.7157Z" fill="#206AAE"/>
<path d="M372.444 71.8695L370.03 65.3872L367.493 66.332L369.908 72.8143C369.908 72.8143 368.044 72.7996 367.653 73.6541C367.262 74.5087 367.332 75.3783 368.493 75.9089C369.653 76.4394 375.008 74.4449 375.539 73.2845C376.069 72.124 375.553 71.4204 374.699 71.0297C373.844 70.639 372.444 71.8695 372.444 71.8695Z" fill="#206AAE"/>
<path d="M391.393 43.3369L384.503 42.7277L384.265 45.424L391.155 46.0332C391.155 46.0332 390.34 47.7096 390.943 48.4299C391.546 49.1503 392.362 49.4611 393.34 48.6418C394.318 47.8225 394.821 42.1303 394.002 41.1521C393.183 40.1739 392.326 40.3369 391.605 40.9402C390.885 41.5435 391.393 43.3369 391.393 43.3369Z" fill="#206AAE"/>
<path d="M385.394 60.1659L379.832 56.0534L378.223 58.2299L383.785 62.3424C383.785 62.3424 382.215 63.3479 382.354 64.2771C382.494 65.2064 383.027 65.8967 384.289 65.7076C385.551 65.5185 388.948 60.9236 388.759 59.6617C388.57 58.3998 387.754 58.092 386.825 58.2313C385.895 58.3705 385.394 60.1659 385.394 60.1659Z" fill="#206AAE"/>
<path d="M326.697 54.3979L333.291 52.307L332.473 49.7268L325.879 51.8177C325.879 51.8177 325.986 49.9567 325.152 49.5242C324.318 49.0917 323.446 49.1186 322.858 50.2514C322.271 51.3843 323.998 56.8313 325.131 57.4187C326.264 58.006 326.992 57.5256 327.425 56.6914C327.857 55.8573 326.697 54.3979 326.697 54.3979Z" fill="#206AAE"/>
<path d="M354.258 74.7352L355.207 67.8832L352.526 67.5118L351.577 74.3637C351.577 74.3637 349.943 73.4666 349.193 74.0335C348.444 74.6005 348.093 75.3993 348.863 76.4168C349.633 77.4344 355.293 78.2186 356.311 77.4487C357.328 76.6788 357.208 75.8147 356.641 75.0654C356.074 74.3161 354.258 74.7352 354.258 74.7352Z" fill="#206AAE"/>
<path d="M337.746 67.9108L342.129 62.5588L340.034 60.8439L335.652 66.1959C335.652 66.1959 334.725 64.5784 333.79 64.6715C332.855 64.7646 332.139 65.2633 332.266 66.533C332.392 67.8027 336.813 71.4232 338.083 71.2967C339.353 71.1703 339.701 70.3702 339.608 69.4352C339.514 68.5002 337.746 67.9108 337.746 67.9108Z" fill="#206AAE"/>
<path d="M343.749 9.86747L346.031 16.3978L348.586 15.505L346.305 8.97469C346.305 8.97469 348.168 9.02748 348.576 8.18111C348.984 7.33473 348.932 6.46386 347.782 5.90969C346.633 5.35552 341.238 7.24028 340.684 8.38963C340.13 9.53898 340.632 10.253 341.478 10.6611C342.324 11.0691 343.749 9.86747 343.749 9.86747Z" fill="#206AAE"/>
<path d="M324.221 38.0071L331.098 38.7569L331.391 36.0661L324.515 35.3162C324.515 35.3162 325.364 33.6568 324.775 32.9243C324.187 32.1918 323.378 31.8643 322.384 32.6635C321.389 33.4627 320.769 39.1434 321.568 40.1381C322.368 41.1329 323.228 40.9874 323.96 40.3989C324.693 39.8105 324.221 38.0071 324.221 38.0071Z" fill="#206AAE"/>
<path d="M330.563 21.3041L336.04 25.5294L337.693 23.3862L332.216 19.1609C332.216 19.1609 333.806 18.1878 333.686 17.2559C333.566 16.324 333.047 15.6229 331.781 15.7862C330.516 15.9495 327.025 20.474 327.188 21.7395C327.352 23.005 328.161 23.3294 329.093 23.2091C330.025 23.0889 330.563 21.3041 330.563 21.3041Z" fill="#206AAE"/>
<path d="M388.583 27.0001L382.033 29.2252L382.904 31.7882L389.454 29.563C389.454 29.563 389.385 31.4258 390.228 31.8412C391.071 32.2566 391.942 32.2118 392.506 31.0672C393.07 29.9227 391.232 24.512 390.087 23.9479C388.943 23.3839 388.225 23.8791 387.809 24.7219C387.394 25.5647 388.583 27.0001 388.583 27.0001Z" stroke="#206AAE" stroke-width="0.601515"/>
<path d="M360.613 7.23001L359.804 14.0999L362.492 14.4166L363.301 7.54663C363.301 7.54663 364.953 8.4102 365.691 7.82806C366.428 7.24592 366.763 6.44012 365.972 5.43852C365.182 4.43691 359.506 3.76851 358.505 4.55903C357.503 5.34956 357.641 6.21101 358.223 6.94858C358.806 7.68615 360.613 7.23001 360.613 7.23001Z" stroke="#206AAE" stroke-width="0.601515"/>
<path d="M377.261 13.7157L372.988 19.1561L375.117 20.8279L379.389 15.3875C379.389 15.3875 380.349 16.9857 381.282 16.8735C382.215 16.7614 382.92 16.2481 382.768 14.9812C382.615 13.7144 378.121 10.185 376.854 10.3374C375.587 10.4897 375.256 11.2967 375.368 12.2297C375.48 13.1626 377.261 13.7157 377.261 13.7157Z" stroke="#206AAE" stroke-width="0.601515"/>
<path d="M372.444 71.8695L370.03 65.3872L367.493 66.332L369.908 72.8143C369.908 72.8143 368.044 72.7996 367.653 73.6541C367.262 74.5087 367.332 75.3783 368.493 75.9089C369.653 76.4394 375.008 74.4449 375.539 73.2845C376.069 72.124 375.553 71.4204 374.699 71.0297C373.844 70.639 372.444 71.8695 372.444 71.8695Z" stroke="#206AAE" stroke-width="0.601515"/>
<path d="M391.393 43.3369L384.503 42.7277L384.265 45.424L391.155 46.0332C391.155 46.0332 390.34 47.7096 390.943 48.4299C391.546 49.1503 392.362 49.4611 393.34 48.6418C394.318 47.8225 394.821 42.1303 394.002 41.1521C393.183 40.1739 392.326 40.3369 391.605 40.9402C390.885 41.5435 391.393 43.3369 391.393 43.3369Z" stroke="#206AAE" stroke-width="0.601515"/>
<path d="M385.394 60.1659L379.832 56.0534L378.223 58.2299L383.785 62.3424C383.785 62.3424 382.215 63.3479 382.354 64.2771C382.494 65.2064 383.027 65.8967 384.289 65.7076C385.551 65.5185 388.948 60.9236 388.759 59.6617C388.57 58.3998 387.754 58.092 386.825 58.2313C385.895 58.3705 385.394 60.1659 385.394 60.1659Z" stroke="#206AAE" stroke-width="0.601515"/>
<path d="M326.697 54.3979L333.291 52.307L332.473 49.7268L325.879 51.8177C325.879 51.8177 325.986 49.9567 325.152 49.5242C324.318 49.0917 323.446 49.1186 322.858 50.2514C322.271 51.3843 323.998 56.8313 325.131 57.4187C326.264 58.006 326.992 57.5256 327.425 56.6914C327.857 55.8573 326.697 54.3979 326.697 54.3979Z" stroke="#206AAE" stroke-width="0.601515"/>
<path d="M354.258 74.7352L355.207 67.8832L352.526 67.5118L351.577 74.3637C351.577 74.3637 349.943 73.4666 349.193 74.0335C348.444 74.6005 348.093 75.3993 348.863 76.4168C349.633 77.4344 355.293 78.2186 356.311 77.4487C357.328 76.6788 357.208 75.8147 356.641 75.0654C356.074 74.3161 354.258 74.7352 354.258 74.7352Z" stroke="#206AAE" stroke-width="0.601515"/>
<path d="M337.746 67.9108L342.129 62.5588L340.034 60.8439L335.652 66.1959C335.652 66.1959 334.725 64.5784 333.79 64.6715C332.855 64.7646 332.139 65.2633 332.266 66.533C332.392 67.8027 336.813 71.4232 338.083 71.2967C339.353 71.1703 339.701 70.3702 339.608 69.4352C339.514 68.5002 337.746 67.9108 337.746 67.9108Z" stroke="#206AAE" stroke-width="0.601515"/>
<path d="M343.749 9.86747L346.031 16.3978L348.586 15.505L346.305 8.97469C346.305 8.97469 348.168 9.02748 348.576 8.18111C348.984 7.33473 348.932 6.46386 347.782 5.90969C346.633 5.35552 341.238 7.24028 340.684 8.38963C340.13 9.53898 340.632 10.253 341.478 10.6611C342.324 11.0691 343.749 9.86747 343.749 9.86747Z" stroke="#206AAE" stroke-width="0.601515"/>
<path d="M324.221 38.0071L331.098 38.7569L331.391 36.0661L324.515 35.3162C324.515 35.3162 325.364 33.6568 324.775 32.9243C324.187 32.1918 323.378 31.8643 322.384 32.6635C321.389 33.4627 320.769 39.1434 321.568 40.1381C322.368 41.1329 323.228 40.9874 323.96 40.3989C324.693 39.8105 324.221 38.0071 324.221 38.0071Z" stroke="#206AAE" stroke-width="0.601515"/>
<path d="M330.563 21.3041L336.04 25.5294L337.693 23.3862L332.216 19.1609C332.216 19.1609 333.806 18.1878 333.686 17.2559C333.566 16.324 333.047 15.6229 331.781 15.7862C330.516 15.9495 327.025 20.474 327.188 21.7395C327.352 23.005 328.161 23.3294 329.093 23.2091C330.025 23.0889 330.563 21.3041 330.563 21.3041Z" stroke="#206AAE" stroke-width="0.601515"/>
<path d="M384.117 44.219C382.389 58.8976 368.954 69.3855 354.104 67.6365C339.254 65.8875 328.624 52.5654 330.353 37.8867C332.081 23.2081 345.516 12.7202 360.366 14.4692C375.216 16.2182 385.846 29.5403 384.117 44.219Z" fill="#488BC8" stroke="#206AAE" stroke-width="0.601515"/>
<path fill-rule="evenodd" clip-rule="evenodd" d="M380.526 55.3361C375.595 58.1584 369.729 59.4831 363.628 58.7645C348.617 56.9965 337.865 43.5276 339.613 28.6808C340.093 24.6124 341.461 20.8626 343.504 17.5988C336.301 21.7211 331.092 29.0385 330.054 37.8515C328.305 52.6982 339.057 66.1671 354.069 67.9351C364.967 69.2187 375.114 63.9826 380.526 55.3361Z" fill="#206AAE"/>
<path d="M377.863 33.0385C377.28 37.9874 376.657 41.9815 373.522 41.6123C370.388 41.2432 371.307 37.2838 371.889 32.3349C372.472 27.386 364.224 21.5858 367.358 21.9549C370.492 22.3241 378.446 28.0896 377.863 33.0385Z" fill="#39125C" fill-opacity="0.5"/>
<path d="M347.459 61.1844C342.99 58.9809 339.434 57.058 340.83 54.2273C342.225 51.3967 347.633 56.7177 352.102 58.9212C356.572 61.1247 363.625 60.0934 362.23 62.9241C360.834 65.7547 351.929 63.3879 347.459 61.1844Z" fill="#39125C" fill-opacity="0.5"/>
<path d="M338.531 28.2553C340.352 23.6169 341.971 19.9124 344.908 21.0658C347.846 22.2191 345.951 25.8152 344.13 30.4536C342.309 35.092 341.9 37.9341 338.962 36.7807C336.025 35.6274 336.71 32.8937 338.531 28.2553Z" fill="#39125C" fill-opacity="0.5"/>
<path d="M381.078 41.741C380.787 44.2155 378.544 45.9852 376.07 45.6937C373.595 45.4023 371.826 43.1601 372.117 40.6856C372.409 38.2112 374.651 36.4415 377.125 36.7329C379.6 37.0244 381.369 39.2666 381.078 41.741Z" fill="#39125C" fill-opacity="0.5"/>
<path d="M353.951 25.2213C353.777 26.706 352.431 27.7678 350.947 27.5929C349.462 27.4181 348.4 26.0728 348.575 24.5881C348.75 23.1034 350.095 22.0416 351.58 22.2165C353.064 22.3913 354.126 23.7366 353.951 25.2213Z" fill="#39125C" fill-opacity="0.5"/>
<circle cx="348.239" cy="40.296" r="2.70682" transform="rotate(6.71721 348.239 40.296)" fill="#206AAE"/>
<path d="M352.122 40.7535C351.869 42.898 349.926 44.4318 347.782 44.1792C345.637 43.9266 344.103 41.9834 344.356 39.8388C344.609 37.6943 346.552 36.1606 348.696 36.4132C350.841 36.6657 352.375 38.609 352.122 40.7535Z" fill="#DEDEDE" fill-opacity="0.51"/>
<path d="M372.257 49.7873C372.004 51.9318 370.061 53.4656 367.916 53.213C365.772 52.9604 364.238 51.0172 364.491 48.8726C364.743 46.7281 366.686 45.1944 368.831 45.447C370.975 45.6995 372.509 47.6428 372.257 49.7873Z" fill="#DEDEDE" fill-opacity="0.51"/>
<path d="M354.934 37.4506C354.681 39.5952 352.738 41.1289 350.593 40.8763C348.449 40.6237 346.915 38.6805 347.168 36.536C347.42 34.3914 349.363 32.8577 351.508 33.1103C353.653 33.3629 355.186 35.3061 354.934 37.4506Z" fill="#DEDEDE" fill-opacity="0.51"/>
<path d="M137.935 226.924L136.427 223.708L135.168 224.298L136.677 227.514C136.677 227.514 135.722 227.585 135.558 228.039C135.394 228.493 135.467 228.935 136.083 229.158C136.699 229.38 139.356 228.134 139.579 227.518C139.801 226.902 139.508 226.563 139.054 226.399C138.6 226.235 137.935 226.924 137.935 226.924Z" fill="#206AAE"/>
<path d="M146.433 211.524L142.881 211.502L142.872 212.892L146.424 212.914C146.424 212.914 146.078 213.806 146.417 214.149C146.756 214.492 147.186 214.617 147.652 214.157C148.118 213.696 148.136 210.762 147.676 210.296C147.215 209.83 146.784 209.949 146.44 210.288C146.097 210.627 146.433 211.524 146.433 211.524Z" fill="#206AAE"/>
<path d="M144.071 220.389L141.051 218.518L140.319 219.7L143.339 221.571C143.339 221.571 142.577 222.151 142.688 222.621C142.798 223.091 143.1 223.422 143.738 223.272C144.376 223.122 145.921 220.627 145.772 219.989C145.622 219.352 145.191 219.228 144.721 219.339C144.251 219.449 144.071 220.389 144.071 220.389Z" fill="#206AAE"/>
<path d="M114.117 221.242L117.288 219.641L116.661 218.4L113.49 220.001C113.49 220.001 113.392 219.049 112.933 218.898C112.475 218.747 112.035 218.833 111.831 219.455C111.626 220.078 112.949 222.697 113.571 222.902C114.194 223.106 114.523 222.803 114.674 222.345C114.825 221.886 114.117 221.242 114.117 221.242Z" fill="#206AAE"/>
<path d="M129.758 229.288L129.676 225.737L128.287 225.769L128.368 229.32C128.368 229.32 127.466 229 127.133 229.348C126.8 229.697 126.687 230.131 127.161 230.584C127.635 231.036 130.569 230.969 131.021 230.495C131.474 230.021 131.342 229.593 130.993 229.26C130.644 228.927 129.758 229.288 129.758 229.288Z" fill="#206AAE"/>
<path d="M120.827 227.185L122.61 224.112L121.407 223.414L119.625 226.487C119.625 226.487 119.022 225.743 118.556 225.867C118.09 225.991 117.768 226.303 117.936 226.936C118.105 227.569 120.643 229.042 121.276 228.873C121.909 228.705 122.02 228.271 121.896 227.804C121.772 227.338 120.827 227.185 120.827 227.185Z" fill="#206AAE"/>
<path d="M120.429 196.9L121.872 200.146L123.142 199.582L121.7 196.335C121.7 196.335 122.656 196.284 122.829 195.834C123.002 195.383 122.939 194.94 122.327 194.704C121.715 194.469 119.034 195.661 118.799 196.272C118.563 196.884 118.85 197.228 119.3 197.402C119.751 197.575 120.429 196.9 120.429 196.9Z" fill="#206AAE"/>
<path d="M111.619 212.123L115.17 212.218L115.207 210.828L111.656 210.734C111.656 210.734 112.021 209.849 111.689 209.499C111.357 209.149 110.929 209.015 110.454 209.466C109.978 209.917 109.9 212.85 110.351 213.326C110.802 213.801 111.236 213.69 111.586 213.358C111.936 213.026 111.619 212.123 111.619 212.123Z" fill="#206AAE"/>
<path d="M114.162 203.308L117.143 205.24L117.899 204.073L114.918 202.141C114.918 202.141 115.691 201.577 115.59 201.105C115.489 200.633 115.194 200.296 114.553 200.433C113.912 200.569 112.316 203.032 112.453 203.673C112.59 204.314 113.018 204.446 113.49 204.345C113.962 204.244 114.162 203.308 114.162 203.308Z" fill="#206AAE"/>
<path d="M144.127 203.067L140.924 204.603L141.525 205.857L144.728 204.321C144.728 204.321 144.807 205.275 145.262 205.435C145.717 205.595 146.159 205.518 146.376 204.9C146.594 204.282 145.325 201.636 144.706 201.419C144.088 201.202 143.752 201.498 143.592 201.953C143.432 202.408 144.127 203.067 144.127 203.067Z" fill="#206AAE"/>
<path d="M128.654 194.703L128.662 198.255L130.052 198.252L130.044 194.7C130.044 194.7 130.939 195.038 131.279 194.696C131.62 194.354 131.741 193.923 131.276 193.461C130.812 192.999 127.877 193.006 127.415 193.47C126.953 193.935 127.076 194.366 127.418 194.706C127.76 195.046 128.654 194.703 128.654 194.703Z" fill="#206AAE"/>
<path d="M137.539 196.989L135.695 200.024L136.883 200.746L138.727 197.71C138.727 197.71 139.314 198.467 139.783 198.352C140.252 198.238 140.58 197.933 140.425 197.296C140.269 196.66 137.761 195.136 137.125 195.291C136.488 195.447 136.369 195.878 136.483 196.347C136.598 196.816 137.539 196.989 137.539 196.989Z" fill="#206AAE"/>
<path d="M137.935 226.924L136.427 223.708L135.168 224.298L136.677 227.514C136.677 227.514 135.722 227.585 135.558 228.039C135.394 228.493 135.467 228.935 136.083 229.158C136.699 229.38 139.356 228.134 139.579 227.518C139.801 226.902 139.508 226.563 139.054 226.399C138.6 226.235 137.935 226.924 137.935 226.924Z" stroke="#206AAE" stroke-width="0.308892"/>
<path d="M146.433 211.524L142.881 211.502L142.872 212.892L146.424 212.914C146.424 212.914 146.078 213.806 146.417 214.149C146.756 214.492 147.186 214.617 147.652 214.157C148.118 213.696 148.136 210.762 147.676 210.296C147.215 209.83 146.784 209.949 146.44 210.288C146.097 210.627 146.433 211.524 146.433 211.524Z" stroke="#206AAE" stroke-width="0.308892"/>
<path d="M144.071 220.389L141.051 218.518L140.319 219.7L143.339 221.571C143.339 221.571 142.577 222.151 142.688 222.621C142.798 223.091 143.1 223.422 143.738 223.272C144.376 223.122 145.921 220.627 145.772 219.989C145.622 219.352 145.191 219.228 144.721 219.339C144.251 219.449 144.071 220.389 144.071 220.389Z" stroke="#206AAE" stroke-width="0.308892"/>
<path d="M114.117 221.242L117.288 219.641L116.661 218.4L113.49 220.001C113.49 220.001 113.392 219.049 112.933 218.898C112.475 218.747 112.035 218.833 111.831 219.455C111.626 220.078 112.949 222.697 113.571 222.902C114.194 223.106 114.523 222.803 114.674 222.345C114.825 221.886 114.117 221.242 114.117 221.242Z" stroke="#206AAE" stroke-width="0.308892"/>
<path d="M129.758 229.288L129.676 225.737L128.287 225.769L128.368 229.32C128.368 229.32 127.466 229 127.133 229.348C126.8 229.697 126.687 230.131 127.161 230.584C127.635 231.036 130.569 230.969 131.021 230.495C131.474 230.021 131.342 229.593 130.993 229.26C130.644 228.927 129.758 229.288 129.758 229.288Z" stroke="#206AAE" stroke-width="0.308892"/>
<path d="M120.827 227.185L122.61 224.112L121.407 223.414L119.625 226.487C119.625 226.487 119.022 225.743 118.556 225.867C118.09 225.991 117.768 226.303 117.936 226.936C118.105 227.569 120.643 229.042 121.276 228.873C121.909 228.705 122.02 228.271 121.896 227.804C121.772 227.338 120.827 227.185 120.827 227.185Z" stroke="#206AAE" stroke-width="0.308892"/>
<path d="M120.429 196.9L121.872 200.146L123.142 199.582L121.7 196.335C121.7 196.335 122.656 196.284 122.829 195.834C123.002 195.383 122.939 194.94 122.327 194.704C121.715 194.469 119.034 195.661 118.799 196.272C118.563 196.884 118.85 197.228 119.3 197.402C119.751 197.575 120.429 196.9 120.429 196.9Z" stroke="#206AAE" stroke-width="0.308892"/>
<path d="M111.619 212.123L115.17 212.218L115.207 210.828L111.656 210.734C111.656 210.734 112.021 209.849 111.689 209.499C111.357 209.149 110.929 209.015 110.454 209.466C109.978 209.917 109.9 212.85 110.351 213.326C110.802 213.801 111.236 213.69 111.586 213.358C111.936 213.026 111.619 212.123 111.619 212.123Z" stroke="#206AAE" stroke-width="0.308892"/>
<path d="M114.162 203.308L117.143 205.24L117.899 204.073L114.918 202.141C114.918 202.141 115.691 201.577 115.59 201.105C115.489 200.633 115.194 200.296 114.553 200.433C113.912 200.569 112.316 203.032 112.453 203.673C112.59 204.314 113.018 204.446 113.49 204.345C113.962 204.244 114.162 203.308 114.162 203.308Z" stroke="#206AAE" stroke-width="0.308892"/>
<path d="M144.127 203.067L140.924 204.603L141.525 205.857L144.728 204.321C144.728 204.321 144.807 205.275 145.262 205.435C145.717 205.595 146.159 205.518 146.376 204.9C146.594 204.282 145.325 201.636 144.706 201.419C144.088 201.202 143.752 201.498 143.592 201.953C143.432 202.408 144.127 203.067 144.127 203.067Z" stroke="#206AAE" stroke-width="0.308892"/>
<path d="M128.654 194.703L128.662 198.255L130.052 198.252L130.044 194.7C130.044 194.7 130.939 195.038 131.279 194.696C131.62 194.354 131.741 193.923 131.276 193.461C130.812 192.999 127.877 193.006 127.415 193.47C126.953 193.935 127.076 194.366 127.418 194.706C127.76 195.046 128.654 194.703 128.654 194.703Z" stroke="#206AAE" stroke-width="0.308892"/>
<path d="M137.539 196.989L135.695 200.024L136.883 200.746L138.727 197.71C138.727 197.71 139.314 198.467 139.783 198.352C140.252 198.238 140.58 197.933 140.425 197.296C140.269 196.66 137.761 195.136 137.125 195.291C136.488 195.447 136.369 195.878 136.483 196.347C136.598 196.816 137.539 196.989 137.539 196.989Z" stroke="#206AAE" stroke-width="0.308892"/>
<path d="M128.894 225.624C121.304 225.578 115.187 219.318 115.234 211.64C115.281 203.962 121.475 197.778 129.065 197.825C136.655 197.871 142.772 204.131 142.725 211.809C142.678 219.487 136.484 225.671 128.894 225.624Z" fill="#488BC8" stroke="#206AAE" stroke-width="0.308892"/>
<path fill-rule="evenodd" clip-rule="evenodd" d="M123.015 224.425C121.294 222.069 120.284 219.151 120.303 215.996C120.351 208.234 126.613 201.98 134.29 202.028C136.393 202.04 138.384 202.525 140.166 203.382C137.652 199.941 133.621 197.699 129.065 197.671C121.388 197.624 115.126 203.878 115.078 211.64C115.044 217.275 118.294 222.156 123.015 224.425Z" fill="#206AAE"/>
<path d="M134.243 221.797C131.684 221.781 129.611 221.69 129.62 220.069C129.63 218.449 131.703 218.692 134.262 218.708C136.821 218.724 139.312 214.184 139.302 215.804C139.292 217.425 136.802 221.813 134.243 221.797Z" fill="#39125C" fill-opacity="0.5"/>
<path d="M118.148 207.882C119.018 205.476 119.797 203.552 121.321 204.103C122.845 204.654 120.437 207.716 119.567 210.123C118.697 212.529 119.625 216.071 118.101 215.52C116.577 214.969 117.278 210.289 118.148 207.882Z" fill="#39125C" fill-opacity="0.5"/>
<path d="M134.445 201.451C136.916 202.116 138.899 202.731 138.478 204.296C138.056 205.861 136.113 205.099 133.642 204.434C131.171 203.768 129.697 203.721 130.119 202.156C130.54 200.592 131.974 200.786 134.445 201.451Z" fill="#39125C" fill-opacity="0.5"/>
<path d="M129.985 223.933C128.706 223.925 127.675 222.881 127.683 221.602C127.69 220.323 128.734 219.292 130.013 219.3C131.293 219.307 132.324 220.351 132.316 221.631C132.308 222.91 131.264 223.941 129.985 223.933Z" fill="#39125C" fill-opacity="0.5"/>
<path d="M136.872 209.148C136.104 209.143 135.485 208.517 135.49 207.75C135.495 206.982 136.121 206.363 136.889 206.368C137.656 206.373 138.275 206.999 138.27 207.767C138.265 208.534 137.639 209.153 136.872 209.148Z" fill="#39125C" fill-opacity="0.5"/>
<circle cx="128.853" cy="207.091" r="1.38979" transform="rotate(90.3521 128.853 207.091)" fill="#206AAE"/>
<path d="M128.84 209.099C127.732 209.092 126.838 208.187 126.845 207.079C126.852 205.97 127.756 205.076 128.865 205.083C129.974 205.09 130.867 205.994 130.861 207.103C130.854 208.212 129.949 209.106 128.84 209.099Z" fill="#DEDEDE" fill-opacity="0.51"/>
<path d="M125.376 219.889C124.267 219.882 123.374 218.978 123.381 217.869C123.388 216.76 124.292 215.867 125.401 215.873C126.51 215.88 127.403 216.785 127.396 217.893C127.39 219.002 126.485 219.896 125.376 219.889Z" fill="#DEDEDE" fill-opacity="0.51"/>
<path d="M130.686 210.346C129.577 210.339 128.684 209.434 128.691 208.326C128.698 207.217 129.602 206.323 130.711 206.33C131.82 206.337 132.713 207.241 132.706 208.35C132.699 209.459 131.795 210.352 130.686 210.346Z" fill="#DEDEDE" fill-opacity="0.51"/>
<mask id="path-26-inside-1" fill="white">
<path fill-rule="evenodd" clip-rule="evenodd" d="M88.2938 157.046L97.7252 131.304C98.1583 130.122 99.2832 129.336 100.542 129.336H107.526C108.518 129.336 109.446 129.826 110.005 130.646C110.564 131.465 110.681 132.508 110.319 133.432L94.8388 172.888C94.3882 174.036 93.2801 174.792 92.0461 174.792H84.4141C83.1801 174.792 82.072 174.036 81.6213 172.888L66.1413 133.432C65.7791 132.508 65.8966 131.465 66.4555 130.646C67.0143 129.826 67.9421 129.336 68.9341 129.336H75.9901C77.2469 129.336 78.3704 130.119 78.805 131.299L88.2938 157.046ZM126.285 129.336C127.942 129.336 129.285 130.679 129.285 132.336V171.792C129.285 173.449 127.942 174.792 126.285 174.792H119.733C118.077 174.792 116.733 173.449 116.733 171.792V132.336C116.733 130.679 118.077 129.336 119.733 129.336H126.285ZM171.176 171.953C170.756 172.244 170.32 172.522 169.87 172.789L169.855 172.798C166.784 174.594 163.268 175.44 159.412 175.44C155.389 175.44 151.675 174.44 148.346 172.409C145.02 170.38 142.422 167.538 140.554 163.966C138.669 160.364 137.764 156.324 137.764 151.92C137.764 147.48 138.665 143.449 140.568 139.919C142.442 136.394 145.048 133.603 148.378 131.628L148.397 131.617C151.759 129.655 155.477 128.688 159.484 128.688C163.38 128.688 166.921 129.53 169.999 131.33C170.406 131.569 170.801 131.817 171.183 132.075C171.316 130.54 172.603 129.336 174.172 129.336H180.796C182.453 129.336 183.796 130.679 183.796 132.336V171.792C183.796 173.449 182.453 174.792 180.796 174.792H174.172C172.569 174.792 171.26 173.535 171.176 171.953ZM166.014 141.796C165.99 141.782 165.966 141.768 165.942 141.754C164.411 140.842 162.713 140.376 160.78 140.376C158.825 140.376 157.11 140.83 155.573 141.709C154.08 142.561 152.853 143.816 151.896 145.577C150.976 147.27 150.46 149.352 150.46 151.92C150.46 154.537 150.976 156.673 151.903 158.42C152.859 160.174 154.09 161.459 155.596 162.36C157.128 163.231 158.835 163.68 160.78 163.68C162.732 163.68 164.443 163.228 165.978 162.353C167.533 161.446 168.781 160.161 169.73 158.42C170.66 156.666 171.172 154.552 171.172 151.992C171.172 149.424 170.657 147.342 169.736 145.649C168.79 143.906 167.551 142.653 166.014 141.796ZM206.981 131.258C207.167 131.137 207.357 131.019 207.55 130.905L207.576 130.89C210.286 129.324 213.447 128.616 216.924 128.616C218.581 128.616 219.924 129.959 219.924 131.616V138.384C219.924 140.041 218.581 141.384 216.924 141.384H215.196C212.053 141.384 210.228 142.225 209.14 143.405C208.01 144.631 207.18 146.757 207.18 150.336V171.792C207.18 173.449 205.837 174.792 204.18 174.792H197.628C195.972 174.792 194.628 173.449 194.628 171.792V132.336C194.628 130.679 195.972 129.336 197.628 129.336H204.18C205.457 129.336 206.548 130.134 206.981 131.258ZM265.24 129.336C266.897 129.336 268.24 130.679 268.24 132.336V171.792C268.24 173.449 266.897 174.792 265.24 174.792H258.688C257.383 174.792 256.272 173.959 255.86 172.795C255.515 173.002 255.16 173.198 254.796 173.384L254.773 173.395C252.113 174.726 249.199 175.368 246.088 175.368C242.599 175.368 239.363 174.656 236.445 173.169C236.438 173.165 236.431 173.161 236.424 173.158C236.417 173.154 236.411 173.151 236.404 173.147C233.421 171.568 231.071 169.227 229.365 166.214C229.358 166.201 229.351 166.189 229.344 166.176C227.656 163.091 226.888 159.472 226.888 155.448V132.336C226.888 130.679 228.231 129.336 229.888 129.336H236.368C238.025 129.336 239.368 130.679 239.368 132.336V154.584C239.368 157.971 240.217 160.138 241.503 161.526C242.795 162.875 244.632 163.68 247.384 163.68C250.224 163.68 252.127 162.832 253.471 161.393C254.793 159.976 255.688 157.679 255.688 154.008V132.336C255.688 130.679 257.031 129.336 258.688 129.336H265.24ZM286.733 173.694C286.717 173.687 286.702 173.681 286.686 173.674C283.889 172.443 281.563 170.71 279.822 168.428L279.799 168.398C278.048 166.043 277.086 163.343 276.908 160.38C276.858 159.554 277.152 158.745 277.719 158.143C278.286 157.541 279.076 157.2 279.903 157.2H286.671C288.215 157.2 289.506 158.372 289.656 159.909C289.763 161.006 290.224 161.867 291.212 162.628C292.244 163.388 293.743 163.896 295.959 163.896C298.039 163.896 299.286 163.435 300.037 162.859C300.805 162.27 301.023 161.728 301.023 161.064C301.023 160.656 300.937 160.461 300.878 160.365C300.82 160.267 300.683 160.095 300.311 159.897C300.29 159.886 300.269 159.875 300.248 159.863C299.063 159.196 296.996 158.433 293.853 157.636L293.829 157.63C290.829 156.843 288.291 156.036 286.252 155.2C286.223 155.188 286.194 155.175 286.165 155.162C283.938 154.166 282.004 152.726 280.381 150.872C280.359 150.847 280.338 150.821 280.317 150.796C278.484 148.556 277.695 145.768 277.695 142.704C277.695 140.047 278.499 137.592 280.053 135.416C281.614 133.232 283.774 131.599 286.386 130.46C289.038 129.253 291.986 128.688 295.167 128.688C300.047 128.688 304.304 129.93 307.655 132.682C311.069 135.486 312.838 139.337 313.067 143.922C313.108 144.743 312.81 145.544 312.244 146.14C311.678 146.735 310.892 147.072 310.071 147.072H303.519C301.943 147.072 300.635 145.853 300.526 144.281C300.437 143.003 299.966 142.13 299.107 141.432C299.095 141.423 299.083 141.413 299.071 141.403C298.271 140.732 297.011 140.232 294.951 140.232C293.002 140.232 291.816 140.651 291.094 141.174C290.433 141.653 290.247 142.092 290.247 142.704C290.247 143.267 290.389 143.584 290.602 143.83C291.151 144.331 291.852 144.786 292.747 145.171C293.923 145.603 295.582 146.12 297.759 146.723C300.648 147.506 303.089 148.313 305.038 149.153C307.253 150.057 309.148 151.444 310.696 153.283C312.535 155.407 313.371 158.069 313.43 161.004C313.43 161.017 313.43 161.03 313.43 161.042L313.431 161.064C313.431 163.818 312.653 166.363 311.095 168.607C309.543 170.842 307.386 172.532 304.764 173.729L304.737 173.741C302.125 174.902 299.201 175.44 296.031 175.44C292.671 175.44 289.555 174.879 286.733 173.694ZM123.117 126.928C121.093 126.928 119.268 126.193 117.828 124.753C116.388 123.313 115.653 121.489 115.653 119.464C115.653 117.439 116.388 115.615 117.828 114.175C119.268 112.735 121.093 112 123.117 112C125.119 112 126.908 112.755 128.293 114.205C129.713 115.64 130.437 117.454 130.437 119.464C130.437 121.474 129.713 123.288 128.293 124.723C126.908 126.173 125.119 126.928 123.117 126.928Z"/>
</mask>
<path fill-rule="evenodd" clip-rule="evenodd" d="M88.2938 157.046L97.7252 131.304C98.1583 130.122 99.2832 129.336 100.542 129.336H107.526C108.518 129.336 109.446 129.826 110.005 130.646C110.564 131.465 110.681 132.508 110.319 133.432L94.8388 172.888C94.3882 174.036 93.2801 174.792 92.0461 174.792H84.4141C83.1801 174.792 82.072 174.036 81.6213 172.888L66.1413 133.432C65.7791 132.508 65.8966 131.465 66.4555 130.646C67.0143 129.826 67.9421 129.336 68.9341 129.336H75.9901C77.2469 129.336 78.3704 130.119 78.805 131.299L88.2938 157.046ZM126.285 129.336C127.942 129.336 129.285 130.679 129.285 132.336V171.792C129.285 173.449 127.942 174.792 126.285 174.792H119.733C118.077 174.792 116.733 173.449 116.733 171.792V132.336C116.733 130.679 118.077 129.336 119.733 129.336H126.285ZM171.176 171.953C170.756 172.244 170.32 172.522 169.87 172.789L169.855 172.798C166.784 174.594 163.268 175.44 159.412 175.44C155.389 175.44 151.675 174.44 148.346 172.409C145.02 170.38 142.422 167.538 140.554 163.966C138.669 160.364 137.764 156.324 137.764 151.92C137.764 147.48 138.665 143.449 140.568 139.919C142.442 136.394 145.048 133.603 148.378 131.628L148.397 131.617C151.759 129.655 155.477 128.688 159.484 128.688C163.38 128.688 166.921 129.53 169.999 131.33C170.406 131.569 170.801 131.817 171.183 132.075C171.316 130.54 172.603 129.336 174.172 129.336H180.796C182.453 129.336 183.796 130.679 183.796 132.336V171.792C183.796 173.449 182.453 174.792 180.796 174.792H174.172C172.569 174.792 171.26 173.535 171.176 171.953ZM166.014 141.796C165.99 141.782 165.966 141.768 165.942 141.754C164.411 140.842 162.713 140.376 160.78 140.376C158.825 140.376 157.11 140.83 155.573 141.709C154.08 142.561 152.853 143.816 151.896 145.577C150.976 147.27 150.46 149.352 150.46 151.92C150.46 154.537 150.976 156.673 151.903 158.42C152.859 160.174 154.09 161.459 155.596 162.36C157.128 163.231 158.835 163.68 160.78 163.68C162.732 163.68 164.443 163.228 165.978 162.353C167.533 161.446 168.781 160.161 169.73 158.42C170.66 156.666 171.172 154.552 171.172 151.992C171.172 149.424 170.657 147.342 169.736 145.649C168.79 143.906 167.551 142.653 166.014 141.796ZM206.981 131.258C207.167 131.137 207.357 131.019 207.55 130.905L207.576 130.89C210.286 129.324 213.447 128.616 216.924 128.616C218.581 128.616 219.924 129.959 219.924 131.616V138.384C219.924 140.041 218.581 141.384 216.924 141.384H215.196C212.053 141.384 210.228 142.225 209.14 143.405C208.01 144.631 207.18 146.757 207.18 150.336V171.792C207.18 173.449 205.837 174.792 204.18 174.792H197.628C195.972 174.792 194.628 173.449 194.628 171.792V132.336C194.628 130.679 195.972 129.336 197.628 129.336H204.18C205.457 129.336 206.548 130.134 206.981 131.258ZM265.24 129.336C266.897 129.336 268.24 130.679 268.24 132.336V171.792C268.24 173.449 266.897 174.792 265.24 174.792H258.688C257.383 174.792 256.272 173.959 255.86 172.795C255.515 173.002 255.16 173.198 254.796 173.384L254.773 173.395C252.113 174.726 249.199 175.368 246.088 175.368C242.599 175.368 239.363 174.656 236.445 173.169C236.438 173.165 236.431 173.161 236.424 173.158C236.417 173.154 236.411 173.151 236.404 173.147C233.421 171.568 231.071 169.227 229.365 166.214C229.358 166.201 229.351 166.189 229.344 166.176C227.656 163.091 226.888 159.472 226.888 155.448V132.336C226.888 130.679 228.231 129.336 229.888 129.336H236.368C238.025 129.336 239.368 130.679 239.368 132.336V154.584C239.368 157.971 240.217 160.138 241.503 161.526C242.795 162.875 244.632 163.68 247.384 163.68C250.224 163.68 252.127 162.832 253.471 161.393C254.793 159.976 255.688 157.679 255.688 154.008V132.336C255.688 130.679 257.031 129.336 258.688 129.336H265.24ZM286.733 173.694C286.717 173.687 286.702 173.681 286.686 173.674C283.889 172.443 281.563 170.71 279.822 168.428L279.799 168.398C278.048 166.043 277.086 163.343 276.908 160.38C276.858 159.554 277.152 158.745 277.719 158.143C278.286 157.541 279.076 157.2 279.903 157.2H286.671C288.215 157.2 289.506 158.372 289.656 159.909C289.763 161.006 290.224 161.867 291.212 162.628C292.244 163.388 293.743 163.896 295.959 163.896C298.039 163.896 299.286 163.435 300.037 162.859C300.805 162.27 301.023 161.728 301.023 161.064C301.023 160.656 300.937 160.461 300.878 160.365C300.82 160.267 300.683 160.095 300.311 159.897C300.29 159.886 300.269 159.875 300.248 159.863C299.063 159.196 296.996 158.433 293.853 157.636L293.829 157.63C290.829 156.843 288.291 156.036 286.252 155.2C286.223 155.188 286.194 155.175 286.165 155.162C283.938 154.166 282.004 152.726 280.381 150.872C280.359 150.847 280.338 150.821 280.317 150.796C278.484 148.556 277.695 145.768 277.695 142.704C277.695 140.047 278.499 137.592 280.053 135.416C281.614 133.232 283.774 131.599 286.386 130.46C289.038 129.253 291.986 128.688 295.167 128.688C300.047 128.688 304.304 129.93 307.655 132.682C311.069 135.486 312.838 139.337 313.067 143.922C313.108 144.743 312.81 145.544 312.244 146.14C311.678 146.735 310.892 147.072 310.071 147.072H303.519C301.943 147.072 300.635 145.853 300.526 144.281C300.437 143.003 299.966 142.13 299.107 141.432C299.095 141.423 299.083 141.413 299.071 141.403C298.271 140.732 297.011 140.232 294.951 140.232C293.002 140.232 291.816 140.651 291.094 141.174C290.433 141.653 290.247 142.092 290.247 142.704C290.247 143.267 290.389 143.584 290.602 143.83C291.151 144.331 291.852 144.786 292.747 145.171C293.923 145.603 295.582 146.12 297.759 146.723C300.648 147.506 303.089 148.313 305.038 149.153C307.253 150.057 309.148 151.444 310.696 153.283C312.535 155.407 313.371 158.069 313.43 161.004C313.43 161.017 313.43 161.03 313.43 161.042L313.431 161.064C313.431 163.818 312.653 166.363 311.095 168.607C309.543 170.842 307.386 172.532 304.764 173.729L304.737 173.741C302.125 174.902 299.201 175.44 296.031 175.44C292.671 175.44 289.555 174.879 286.733 173.694ZM123.117 126.928C121.093 126.928 119.268 126.193 117.828 124.753C116.388 123.313 115.653 121.489 115.653 119.464C115.653 117.439 116.388 115.615 117.828 114.175C119.268 112.735 121.093 112 123.117 112C125.119 112 126.908 112.755 128.293 114.205C129.713 115.64 130.437 117.454 130.437 119.464C130.437 121.474 129.713 123.288 128.293 124.723C126.908 126.173 125.119 126.928 123.117 126.928Z" fill="#91D487"/>
<path fill-rule="evenodd" clip-rule="evenodd" d="M88.2938 157.046L97.7252 131.304C98.1583 130.122 99.2832 129.336 100.542 129.336H107.526C108.518 129.336 109.446 129.826 110.005 130.646C110.564 131.465 110.681 132.508 110.319 133.432L94.8388 172.888C94.3882 174.036 93.2801 174.792 92.0461 174.792H84.4141C83.1801 174.792 82.072 174.036 81.6213 172.888L66.1413 133.432C65.7791 132.508 65.8966 131.465 66.4555 130.646C67.0143 129.826 67.9421 129.336 68.9341 129.336H75.9901C77.2469 129.336 78.3704 130.119 78.805 131.299L88.2938 157.046ZM126.285 129.336C127.942 129.336 129.285 130.679 129.285 132.336V171.792C129.285 173.449 127.942 174.792 126.285 174.792H119.733C118.077 174.792 116.733 173.449 116.733 171.792V132.336C116.733 130.679 118.077 129.336 119.733 129.336H126.285ZM171.176 171.953C170.756 172.244 170.32 172.522 169.87 172.789L169.855 172.798C166.784 174.594 163.268 175.44 159.412 175.44C155.389 175.44 151.675 174.44 148.346 172.409C145.02 170.38 142.422 167.538 140.554 163.966C138.669 160.364 137.764 156.324 137.764 151.92C137.764 147.48 138.665 143.449 140.568 139.919C142.442 136.394 145.048 133.603 148.378 131.628L148.397 131.617C151.759 129.655 155.477 128.688 159.484 128.688C163.38 128.688 166.921 129.53 169.999 131.33C170.406 131.569 170.801 131.817 171.183 132.075C171.316 130.54 172.603 129.336 174.172 129.336H180.796C182.453 129.336 183.796 130.679 183.796 132.336V171.792C183.796 173.449 182.453 174.792 180.796 174.792H174.172C172.569 174.792 171.26 173.535 171.176 171.953ZM166.014 141.796C165.99 141.782 165.966 141.768 165.942 141.754C164.411 140.842 162.713 140.376 160.78 140.376C158.825 140.376 157.11 140.83 155.573 141.709C154.08 142.561 152.853 143.816 151.896 145.577C150.976 147.27 150.46 149.352 150.46 151.92C150.46 154.537 150.976 156.673 151.903 158.42C152.859 160.174 154.09 161.459 155.596 162.36C157.128 163.231 158.835 163.68 160.78 163.68C162.732 163.68 164.443 163.228 165.978 162.353C167.533 161.446 168.781 160.161 169.73 158.42C170.66 156.666 171.172 154.552 171.172 151.992C171.172 149.424 170.657 147.342 169.736 145.649C168.79 143.906 167.551 142.653 166.014 141.796ZM206.981 131.258C207.167 131.137 207.357 131.019 207.55 130.905L207.576 130.89C210.286 129.324 213.447 128.616 216.924 128.616C218.581 128.616 219.924 129.959 219.924 131.616V138.384C219.924 140.041 218.581 141.384 216.924 141.384H215.196C212.053 141.384 210.228 142.225 209.14 143.405C208.01 144.631 207.18 146.757 207.18 150.336V171.792C207.18 173.449 205.837 174.792 204.18 174.792H197.628C195.972 174.792 194.628 173.449 194.628 171.792V132.336C194.628 130.679 195.972 129.336 197.628 129.336H204.18C205.457 129.336 206.548 130.134 206.981 131.258ZM265.24 129.336C266.897 129.336 268.24 130.679 268.24 132.336V171.792C268.24 173.449 266.897 174.792 265.24 174.792H258.688C257.383 174.792 256.272 173.959 255.86 172.795C255.515 173.002 255.16 173.198 254.796 173.384L254.773 173.395C252.113 174.726 249.199 175.368 246.088 175.368C242.599 175.368 239.363 174.656 236.445 173.169C236.438 173.165 236.431 173.161 236.424 173.158C236.417 173.154 236.411 173.151 236.404 173.147C233.421 171.568 231.071 169.227 229.365 166.214C229.358 166.201 229.351 166.189 229.344 166.176C227.656 163.091 226.888 159.472 226.888 155.448V132.336C226.888 130.679 228.231 129.336 229.888 129.336H236.368C238.025 129.336 239.368 130.679 239.368 132.336V154.584C239.368 157.971 240.217 160.138 241.503 161.526C242.795 162.875 244.632 163.68 247.384 163.68C250.224 163.68 252.127 162.832 253.471 161.393C254.793 159.976 255.688 157.679 255.688 154.008V132.336C255.688 130.679 257.031 129.336 258.688 129.336H265.24ZM286.733 173.694C286.717 173.687 286.702 173.681 286.686 173.674C283.889 172.443 281.563 170.71 279.822 168.428L279.799 168.398C278.048 166.043 277.086 163.343 276.908 160.38C276.858 159.554 277.152 158.745 277.719 158.143C278.286 157.541 279.076 157.2 279.903 157.2H286.671C288.215 157.2 289.506 158.372 289.656 159.909C289.763 161.006 290.224 161.867 291.212 162.628C292.244 163.388 293.743 163.896 295.959 163.896C298.039 163.896 299.286 163.435 300.037 162.859C300.805 162.27 301.023 161.728 301.023 161.064C301.023 160.656 300.937 160.461 300.878 160.365C300.82 160.267 300.683 160.095 300.311 159.897C300.29 159.886 300.269 159.875 300.248 159.863C299.063 159.196 296.996 158.433 293.853 157.636L293.829 157.63C290.829 156.843 288.291 156.036 286.252 155.2C286.223 155.188 286.194 155.175 286.165 155.162C283.938 154.166 282.004 152.726 280.381 150.872C280.359 150.847 280.338 150.821 280.317 150.796C278.484 148.556 277.695 145.768 277.695 142.704C277.695 140.047 278.499 137.592 280.053 135.416C281.614 133.232 283.774 131.599 286.386 130.46C289.038 129.253 291.986 128.688 295.167 128.688C300.047 128.688 304.304 129.93 307.655 132.682C311.069 135.486 312.838 139.337 313.067 143.922C313.108 144.743 312.81 145.544 312.244 146.14C311.678 146.735 310.892 147.072 310.071 147.072H303.519C301.943 147.072 300.635 145.853 300.526 144.281C300.437 143.003 299.966 142.13 299.107 141.432C299.095 141.423 299.083 141.413 299.071 141.403C298.271 140.732 297.011 140.232 294.951 140.232C293.002 140.232 291.816 140.651 291.094 141.174C290.433 141.653 290.247 142.092 290.247 142.704C290.247 143.267 290.389 143.584 290.602 143.83C291.151 144.331 291.852 144.786 292.747 145.171C293.923 145.603 295.582 146.12 297.759 146.723C300.648 147.506 303.089 148.313 305.038 149.153C307.253 150.057 309.148 151.444 310.696 153.283C312.535 155.407 313.371 158.069 313.43 161.004C313.43 161.017 313.43 161.03 313.43 161.042L313.431 161.064C313.431 163.818 312.653 166.363 311.095 168.607C309.543 170.842 307.386 172.532 304.764 173.729L304.737 173.741C302.125 174.902 299.201 175.44 296.031 175.44C292.671 175.44 289.555 174.879 286.733 173.694ZM123.117 126.928C121.093 126.928 119.268 126.193 117.828 124.753C116.388 123.313 115.653 121.489 115.653 119.464C115.653 117.439 116.388 115.615 117.828 114.175C119.268 112.735 121.093 112 123.117 112C125.119 112 126.908 112.755 128.293 114.205C129.713 115.64 130.437 117.454 130.437 119.464C130.437 121.474 129.713 123.288 128.293 124.723C126.908 126.173 125.119 126.928 123.117 126.928Z" fill="url(#paint3_linear)"/>
<path fill-rule="evenodd" clip-rule="evenodd" d="M88.2938 157.046L97.7252 131.304C98.1583 130.122 99.2832 129.336 100.542 129.336H107.526C108.518 129.336 109.446 129.826 110.005 130.646C110.564 131.465 110.681 132.508 110.319 133.432L94.8388 172.888C94.3882 174.036 93.2801 174.792 92.0461 174.792H84.4141C83.1801 174.792 82.072 174.036 81.6213 172.888L66.1413 133.432C65.7791 132.508 65.8966 131.465 66.4555 130.646C67.0143 129.826 67.9421 129.336 68.9341 129.336H75.9901C77.2469 129.336 78.3704 130.119 78.805 131.299L88.2938 157.046ZM126.285 129.336C127.942 129.336 129.285 130.679 129.285 132.336V171.792C129.285 173.449 127.942 174.792 126.285 174.792H119.733C118.077 174.792 116.733 173.449 116.733 171.792V132.336C116.733 130.679 118.077 129.336 119.733 129.336H126.285ZM171.176 171.953C170.756 172.244 170.32 172.522 169.87 172.789L169.855 172.798C166.784 174.594 163.268 175.44 159.412 175.44C155.389 175.44 151.675 174.44 148.346 172.409C145.02 170.38 142.422 167.538 140.554 163.966C138.669 160.364 137.764 156.324 137.764 151.92C137.764 147.48 138.665 143.449 140.568 139.919C142.442 136.394 145.048 133.603 148.378 131.628L148.397 131.617C151.759 129.655 155.477 128.688 159.484 128.688C163.38 128.688 166.921 129.53 169.999 131.33C170.406 131.569 170.801 131.817 171.183 132.075C171.316 130.54 172.603 129.336 174.172 129.336H180.796C182.453 129.336 183.796 130.679 183.796 132.336V171.792C183.796 173.449 182.453 174.792 180.796 174.792H174.172C172.569 174.792 171.26 173.535 171.176 171.953ZM166.014 141.796C165.99 141.782 165.966 141.768 165.942 141.754C164.411 140.842 162.713 140.376 160.78 140.376C158.825 140.376 157.11 140.83 155.573 141.709C154.08 142.561 152.853 143.816 151.896 145.577C150.976 147.27 150.46 149.352 150.46 151.92C150.46 154.537 150.976 156.673 151.903 158.42C152.859 160.174 154.09 161.459 155.596 162.36C157.128 163.231 158.835 163.68 160.78 163.68C162.732 163.68 164.443 163.228 165.978 162.353C167.533 161.446 168.781 160.161 169.73 158.42C170.66 156.666 171.172 154.552 171.172 151.992C171.172 149.424 170.657 147.342 169.736 145.649C168.79 143.906 167.551 142.653 166.014 141.796ZM206.981 131.258C207.167 131.137 207.357 131.019 207.55 130.905L207.576 130.89C210.286 129.324 213.447 128.616 216.924 128.616C218.581 128.616 219.924 129.959 219.924 131.616V138.384C219.924 140.041 218.581 141.384 216.924 141.384H215.196C212.053 141.384 210.228 142.225 209.14 143.405C208.01 144.631 207.18 146.757 207.18 150.336V171.792C207.18 173.449 205.837 174.792 204.18 174.792H197.628C195.972 174.792 194.628 173.449 194.628 171.792V132.336C194.628 130.679 195.972 129.336 197.628 129.336H204.18C205.457 129.336 206.548 130.134 206.981 131.258ZM265.24 129.336C266.897 129.336 268.24 130.679 268.24 132.336V171.792C268.24 173.449 266.897 174.792 265.24 174.792H258.688C257.383 174.792 256.272 173.959 255.86 172.795C255.515 173.002 255.16 173.198 254.796 173.384L254.773 173.395C252.113 174.726 249.199 175.368 246.088 175.368C242.599 175.368 239.363 174.656 236.445 173.169C236.438 173.165 236.431 173.161 236.424 173.158C236.417 173.154 236.411 173.151 236.404 173.147C233.421 171.568 231.071 169.227 229.365 166.214C229.358 166.201 229.351 166.189 229.344 166.176C227.656 163.091 226.888 159.472 226.888 155.448V132.336C226.888 130.679 228.231 129.336 229.888 129.336H236.368C238.025 129.336 239.368 130.679 239.368 132.336V154.584C239.368 157.971 240.217 160.138 241.503 161.526C242.795 162.875 244.632 163.68 247.384 163.68C250.224 163.68 252.127 162.832 253.471 161.393C254.793 159.976 255.688 157.679 255.688 154.008V132.336C255.688 130.679 257.031 129.336 258.688 129.336H265.24ZM286.733 173.694C286.717 173.687 286.702 173.681 286.686 173.674C283.889 172.443 281.563 170.71 279.822 168.428L279.799 168.398C278.048 166.043 277.086 163.343 276.908 160.38C276.858 159.554 277.152 158.745 277.719 158.143C278.286 157.541 279.076 157.2 279.903 157.2H286.671C288.215 157.2 289.506 158.372 289.656 159.909C289.763 161.006 290.224 161.867 291.212 162.628C292.244 163.388 293.743 163.896 295.959 163.896C298.039 163.896 299.286 163.435 300.037 162.859C300.805 162.27 301.023 161.728 301.023 161.064C301.023 160.656 300.937 160.461 300.878 160.365C300.82 160.267 300.683 160.095 300.311 159.897C300.29 159.886 300.269 159.875 300.248 159.863C299.063 159.196 296.996 158.433 293.853 157.636L293.829 157.63C290.829 156.843 288.291 156.036 286.252 155.2C286.223 155.188 286.194 155.175 286.165 155.162C283.938 154.166 282.004 152.726 280.381 150.872C280.359 150.847 280.338 150.821 280.317 150.796C278.484 148.556 277.695 145.768 277.695 142.704C277.695 140.047 278.499 137.592 280.053 135.416C281.614 133.232 283.774 131.599 286.386 130.46C289.038 129.253 291.986 128.688 295.167 128.688C300.047 128.688 304.304 129.93 307.655 132.682C311.069 135.486 312.838 139.337 313.067 143.922C313.108 144.743 312.81 145.544 312.244 146.14C311.678 146.735 310.892 147.072 310.071 147.072H303.519C301.943 147.072 300.635 145.853 300.526 144.281C300.437 143.003 299.966 142.13 299.107 141.432C299.095 141.423 299.083 141.413 299.071 141.403C298.271 140.732 297.011 140.232 294.951 140.232C293.002 140.232 291.816 140.651 291.094 141.174C290.433 141.653 290.247 142.092 290.247 142.704C290.247 143.267 290.389 143.584 290.602 143.83C291.151 144.331 291.852 144.786 292.747 145.171C293.923 145.603 295.582 146.12 297.759 146.723C300.648 147.506 303.089 148.313 305.038 149.153C307.253 150.057 309.148 151.444 310.696 153.283C312.535 155.407 313.371 158.069 313.43 161.004C313.43 161.017 313.43 161.03 313.43 161.042L313.431 161.064C313.431 163.818 312.653 166.363 311.095 168.607C309.543 170.842 307.386 172.532 304.764 173.729L304.737 173.741C302.125 174.902 299.201 175.44 296.031 175.44C292.671 175.44 289.555 174.879 286.733 173.694ZM123.117 126.928C121.093 126.928 119.268 126.193 117.828 124.753C116.388 123.313 115.653 121.489 115.653 119.464C115.653 117.439 116.388 115.615 117.828 114.175C119.268 112.735 121.093 112 123.117 112C125.119 112 126.908 112.755 128.293 114.205C129.713 115.64 130.437 117.454 130.437 119.464C130.437 121.474 129.713 123.288 128.293 124.723C126.908 126.173 125.119 126.928 123.117 126.928Z" stroke="#2A7940" stroke-width="4" stroke-linecap="round" stroke-linejoin="round" mask="url(#path-26-inside-1)"/>
</g>
<defs>
<linearGradient id="paint0_linear" x1="38.3871" y1="253.662" x2="2.91258" y2="211.974" gradientUnits="userSpaceOnUse">
<stop stop-color="#D9EB66" stop-opacity="0.71"/>
<stop offset="0.297988" stop-color="#8EC661"/>
<stop offset="0.880208" stop-color="#91D487"/>
</linearGradient>
<linearGradient id="paint1_linear" x1="195.402" y1="86.2056" x2="221.212" y2="76.5001" gradientUnits="userSpaceOnUse">
<stop stop-color="#D9EB66" stop-opacity="0.71"/>
<stop offset="0.297988" stop-color="#8EC661"/>
<stop offset="0.880208" stop-color="#91D487"/>
</linearGradient>
<linearGradient id="paint2_linear" x1="295.5" y1="218.744" x2="316.797" y2="247.356" gradientUnits="userSpaceOnUse">
<stop stop-color="#D9EB66" stop-opacity="0.71"/>
<stop offset="0.297988" stop-color="#8EC661"/>
<stop offset="0.880208" stop-color="#91D487"/>
</linearGradient>
<linearGradient id="paint3_linear" x1="223.652" y1="170.765" x2="217.63" y2="113.642" gradientUnits="userSpaceOnUse">
<stop stop-color="#D9EB66" stop-opacity="0.71"/>
<stop offset="0.297988" stop-color="#8EC661"/>
<stop offset="0.880208" stop-color="#91D487"/>
</linearGradient>
<clipPath id="clip0">
<rect x="-23" width="421.634" height="272.794" fill="white"/>
</clipPath>
</defs>
</svg>
