<svg width="242" height="62" viewBox="0 0 242 62" fill="none" xmlns="http://www.w3.org/2000/svg">
<mask id="path-1-inside-1" fill="white">
<path fill-rule="evenodd" clip-rule="evenodd" d="M21.8632 44.0236L31.0851 18.8658C31.5086 17.7106 32.6085 16.9425 33.8394 16.9425H40.6683C41.6383 16.9425 42.5455 17.4217 43.0919 18.2227C43.6383 19.0236 43.7533 20.0428 43.3991 20.9452L28.2628 59.5056C27.8222 60.6283 26.7387 61.3667 25.5321 61.3667H18.0696C16.863 61.3667 15.7796 60.6283 15.3389 59.5056L0.202662 20.9452C-0.151585 20.0428 -0.036607 19.0236 0.509818 18.2227C1.05624 17.4217 1.96346 16.9425 2.93339 16.9425H9.83269C11.0616 16.9425 12.1602 17.7081 12.5851 18.8606L21.8632 44.0236ZM59.0111 16.9425C60.6312 16.9425 61.9445 18.2552 61.9445 19.8744V58.4348C61.9445 60.054 60.6312 61.3667 59.0111 61.3667H52.6046C50.9845 61.3667 49.6712 60.054 49.6712 58.4348V19.8744C49.6712 18.2552 50.9845 16.9425 52.6046 16.9425H59.0111ZM102.905 58.5924C102.494 58.8762 102.068 59.1483 101.627 59.4091L101.613 59.4175C98.6099 61.1732 95.1725 62 91.4022 62C87.4685 62 83.8369 61.0232 80.5813 59.0377C77.3297 57.0547 74.7894 54.2774 72.9627 50.7869C71.12 47.266 70.2349 43.3178 70.2349 39.0139C70.2349 34.6751 71.1153 30.7355 72.9762 27.2856C74.8093 23.8404 77.3569 21.1127 80.6126 19.1823L80.6312 19.1714C83.919 17.2544 87.5546 16.3092 91.4726 16.3092C95.2817 16.3092 98.7446 17.1325 101.754 18.8917C102.152 19.1243 102.538 19.3667 102.912 19.6189C103.041 18.1193 104.3 16.9425 105.834 16.9425H112.311C113.931 16.9425 115.245 18.2552 115.245 19.8744V58.4348C115.245 60.054 113.931 61.3667 112.311 61.3667H105.834C104.267 61.3667 102.987 60.1384 102.905 58.5924ZM97.8574 29.1193C97.8337 29.106 97.8101 29.0924 97.7867 29.0785C96.2895 28.1878 94.6292 27.7319 92.7398 27.7319C90.8279 27.7319 89.1515 28.1756 87.6479 29.0344C86.1887 29.8678 84.9883 31.0942 84.053 32.8144C83.1528 34.4698 82.649 36.5044 82.649 39.0139C82.649 41.5715 83.1535 43.6586 84.0595 45.3661C84.994 47.0802 86.1983 48.3361 87.6705 49.2174C89.1684 50.0677 90.8375 50.5069 92.7398 50.5069C94.6478 50.5069 96.3211 50.0651 97.8224 49.2098C99.3429 48.3239 100.563 47.0681 101.491 45.366C102.4 43.6523 102.901 41.5864 102.901 39.0842C102.901 36.5747 102.397 34.5402 101.497 32.8848C100.571 31.1821 99.3599 29.9574 97.8574 29.1193ZM137.914 18.8207C138.097 18.7024 138.282 18.5876 138.471 18.4761L138.496 18.4616C141.147 16.9309 144.237 16.2388 147.637 16.2388C149.257 16.2388 150.571 17.5515 150.571 19.1707V25.7851C150.571 27.4044 149.257 28.717 147.637 28.717H145.948C142.873 28.717 141.089 29.5393 140.026 30.6923C138.921 31.8905 138.11 33.9676 138.11 37.4658V58.4348C138.11 60.054 136.796 61.3667 135.176 61.3667H128.77C127.15 61.3667 125.836 60.054 125.836 58.4348V19.8744C125.836 18.2552 127.15 16.9425 128.77 16.9425H135.176C136.425 16.9425 137.491 17.722 137.914 18.8207ZM194.88 16.9425C196.5 16.9425 197.813 18.2552 197.813 19.8744V58.4348C197.813 60.054 196.5 61.3667 194.88 61.3667H188.473C187.197 61.3667 186.111 60.5524 185.708 59.4153C185.371 59.617 185.024 59.8087 184.668 59.9905L184.646 60.0017C182.044 61.3018 179.195 61.9296 176.153 61.9296C172.741 61.9296 169.577 61.2339 166.724 59.7803C166.717 59.7767 166.71 59.7731 166.703 59.7694C166.697 59.7661 166.691 59.7628 166.684 59.7594C163.768 58.2161 161.469 55.9283 159.801 52.9832C159.795 52.971 159.788 52.9587 159.781 52.9463C158.13 49.9311 157.379 46.3943 157.379 42.4618V19.8744C157.379 18.2552 158.693 16.9425 160.313 16.9425H166.649C168.269 16.9425 169.582 18.2552 169.582 19.8744V41.6174C169.582 44.9273 170.412 47.0455 171.67 48.402C172.933 49.7197 174.729 50.5069 177.42 50.5069C180.197 50.5069 182.058 49.6786 183.372 48.2719C184.665 46.8874 185.54 44.6426 185.54 41.0545V19.8744C185.54 18.2552 186.853 16.9425 188.473 16.9425H194.88ZM215.895 60.2936C215.88 60.2872 215.865 60.2807 215.85 60.274C213.115 59.0712 210.84 57.377 209.138 55.1472L209.116 55.118C207.403 52.8162 206.462 50.1779 206.288 47.2815C206.24 46.4749 206.527 45.6841 207.081 45.0958C207.635 44.5075 208.408 44.174 209.217 44.174H215.834C217.344 44.174 218.607 45.3194 218.754 46.8212C218.859 47.8939 219.309 48.7347 220.275 49.4789C221.284 50.2216 222.749 50.718 224.916 50.718C226.95 50.718 228.17 50.2674 228.904 49.7048C229.655 49.1293 229.868 48.5991 229.868 47.9503C229.868 47.5518 229.783 47.361 229.727 47.2668C229.669 47.1716 229.535 47.003 229.172 46.8101C229.151 46.7991 229.13 46.7878 229.11 46.7763C227.952 46.125 225.93 45.3793 222.857 44.6L222.834 44.5941C219.901 43.825 217.419 43.0365 215.425 42.2189C215.397 42.2073 215.368 42.1952 215.34 42.1827C213.162 41.2087 211.271 39.8018 209.684 37.9892C209.663 37.9648 209.642 37.9401 209.622 37.9151C207.829 35.7258 207.058 33.001 207.058 30.0071C207.058 27.4102 207.844 25.0111 209.364 22.8848C210.89 20.7498 213.002 19.1545 215.556 18.0406C218.149 16.8619 221.031 16.3092 224.142 16.3092C228.914 16.3092 233.077 17.5228 236.352 20.2124C239.691 22.9532 241.42 26.7164 241.644 31.1976C241.684 31.9996 241.394 32.7829 240.84 33.3647C240.286 33.9466 239.518 34.2759 238.715 34.2759H232.308C230.767 34.2759 229.489 33.0844 229.382 31.5481C229.295 30.2991 228.834 29.4465 227.994 28.7643C227.982 28.7547 227.971 28.745 227.959 28.7352C227.177 28.0799 225.945 27.5912 223.93 27.5912C222.025 27.5912 220.866 28.0006 220.16 28.5116C219.513 28.9798 219.331 29.4094 219.331 30.0071C219.331 30.5577 219.47 30.8668 219.679 31.1074C220.215 31.5969 220.9 32.0415 221.776 32.4183C222.925 32.8404 224.548 33.3459 226.677 33.9345C229.502 34.7004 231.888 35.4885 233.794 36.3098C235.959 37.193 237.812 38.5492 239.326 40.3463C241.124 42.4214 241.942 45.023 241.999 47.8917C242 47.9042 242 47.9166 242 47.9291L242 47.9503C242 50.6421 241.24 53.1287 239.716 55.3223C238.198 57.5064 236.09 59.1583 233.526 60.3279L233.499 60.34C230.946 61.4744 228.086 62 224.986 62C221.702 62 218.655 61.4521 215.895 60.2936ZM55.9135 14.5892C53.9338 14.5892 52.1496 13.8711 50.7416 12.4638C49.3336 11.0566 48.6152 9.27321 48.6152 7.29457C48.6152 5.31594 49.3336 3.53258 50.7416 2.12532C52.1496 0.718053 53.9338 0 55.9135 0C57.8709 0 59.6198 0.737504 60.9739 2.15487C62.3625 3.55751 63.0709 5.32977 63.0709 7.29457C63.0709 9.25938 62.3625 11.0316 60.9739 12.4343C59.6198 13.8516 57.8709 14.5892 55.9135 14.5892Z"/>
</mask>
<path fill-rule="evenodd" clip-rule="evenodd" d="M21.8632 44.0236L31.0851 18.8658C31.5086 17.7106 32.6085 16.9425 33.8394 16.9425H40.6683C41.6383 16.9425 42.5455 17.4217 43.0919 18.2227C43.6383 19.0236 43.7533 20.0428 43.3991 20.9452L28.2628 59.5056C27.8222 60.6283 26.7387 61.3667 25.5321 61.3667H18.0696C16.863 61.3667 15.7796 60.6283 15.3389 59.5056L0.202662 20.9452C-0.151585 20.0428 -0.036607 19.0236 0.509818 18.2227C1.05624 17.4217 1.96346 16.9425 2.93339 16.9425H9.83269C11.0616 16.9425 12.1602 17.7081 12.5851 18.8606L21.8632 44.0236ZM59.0111 16.9425C60.6312 16.9425 61.9445 18.2552 61.9445 19.8744V58.4348C61.9445 60.054 60.6312 61.3667 59.0111 61.3667H52.6046C50.9845 61.3667 49.6712 60.054 49.6712 58.4348V19.8744C49.6712 18.2552 50.9845 16.9425 52.6046 16.9425H59.0111ZM102.905 58.5924C102.494 58.8762 102.068 59.1483 101.627 59.4091L101.613 59.4175C98.6099 61.1732 95.1725 62 91.4022 62C87.4685 62 83.8369 61.0232 80.5813 59.0377C77.3297 57.0547 74.7894 54.2774 72.9627 50.7869C71.12 47.266 70.2349 43.3178 70.2349 39.0139C70.2349 34.6751 71.1153 30.7355 72.9762 27.2856C74.8093 23.8404 77.3569 21.1127 80.6126 19.1823L80.6312 19.1714C83.919 17.2544 87.5546 16.3092 91.4726 16.3092C95.2817 16.3092 98.7446 17.1325 101.754 18.8917C102.152 19.1243 102.538 19.3667 102.912 19.6189C103.041 18.1193 104.3 16.9425 105.834 16.9425H112.311C113.931 16.9425 115.245 18.2552 115.245 19.8744V58.4348C115.245 60.054 113.931 61.3667 112.311 61.3667H105.834C104.267 61.3667 102.987 60.1384 102.905 58.5924ZM97.8574 29.1193C97.8337 29.106 97.8101 29.0924 97.7867 29.0785C96.2895 28.1878 94.6292 27.7319 92.7398 27.7319C90.8279 27.7319 89.1515 28.1756 87.6479 29.0344C86.1887 29.8678 84.9883 31.0942 84.053 32.8144C83.1528 34.4698 82.649 36.5044 82.649 39.0139C82.649 41.5715 83.1535 43.6586 84.0595 45.3661C84.994 47.0802 86.1983 48.3361 87.6705 49.2174C89.1684 50.0677 90.8375 50.5069 92.7398 50.5069C94.6478 50.5069 96.3211 50.0651 97.8224 49.2098C99.3429 48.3239 100.563 47.0681 101.491 45.366C102.4 43.6523 102.901 41.5864 102.901 39.0842C102.901 36.5747 102.397 34.5402 101.497 32.8848C100.571 31.1821 99.3599 29.9574 97.8574 29.1193ZM137.914 18.8207C138.097 18.7024 138.282 18.5876 138.471 18.4761L138.496 18.4616C141.147 16.9309 144.237 16.2388 147.637 16.2388C149.257 16.2388 150.571 17.5515 150.571 19.1707V25.7851C150.571 27.4044 149.257 28.717 147.637 28.717H145.948C142.873 28.717 141.089 29.5393 140.026 30.6923C138.921 31.8905 138.11 33.9676 138.11 37.4658V58.4348C138.11 60.054 136.796 61.3667 135.176 61.3667H128.77C127.15 61.3667 125.836 60.054 125.836 58.4348V19.8744C125.836 18.2552 127.15 16.9425 128.77 16.9425H135.176C136.425 16.9425 137.491 17.722 137.914 18.8207ZM194.88 16.9425C196.5 16.9425 197.813 18.2552 197.813 19.8744V58.4348C197.813 60.054 196.5 61.3667 194.88 61.3667H188.473C187.197 61.3667 186.111 60.5524 185.708 59.4153C185.371 59.617 185.024 59.8087 184.668 59.9905L184.646 60.0017C182.044 61.3018 179.195 61.9296 176.153 61.9296C172.741 61.9296 169.577 61.2339 166.724 59.7803C166.717 59.7767 166.71 59.7731 166.703 59.7694C166.697 59.7661 166.691 59.7628 166.684 59.7594C163.768 58.2161 161.469 55.9283 159.801 52.9832C159.795 52.971 159.788 52.9587 159.781 52.9463C158.13 49.9311 157.379 46.3943 157.379 42.4618V19.8744C157.379 18.2552 158.693 16.9425 160.313 16.9425H166.649C168.269 16.9425 169.582 18.2552 169.582 19.8744V41.6174C169.582 44.9273 170.412 47.0455 171.67 48.402C172.933 49.7197 174.729 50.5069 177.42 50.5069C180.197 50.5069 182.058 49.6786 183.372 48.2719C184.665 46.8874 185.54 44.6426 185.54 41.0545V19.8744C185.54 18.2552 186.853 16.9425 188.473 16.9425H194.88ZM215.895 60.2936C215.88 60.2872 215.865 60.2807 215.85 60.274C213.115 59.0712 210.84 57.377 209.138 55.1472L209.116 55.118C207.403 52.8162 206.462 50.1779 206.288 47.2815C206.24 46.4749 206.527 45.6841 207.081 45.0958C207.635 44.5075 208.408 44.174 209.217 44.174H215.834C217.344 44.174 218.607 45.3194 218.754 46.8212C218.859 47.8939 219.309 48.7347 220.275 49.4789C221.284 50.2216 222.749 50.718 224.916 50.718C226.95 50.718 228.17 50.2674 228.904 49.7048C229.655 49.1293 229.868 48.5991 229.868 47.9503C229.868 47.5518 229.783 47.361 229.727 47.2668C229.669 47.1716 229.535 47.003 229.172 46.8101C229.151 46.7991 229.13 46.7878 229.11 46.7763C227.952 46.125 225.93 45.3793 222.857 44.6L222.834 44.5941C219.901 43.825 217.419 43.0365 215.425 42.2189C215.397 42.2073 215.368 42.1952 215.34 42.1827C213.162 41.2087 211.271 39.8018 209.684 37.9892C209.663 37.9648 209.642 37.9401 209.622 37.9151C207.829 35.7258 207.058 33.001 207.058 30.0071C207.058 27.4102 207.844 25.0111 209.364 22.8848C210.89 20.7498 213.002 19.1545 215.556 18.0406C218.149 16.8619 221.031 16.3092 224.142 16.3092C228.914 16.3092 233.077 17.5228 236.352 20.2124C239.691 22.9532 241.42 26.7164 241.644 31.1976C241.684 31.9996 241.394 32.7829 240.84 33.3647C240.286 33.9466 239.518 34.2759 238.715 34.2759H232.308C230.767 34.2759 229.489 33.0844 229.382 31.5481C229.295 30.2991 228.834 29.4465 227.994 28.7643C227.982 28.7547 227.971 28.745 227.959 28.7352C227.177 28.0799 225.945 27.5912 223.93 27.5912C222.025 27.5912 220.866 28.0006 220.16 28.5116C219.513 28.9798 219.331 29.4094 219.331 30.0071C219.331 30.5577 219.47 30.8668 219.679 31.1074C220.215 31.5969 220.9 32.0415 221.776 32.4183C222.925 32.8404 224.548 33.3459 226.677 33.9345C229.502 34.7004 231.888 35.4885 233.794 36.3098C235.959 37.193 237.812 38.5492 239.326 40.3463C241.124 42.4214 241.942 45.023 241.999 47.8917C242 47.9042 242 47.9166 242 47.9291L242 47.9503C242 50.6421 241.24 53.1287 239.716 55.3223C238.198 57.5064 236.09 59.1583 233.526 60.3279L233.499 60.34C230.946 61.4744 228.086 62 224.986 62C221.702 62 218.655 61.4521 215.895 60.2936ZM55.9135 14.5892C53.9338 14.5892 52.1496 13.8711 50.7416 12.4638C49.3336 11.0566 48.6152 9.27321 48.6152 7.29457C48.6152 5.31594 49.3336 3.53258 50.7416 2.12532C52.1496 0.718053 53.9338 0 55.9135 0C57.8709 0 59.6198 0.737504 60.9739 2.15487C62.3625 3.55751 63.0709 5.32977 63.0709 7.29457C63.0709 9.25938 62.3625 11.0316 60.9739 12.4343C59.6198 13.8516 57.8709 14.5892 55.9135 14.5892Z" fill="#91D487"/>
<path fill-rule="evenodd" clip-rule="evenodd" d="M21.8632 44.0236L31.0851 18.8658C31.5086 17.7106 32.6085 16.9425 33.8394 16.9425H40.6683C41.6383 16.9425 42.5455 17.4217 43.0919 18.2227C43.6383 19.0236 43.7533 20.0428 43.3991 20.9452L28.2628 59.5056C27.8222 60.6283 26.7387 61.3667 25.5321 61.3667H18.0696C16.863 61.3667 15.7796 60.6283 15.3389 59.5056L0.202662 20.9452C-0.151585 20.0428 -0.036607 19.0236 0.509818 18.2227C1.05624 17.4217 1.96346 16.9425 2.93339 16.9425H9.83269C11.0616 16.9425 12.1602 17.7081 12.5851 18.8606L21.8632 44.0236ZM59.0111 16.9425C60.6312 16.9425 61.9445 18.2552 61.9445 19.8744V58.4348C61.9445 60.054 60.6312 61.3667 59.0111 61.3667H52.6046C50.9845 61.3667 49.6712 60.054 49.6712 58.4348V19.8744C49.6712 18.2552 50.9845 16.9425 52.6046 16.9425H59.0111ZM102.905 58.5924C102.494 58.8762 102.068 59.1483 101.627 59.4091L101.613 59.4175C98.6099 61.1732 95.1725 62 91.4022 62C87.4685 62 83.8369 61.0232 80.5813 59.0377C77.3297 57.0547 74.7894 54.2774 72.9627 50.7869C71.12 47.266 70.2349 43.3178 70.2349 39.0139C70.2349 34.6751 71.1153 30.7355 72.9762 27.2856C74.8093 23.8404 77.3569 21.1127 80.6126 19.1823L80.6312 19.1714C83.919 17.2544 87.5546 16.3092 91.4726 16.3092C95.2817 16.3092 98.7446 17.1325 101.754 18.8917C102.152 19.1243 102.538 19.3667 102.912 19.6189C103.041 18.1193 104.3 16.9425 105.834 16.9425H112.311C113.931 16.9425 115.245 18.2552 115.245 19.8744V58.4348C115.245 60.054 113.931 61.3667 112.311 61.3667H105.834C104.267 61.3667 102.987 60.1384 102.905 58.5924ZM97.8574 29.1193C97.8337 29.106 97.8101 29.0924 97.7867 29.0785C96.2895 28.1878 94.6292 27.7319 92.7398 27.7319C90.8279 27.7319 89.1515 28.1756 87.6479 29.0344C86.1887 29.8678 84.9883 31.0942 84.053 32.8144C83.1528 34.4698 82.649 36.5044 82.649 39.0139C82.649 41.5715 83.1535 43.6586 84.0595 45.3661C84.994 47.0802 86.1983 48.3361 87.6705 49.2174C89.1684 50.0677 90.8375 50.5069 92.7398 50.5069C94.6478 50.5069 96.3211 50.0651 97.8224 49.2098C99.3429 48.3239 100.563 47.0681 101.491 45.366C102.4 43.6523 102.901 41.5864 102.901 39.0842C102.901 36.5747 102.397 34.5402 101.497 32.8848C100.571 31.1821 99.3599 29.9574 97.8574 29.1193ZM137.914 18.8207C138.097 18.7024 138.282 18.5876 138.471 18.4761L138.496 18.4616C141.147 16.9309 144.237 16.2388 147.637 16.2388C149.257 16.2388 150.571 17.5515 150.571 19.1707V25.7851C150.571 27.4044 149.257 28.717 147.637 28.717H145.948C142.873 28.717 141.089 29.5393 140.026 30.6923C138.921 31.8905 138.11 33.9676 138.11 37.4658V58.4348C138.11 60.054 136.796 61.3667 135.176 61.3667H128.77C127.15 61.3667 125.836 60.054 125.836 58.4348V19.8744C125.836 18.2552 127.15 16.9425 128.77 16.9425H135.176C136.425 16.9425 137.491 17.722 137.914 18.8207ZM194.88 16.9425C196.5 16.9425 197.813 18.2552 197.813 19.8744V58.4348C197.813 60.054 196.5 61.3667 194.88 61.3667H188.473C187.197 61.3667 186.111 60.5524 185.708 59.4153C185.371 59.617 185.024 59.8087 184.668 59.9905L184.646 60.0017C182.044 61.3018 179.195 61.9296 176.153 61.9296C172.741 61.9296 169.577 61.2339 166.724 59.7803C166.717 59.7767 166.71 59.7731 166.703 59.7694C166.697 59.7661 166.691 59.7628 166.684 59.7594C163.768 58.2161 161.469 55.9283 159.801 52.9832C159.795 52.971 159.788 52.9587 159.781 52.9463C158.13 49.9311 157.379 46.3943 157.379 42.4618V19.8744C157.379 18.2552 158.693 16.9425 160.313 16.9425H166.649C168.269 16.9425 169.582 18.2552 169.582 19.8744V41.6174C169.582 44.9273 170.412 47.0455 171.67 48.402C172.933 49.7197 174.729 50.5069 177.42 50.5069C180.197 50.5069 182.058 49.6786 183.372 48.2719C184.665 46.8874 185.54 44.6426 185.54 41.0545V19.8744C185.54 18.2552 186.853 16.9425 188.473 16.9425H194.88ZM215.895 60.2936C215.88 60.2872 215.865 60.2807 215.85 60.274C213.115 59.0712 210.84 57.377 209.138 55.1472L209.116 55.118C207.403 52.8162 206.462 50.1779 206.288 47.2815C206.24 46.4749 206.527 45.6841 207.081 45.0958C207.635 44.5075 208.408 44.174 209.217 44.174H215.834C217.344 44.174 218.607 45.3194 218.754 46.8212C218.859 47.8939 219.309 48.7347 220.275 49.4789C221.284 50.2216 222.749 50.718 224.916 50.718C226.95 50.718 228.17 50.2674 228.904 49.7048C229.655 49.1293 229.868 48.5991 229.868 47.9503C229.868 47.5518 229.783 47.361 229.727 47.2668C229.669 47.1716 229.535 47.003 229.172 46.8101C229.151 46.7991 229.13 46.7878 229.11 46.7763C227.952 46.125 225.93 45.3793 222.857 44.6L222.834 44.5941C219.901 43.825 217.419 43.0365 215.425 42.2189C215.397 42.2073 215.368 42.1952 215.34 42.1827C213.162 41.2087 211.271 39.8018 209.684 37.9892C209.663 37.9648 209.642 37.9401 209.622 37.9151C207.829 35.7258 207.058 33.001 207.058 30.0071C207.058 27.4102 207.844 25.0111 209.364 22.8848C210.89 20.7498 213.002 19.1545 215.556 18.0406C218.149 16.8619 221.031 16.3092 224.142 16.3092C228.914 16.3092 233.077 17.5228 236.352 20.2124C239.691 22.9532 241.42 26.7164 241.644 31.1976C241.684 31.9996 241.394 32.7829 240.84 33.3647C240.286 33.9466 239.518 34.2759 238.715 34.2759H232.308C230.767 34.2759 229.489 33.0844 229.382 31.5481C229.295 30.2991 228.834 29.4465 227.994 28.7643C227.982 28.7547 227.971 28.745 227.959 28.7352C227.177 28.0799 225.945 27.5912 223.93 27.5912C222.025 27.5912 220.866 28.0006 220.16 28.5116C219.513 28.9798 219.331 29.4094 219.331 30.0071C219.331 30.5577 219.47 30.8668 219.679 31.1074C220.215 31.5969 220.9 32.0415 221.776 32.4183C222.925 32.8404 224.548 33.3459 226.677 33.9345C229.502 34.7004 231.888 35.4885 233.794 36.3098C235.959 37.193 237.812 38.5492 239.326 40.3463C241.124 42.4214 241.942 45.023 241.999 47.8917C242 47.9042 242 47.9166 242 47.9291L242 47.9503C242 50.6421 241.24 53.1287 239.716 55.3223C238.198 57.5064 236.09 59.1583 233.526 60.3279L233.499 60.34C230.946 61.4744 228.086 62 224.986 62C221.702 62 218.655 61.4521 215.895 60.2936ZM55.9135 14.5892C53.9338 14.5892 52.1496 13.8711 50.7416 12.4638C49.3336 11.0566 48.6152 9.27321 48.6152 7.29457C48.6152 5.31594 49.3336 3.53258 50.7416 2.12532C52.1496 0.718053 53.9338 0 55.9135 0C57.8709 0 59.6198 0.737504 60.9739 2.15487C62.3625 3.55751 63.0709 5.32977 63.0709 7.29457C63.0709 9.25938 62.3625 11.0316 60.9739 12.4343C59.6198 13.8516 57.8709 14.5892 55.9135 14.5892Z" fill="url(#paint0_linear)"/>
<path fill-rule="evenodd" clip-rule="evenodd" d="M21.8632 44.0236L31.0851 18.8658C31.5086 17.7106 32.6085 16.9425 33.8394 16.9425H40.6683C41.6383 16.9425 42.5455 17.4217 43.0919 18.2227C43.6383 19.0236 43.7533 20.0428 43.3991 20.9452L28.2628 59.5056C27.8222 60.6283 26.7387 61.3667 25.5321 61.3667H18.0696C16.863 61.3667 15.7796 60.6283 15.3389 59.5056L0.202662 20.9452C-0.151585 20.0428 -0.036607 19.0236 0.509818 18.2227C1.05624 17.4217 1.96346 16.9425 2.93339 16.9425H9.83269C11.0616 16.9425 12.1602 17.7081 12.5851 18.8606L21.8632 44.0236ZM59.0111 16.9425C60.6312 16.9425 61.9445 18.2552 61.9445 19.8744V58.4348C61.9445 60.054 60.6312 61.3667 59.0111 61.3667H52.6046C50.9845 61.3667 49.6712 60.054 49.6712 58.4348V19.8744C49.6712 18.2552 50.9845 16.9425 52.6046 16.9425H59.0111ZM102.905 58.5924C102.494 58.8762 102.068 59.1483 101.627 59.4091L101.613 59.4175C98.6099 61.1732 95.1725 62 91.4022 62C87.4685 62 83.8369 61.0232 80.5813 59.0377C77.3297 57.0547 74.7894 54.2774 72.9627 50.7869C71.12 47.266 70.2349 43.3178 70.2349 39.0139C70.2349 34.6751 71.1153 30.7355 72.9762 27.2856C74.8093 23.8404 77.3569 21.1127 80.6126 19.1823L80.6312 19.1714C83.919 17.2544 87.5546 16.3092 91.4726 16.3092C95.2817 16.3092 98.7446 17.1325 101.754 18.8917C102.152 19.1243 102.538 19.3667 102.912 19.6189C103.041 18.1193 104.3 16.9425 105.834 16.9425H112.311C113.931 16.9425 115.245 18.2552 115.245 19.8744V58.4348C115.245 60.054 113.931 61.3667 112.311 61.3667H105.834C104.267 61.3667 102.987 60.1384 102.905 58.5924ZM97.8574 29.1193C97.8337 29.106 97.8101 29.0924 97.7867 29.0785C96.2895 28.1878 94.6292 27.7319 92.7398 27.7319C90.8279 27.7319 89.1515 28.1756 87.6479 29.0344C86.1887 29.8678 84.9883 31.0942 84.053 32.8144C83.1528 34.4698 82.649 36.5044 82.649 39.0139C82.649 41.5715 83.1535 43.6586 84.0595 45.3661C84.994 47.0802 86.1983 48.3361 87.6705 49.2174C89.1684 50.0677 90.8375 50.5069 92.7398 50.5069C94.6478 50.5069 96.3211 50.0651 97.8224 49.2098C99.3429 48.3239 100.563 47.0681 101.491 45.366C102.4 43.6523 102.901 41.5864 102.901 39.0842C102.901 36.5747 102.397 34.5402 101.497 32.8848C100.571 31.1821 99.3599 29.9574 97.8574 29.1193ZM137.914 18.8207C138.097 18.7024 138.282 18.5876 138.471 18.4761L138.496 18.4616C141.147 16.9309 144.237 16.2388 147.637 16.2388C149.257 16.2388 150.571 17.5515 150.571 19.1707V25.7851C150.571 27.4044 149.257 28.717 147.637 28.717H145.948C142.873 28.717 141.089 29.5393 140.026 30.6923C138.921 31.8905 138.11 33.9676 138.11 37.4658V58.4348C138.11 60.054 136.796 61.3667 135.176 61.3667H128.77C127.15 61.3667 125.836 60.054 125.836 58.4348V19.8744C125.836 18.2552 127.15 16.9425 128.77 16.9425H135.176C136.425 16.9425 137.491 17.722 137.914 18.8207ZM194.88 16.9425C196.5 16.9425 197.813 18.2552 197.813 19.8744V58.4348C197.813 60.054 196.5 61.3667 194.88 61.3667H188.473C187.197 61.3667 186.111 60.5524 185.708 59.4153C185.371 59.617 185.024 59.8087 184.668 59.9905L184.646 60.0017C182.044 61.3018 179.195 61.9296 176.153 61.9296C172.741 61.9296 169.577 61.2339 166.724 59.7803C166.717 59.7767 166.71 59.7731 166.703 59.7694C166.697 59.7661 166.691 59.7628 166.684 59.7594C163.768 58.2161 161.469 55.9283 159.801 52.9832C159.795 52.971 159.788 52.9587 159.781 52.9463C158.13 49.9311 157.379 46.3943 157.379 42.4618V19.8744C157.379 18.2552 158.693 16.9425 160.313 16.9425H166.649C168.269 16.9425 169.582 18.2552 169.582 19.8744V41.6174C169.582 44.9273 170.412 47.0455 171.67 48.402C172.933 49.7197 174.729 50.5069 177.42 50.5069C180.197 50.5069 182.058 49.6786 183.372 48.2719C184.665 46.8874 185.54 44.6426 185.54 41.0545V19.8744C185.54 18.2552 186.853 16.9425 188.473 16.9425H194.88ZM215.895 60.2936C215.88 60.2872 215.865 60.2807 215.85 60.274C213.115 59.0712 210.84 57.377 209.138 55.1472L209.116 55.118C207.403 52.8162 206.462 50.1779 206.288 47.2815C206.24 46.4749 206.527 45.6841 207.081 45.0958C207.635 44.5075 208.408 44.174 209.217 44.174H215.834C217.344 44.174 218.607 45.3194 218.754 46.8212C218.859 47.8939 219.309 48.7347 220.275 49.4789C221.284 50.2216 222.749 50.718 224.916 50.718C226.95 50.718 228.17 50.2674 228.904 49.7048C229.655 49.1293 229.868 48.5991 229.868 47.9503C229.868 47.5518 229.783 47.361 229.727 47.2668C229.669 47.1716 229.535 47.003 229.172 46.8101C229.151 46.7991 229.13 46.7878 229.11 46.7763C227.952 46.125 225.93 45.3793 222.857 44.6L222.834 44.5941C219.901 43.825 217.419 43.0365 215.425 42.2189C215.397 42.2073 215.368 42.1952 215.34 42.1827C213.162 41.2087 211.271 39.8018 209.684 37.9892C209.663 37.9648 209.642 37.9401 209.622 37.9151C207.829 35.7258 207.058 33.001 207.058 30.0071C207.058 27.4102 207.844 25.0111 209.364 22.8848C210.89 20.7498 213.002 19.1545 215.556 18.0406C218.149 16.8619 221.031 16.3092 224.142 16.3092C228.914 16.3092 233.077 17.5228 236.352 20.2124C239.691 22.9532 241.42 26.7164 241.644 31.1976C241.684 31.9996 241.394 32.7829 240.84 33.3647C240.286 33.9466 239.518 34.2759 238.715 34.2759H232.308C230.767 34.2759 229.489 33.0844 229.382 31.5481C229.295 30.2991 228.834 29.4465 227.994 28.7643C227.982 28.7547 227.971 28.745 227.959 28.7352C227.177 28.0799 225.945 27.5912 223.93 27.5912C222.025 27.5912 220.866 28.0006 220.16 28.5116C219.513 28.9798 219.331 29.4094 219.331 30.0071C219.331 30.5577 219.47 30.8668 219.679 31.1074C220.215 31.5969 220.9 32.0415 221.776 32.4183C222.925 32.8404 224.548 33.3459 226.677 33.9345C229.502 34.7004 231.888 35.4885 233.794 36.3098C235.959 37.193 237.812 38.5492 239.326 40.3463C241.124 42.4214 241.942 45.023 241.999 47.8917C242 47.9042 242 47.9166 242 47.9291L242 47.9503C242 50.6421 241.24 53.1287 239.716 55.3223C238.198 57.5064 236.09 59.1583 233.526 60.3279L233.499 60.34C230.946 61.4744 228.086 62 224.986 62C221.702 62 218.655 61.4521 215.895 60.2936ZM55.9135 14.5892C53.9338 14.5892 52.1496 13.8711 50.7416 12.4638C49.3336 11.0566 48.6152 9.27321 48.6152 7.29457C48.6152 5.31594 49.3336 3.53258 50.7416 2.12532C52.1496 0.718053 53.9338 0 55.9135 0C57.8709 0 59.6198 0.737504 60.9739 2.15487C62.3625 3.55751 63.0709 5.32977 63.0709 7.29457C63.0709 9.25938 62.3625 11.0316 60.9739 12.4343C59.6198 13.8516 57.8709 14.5892 55.9135 14.5892Z" stroke="#2A7940" stroke-width="2.5616" stroke-linecap="round" stroke-linejoin="round" mask="url(#path-1-inside-1)"/>
<defs>
<linearGradient id="paint0_linear" x1="154.216" y1="57.4316" x2="148.333" y2="1.60409" gradientUnits="userSpaceOnUse">
<stop stop-color="#D9EB66" stop-opacity="0.71"/>
<stop offset="0.297988" stop-color="#8EC661"/>
<stop offset="0.880208" stop-color="#91D487"/>
</linearGradient>
</defs>
</svg>
