<svg width="1057" height="483" viewBox="0 0 1057 483" fill="none" xmlns="http://www.w3.org/2000/svg">
<path d="M113.843 293.038L118.828 299.729L121.446 297.778L116.461 291.088C116.461 291.088 118.624 290.475 118.788 289.354C118.952 288.232 118.577 287.249 117.054 287.027C115.531 286.804 110.004 290.922 109.782 292.445C109.559 293.968 110.394 294.609 111.516 294.772C112.637 294.936 113.843 293.038 113.843 293.038Z" fill="#206AAE"/>
<path d="M101.538 332.477L109.723 330.855L109.088 327.652L100.904 329.274C100.904 329.274 101.282 327.058 100.34 326.427C99.3978 325.797 98.3489 325.713 97.493 326.992C96.637 328.271 97.9768 335.032 99.2559 335.888C100.535 336.744 101.472 336.265 102.103 335.324C102.733 334.382 101.538 332.477 101.538 332.477Z" fill="#206AAE"/>
<path d="M102.801 310.964L110.631 313.847L111.759 310.784L103.929 307.9C103.929 307.9 105.407 306.206 104.932 305.177C104.457 304.148 103.606 303.529 102.209 304.174C100.812 304.819 98.4298 311.287 99.0749 312.684C99.7201 314.082 100.769 314.162 101.798 313.687C102.827 313.212 102.801 310.964 102.801 310.964Z" fill="#206AAE"/>
<path d="M171.327 294.902L164.784 300.079L166.81 302.64L173.353 297.462C173.353 297.462 174.028 299.607 175.154 299.738C176.28 299.869 177.252 299.466 177.43 297.937C177.608 296.408 173.331 291.003 171.802 290.825C170.273 290.647 169.657 291.5 169.526 292.626C169.395 293.752 171.327 294.902 171.327 294.902Z" fill="#206AAE"/>
<path d="M131.548 283.748L133.407 291.882L136.59 291.155L134.731 283.021C134.731 283.021 136.957 283.334 137.56 282.374C138.163 281.414 138.217 280.363 136.913 279.545C135.61 278.727 128.891 280.262 128.072 281.566C127.254 282.869 127.759 283.792 128.719 284.395C129.679 284.997 131.548 283.748 131.548 283.748Z" fill="#206AAE"/>
<path d="M153.088 284.385L150.434 292.295L153.529 293.334L156.184 285.424C156.184 285.424 157.92 286.852 158.935 286.347C159.95 285.843 160.544 284.974 159.858 283.596C159.173 282.218 152.638 280.025 151.26 280.711C149.882 281.396 149.832 282.447 150.337 283.462C150.842 284.477 153.088 284.385 153.088 284.385Z" fill="#206AAE"/>
<path d="M168.26 353.888L163.413 347.097L160.755 348.994L165.603 355.785C165.603 355.785 163.427 356.353 163.241 357.471C163.054 358.589 163.409 359.579 164.927 359.833C166.445 360.086 172.055 356.082 172.308 354.564C172.562 353.046 171.74 352.388 170.622 352.202C169.504 352.015 168.26 353.888 168.26 353.888Z" fill="#206AAE"/>
<path d="M181.368 314.709L173.152 316.163L173.721 319.378L181.937 317.924C181.937 317.924 181.514 320.132 182.442 320.782C183.371 321.431 184.418 321.537 185.3 320.276C186.182 319.014 184.981 312.227 183.719 311.345C182.458 310.464 181.511 310.923 180.862 311.851C180.212 312.78 181.368 314.709 181.368 314.709Z" fill="#206AAE"/>
<path d="M179.666 336.192L171.897 333.149L170.706 336.189L178.475 339.232C178.475 339.232 176.963 340.895 177.417 341.934C177.871 342.972 178.709 343.609 180.119 342.992C181.529 342.376 184.043 335.958 183.426 334.548C182.81 333.137 181.762 333.035 180.724 333.489C179.686 333.943 179.666 336.192 179.666 336.192Z" fill="#206AAE"/>
<path d="M110.826 350.851L117.473 345.808L115.5 343.207L108.853 348.249C108.853 348.249 108.221 346.091 107.099 345.937C105.976 345.783 104.996 346.167 104.787 347.691C104.577 349.216 108.743 354.707 110.268 354.917C111.792 355.126 112.426 354.285 112.58 353.163C112.734 352.04 110.826 350.851 110.826 350.851Z" fill="#206AAE"/>
<path d="M150.369 362.814L148.677 354.644L145.48 355.307L147.172 363.477C147.172 363.477 144.952 363.118 144.33 364.065C143.708 365.013 143.632 366.062 144.919 366.907C146.205 367.752 152.954 366.354 153.799 365.068C154.644 363.781 154.158 362.848 153.211 362.226C152.263 361.604 150.369 362.814 150.369 362.814Z" fill="#206AAE"/>
<path d="M128.846 361.737L131.662 353.883L128.588 352.782L125.773 360.636C125.773 360.636 124.066 359.172 123.041 359.656C122.016 360.14 121.404 360.996 122.061 362.388C122.719 363.78 129.207 366.106 130.598 365.449C131.99 364.791 132.062 363.742 131.578 362.717C131.094 361.692 128.846 361.737 128.846 361.737Z" fill="#206AAE"/>
<path d="M113.843 293.038L118.828 299.729L121.446 297.778L116.461 291.088C116.461 291.088 118.624 290.475 118.788 289.354C118.952 288.232 118.577 287.249 117.054 287.027C115.531 286.804 110.004 290.922 109.782 292.445C109.559 293.968 110.394 294.609 111.516 294.772C112.637 294.936 113.843 293.038 113.843 293.038Z" stroke="#206AAE" stroke-width="0.725526"/>
<path d="M101.538 332.477L109.723 330.855L109.088 327.652L100.904 329.274C100.904 329.274 101.282 327.058 100.34 326.427C99.3978 325.797 98.3489 325.713 97.493 326.992C96.637 328.271 97.9768 335.032 99.2559 335.888C100.535 336.744 101.472 336.265 102.103 335.324C102.733 334.382 101.538 332.477 101.538 332.477Z" stroke="#206AAE" stroke-width="0.725526"/>
<path d="M102.801 310.964L110.631 313.847L111.759 310.784L103.929 307.9C103.929 307.9 105.407 306.206 104.932 305.177C104.457 304.148 103.606 303.529 102.209 304.174C100.812 304.819 98.4298 311.287 99.0749 312.684C99.7201 314.082 100.769 314.162 101.798 313.687C102.827 313.212 102.801 310.964 102.801 310.964Z" stroke="#206AAE" stroke-width="0.725526"/>
<path d="M171.327 294.902L164.784 300.079L166.81 302.64L173.353 297.462C173.353 297.462 174.028 299.607 175.154 299.738C176.28 299.869 177.252 299.466 177.43 297.937C177.608 296.408 173.331 291.003 171.802 290.825C170.273 290.647 169.657 291.5 169.526 292.626C169.395 293.752 171.327 294.902 171.327 294.902Z" stroke="#206AAE" stroke-width="0.725526"/>
<path d="M131.548 283.748L133.407 291.882L136.59 291.155L134.731 283.021C134.731 283.021 136.957 283.334 137.56 282.374C138.163 281.414 138.217 280.363 136.913 279.545C135.61 278.727 128.891 280.262 128.072 281.566C127.254 282.869 127.759 283.792 128.719 284.395C129.679 284.997 131.548 283.748 131.548 283.748Z" stroke="#206AAE" stroke-width="0.725526"/>
<path d="M153.088 284.385L150.434 292.295L153.529 293.334L156.184 285.424C156.184 285.424 157.92 286.852 158.935 286.347C159.95 285.843 160.544 284.974 159.858 283.596C159.173 282.218 152.638 280.025 151.26 280.711C149.882 281.396 149.832 282.447 150.337 283.462C150.842 284.477 153.088 284.385 153.088 284.385Z" stroke="#206AAE" stroke-width="0.725526"/>
<path d="M168.26 353.888L163.413 347.097L160.755 348.994L165.603 355.785C165.603 355.785 163.427 356.353 163.241 357.471C163.054 358.589 163.409 359.579 164.927 359.833C166.445 360.086 172.055 356.082 172.308 354.564C172.562 353.046 171.74 352.388 170.622 352.202C169.504 352.015 168.26 353.888 168.26 353.888Z" stroke="#206AAE" stroke-width="0.725526"/>
<path d="M181.368 314.709L173.152 316.163L173.721 319.378L181.937 317.924C181.937 317.924 181.514 320.132 182.442 320.782C183.371 321.431 184.418 321.537 185.3 320.276C186.182 319.014 184.981 312.227 183.719 311.345C182.458 310.464 181.511 310.923 180.862 311.851C180.212 312.78 181.368 314.709 181.368 314.709Z" stroke="#206AAE" stroke-width="0.725526"/>
<path d="M179.666 336.192L171.897 333.149L170.706 336.189L178.475 339.232C178.475 339.232 176.963 340.895 177.417 341.934C177.871 342.972 178.709 343.609 180.119 342.992C181.529 342.376 184.043 335.958 183.426 334.548C182.81 333.137 181.762 333.035 180.724 333.489C179.686 333.943 179.666 336.192 179.666 336.192Z" stroke="#206AAE" stroke-width="0.725526"/>
<path d="M110.826 350.851L117.473 345.808L115.5 343.207L108.853 348.249C108.853 348.249 108.221 346.091 107.099 345.937C105.976 345.783 104.996 346.167 104.787 347.691C104.577 349.216 108.743 354.707 110.268 354.917C111.792 355.126 112.426 354.285 112.58 353.163C112.734 352.04 110.826 350.851 110.826 350.851Z" stroke="#206AAE" stroke-width="0.725526"/>
<path d="M150.369 362.814L148.677 354.644L145.48 355.307L147.172 363.477C147.172 363.477 144.952 363.118 144.33 364.065C143.708 365.013 143.632 366.062 144.919 366.907C146.205 367.752 152.954 366.354 153.799 365.068C154.644 363.781 154.158 362.848 153.211 362.226C152.263 361.604 150.369 362.814 150.369 362.814Z" stroke="#206AAE" stroke-width="0.725526"/>
<path d="M128.846 361.737L131.662 353.883L128.588 352.782L125.773 360.636C125.773 360.636 124.066 359.172 123.041 359.656C122.016 360.14 121.404 360.996 122.061 362.388C122.719 363.78 129.207 366.106 130.598 365.449C131.99 364.791 132.062 363.742 131.578 362.717C131.094 361.692 128.846 361.737 128.846 361.737Z" stroke="#206AAE" stroke-width="0.725526"/>
<path d="M135.261 291.771C152.749 288.305 169.772 299.829 173.278 317.521C176.784 335.212 165.442 352.357 147.954 355.823C130.467 359.288 113.444 347.764 109.938 330.073C106.432 312.381 117.774 295.236 135.261 291.771Z" fill="#488BC8" stroke="#206AAE" stroke-width="0.725526"/>
<path fill-rule="evenodd" clip-rule="evenodd" d="M149.353 291.765C154.423 296.376 158.12 302.616 159.561 309.884C163.105 327.768 151.639 345.107 133.952 348.612C129.105 349.573 124.294 349.395 119.79 348.262C127.194 354.997 137.526 358.259 148.025 356.178C165.712 352.673 177.178 335.334 173.634 317.45C171.061 304.467 161.285 294.766 149.353 291.765Z" fill="#206AAE"/>
<path d="M124.753 303.099C130.648 301.93 135.464 301.164 136.204 304.898C136.943 308.632 132.059 309.047 126.163 310.216C120.267 311.384 116.673 323.003 115.933 319.269C115.193 315.535 118.857 304.267 124.753 303.099Z" fill="#39125C" fill-opacity="0.5"/>
<path d="M168.34 327.541C167.471 333.489 166.584 338.283 162.818 337.733C159.051 337.182 163.15 329.001 164.02 323.054C164.889 317.106 161.087 309.394 164.853 309.945C168.62 310.495 169.21 321.594 168.34 327.541Z" fill="#39125C" fill-opacity="0.5"/>
<path d="M133.865 350.012C127.866 349.644 123.014 349.163 123.247 345.363C123.48 341.564 128.31 342.403 134.309 342.771C140.309 343.139 143.722 342.553 143.489 346.353C143.256 350.152 139.864 350.38 133.865 350.012Z" fill="#39125C" fill-opacity="0.5"/>
<path d="M133.546 296.179C136.494 295.595 139.357 297.511 139.942 300.459C140.526 303.406 138.61 306.27 135.662 306.854C132.714 307.438 129.85 305.522 129.266 302.574C128.682 299.626 130.598 296.763 133.546 296.179Z" fill="#39125C" fill-opacity="0.5"/>
<path d="M124.659 333.442C126.427 333.092 128.145 334.242 128.496 336.01C128.846 337.779 127.697 339.497 125.928 339.848C124.159 340.198 122.441 339.048 122.091 337.28C121.74 335.511 122.89 333.793 124.659 333.442Z" fill="#39125C" fill-opacity="0.5"/>
<circle cx="144.079" cy="334.402" r="3.26487" transform="rotate(-101.209 144.079 334.402)" fill="#206AAE"/>
<path d="M143.163 329.776C145.717 329.269 148.199 330.93 148.705 333.485C149.212 336.04 147.551 338.521 144.996 339.027C142.441 339.534 139.96 337.873 139.453 335.318C138.947 332.763 140.608 330.282 143.163 329.776Z" fill="#DEDEDE" fill-opacity="0.51"/>
<path d="M146.055 303.315C148.61 302.809 151.091 304.47 151.598 307.024C152.104 309.579 150.443 312.061 147.888 312.567C145.334 313.073 142.852 311.413 142.346 308.858C141.839 306.303 143.5 303.821 146.055 303.315Z" fill="#DEDEDE" fill-opacity="0.51"/>
<path d="M138.328 327.775C140.883 327.269 143.365 328.929 143.871 331.484C144.377 334.039 142.717 336.521 140.162 337.027C137.607 337.533 135.125 335.873 134.619 333.318C134.113 330.763 135.773 328.281 138.328 327.775Z" fill="#DEDEDE" fill-opacity="0.51"/>
<path d="M1038.75 254.387L1027.25 258.292L1028.78 262.791L1040.28 258.885C1040.28 258.885 1040.16 262.155 1041.64 262.884C1043.12 263.613 1044.64 263.534 1045.63 261.525C1046.62 259.517 1043.4 250.02 1041.39 249.03C1039.38 248.04 1038.12 248.91 1037.39 250.389C1036.66 251.868 1038.75 254.387 1038.75 254.387Z" fill="#206AAE"/>
<path d="M989.66 219.689L988.24 231.746L992.958 232.302L994.378 220.245C994.378 220.245 997.277 221.761 998.572 220.739C999.866 219.717 1000.45 218.303 999.065 216.545C997.678 214.787 987.718 213.614 985.96 215.001C984.202 216.389 984.444 217.901 985.466 219.195C986.488 220.49 989.66 219.689 989.66 219.689Z" fill="#206AAE"/>
<path d="M1018.88 231.072L1011.38 240.62L1015.12 243.554L1022.61 234.006C1022.61 234.006 1024.3 236.811 1025.93 236.614C1027.57 236.417 1028.81 235.517 1028.54 233.293C1028.28 231.07 1020.39 224.875 1018.16 225.143C1015.94 225.41 1015.36 226.827 1015.56 228.464C1015.75 230.101 1018.88 231.072 1018.88 231.072Z" fill="#206AAE"/>
<path d="M1010.42 333.136L1006.19 321.759L1001.73 323.418L1005.97 334.795C1005.97 334.795 1002.7 334.769 1002.02 336.269C1001.33 337.768 1001.45 339.295 1003.49 340.226C1005.53 341.157 1014.92 337.656 1015.86 335.62C1016.79 333.583 1015.88 332.348 1014.38 331.663C1012.88 330.977 1010.42 333.136 1010.42 333.136Z" fill="#206AAE"/>
<path d="M1043.68 283.06L1031.59 281.99L1031.17 286.723L1043.26 287.792C1043.26 287.792 1041.83 290.734 1042.89 291.998C1043.95 293.262 1045.38 293.808 1047.1 292.37C1048.81 290.932 1049.7 280.942 1048.26 279.225C1046.82 277.508 1045.32 277.794 1044.05 278.853C1042.79 279.912 1043.68 283.06 1043.68 283.06Z" fill="#206AAE"/>
<path d="M1033.15 312.596L1023.39 305.378L1020.57 309.198L1030.33 316.416C1030.33 316.416 1027.57 318.18 1027.82 319.811C1028.06 321.442 1029 322.654 1031.21 322.322C1033.43 321.99 1039.39 313.926 1039.06 311.711C1038.73 309.496 1037.29 308.956 1035.66 309.2C1034.03 309.445 1033.15 312.596 1033.15 312.596Z" fill="#206AAE"/>
<path d="M930.135 302.472L941.708 298.803L940.272 294.274L928.699 297.944C928.699 297.944 928.887 294.678 927.423 293.919C925.959 293.16 924.428 293.207 923.397 295.195C922.367 297.183 925.398 306.743 927.386 307.774C929.374 308.805 930.652 307.962 931.411 306.498C932.171 305.034 930.135 302.472 930.135 302.472Z" fill="#206AAE"/>
<path d="M978.506 338.166L980.172 326.14L975.466 325.488L973.8 337.514C973.8 337.514 970.932 335.939 969.617 336.934C968.302 337.93 967.686 339.331 969.038 341.117C970.389 342.903 980.323 344.28 982.109 342.928C983.895 341.577 983.684 340.061 982.689 338.745C981.694 337.43 978.506 338.166 978.506 338.166Z" fill="#206AAE"/>
<path d="M949.526 326.189L957.218 316.796L953.543 313.786L945.851 323.179C945.851 323.179 944.225 320.34 942.584 320.503C940.943 320.667 939.686 321.542 939.908 323.77C940.13 325.999 947.89 332.353 950.118 332.131C952.347 331.909 952.957 330.505 952.794 328.864C952.63 327.223 949.526 326.189 949.526 326.189Z" fill="#206AAE"/>
<path d="M960.063 224.318L964.067 235.779L968.552 234.212L964.548 222.751C964.548 222.751 967.818 222.844 968.534 221.358C969.25 219.873 969.159 218.345 967.141 217.372C965.124 216.399 955.656 219.707 954.683 221.724C953.711 223.742 954.591 224.995 956.076 225.711C957.562 226.427 960.063 224.318 960.063 224.318Z" fill="#206AAE"/>
<path d="M925.789 273.705L937.858 275.021L938.373 270.299L926.304 268.983C926.304 268.983 927.795 266.07 926.762 264.785C925.729 263.499 924.31 262.924 922.564 264.327C920.818 265.73 919.731 275.7 921.134 277.445C922.536 279.191 924.046 278.936 925.332 277.903C926.617 276.87 925.789 273.705 925.789 273.705Z" fill="#206AAE"/>
<path d="M936.92 244.39L946.532 251.806L949.434 248.045L939.822 240.629C939.822 240.629 942.612 238.921 942.401 237.285C942.19 235.65 941.279 234.419 939.058 234.706C936.836 234.993 930.71 242.933 930.997 245.154C931.284 247.375 932.705 247.945 934.34 247.734C935.976 247.523 936.92 244.39 936.92 244.39Z" fill="#206AAE"/>
<path d="M1038.75 254.387L1027.25 258.292L1028.78 262.791L1040.28 258.885C1040.28 258.885 1040.16 262.155 1041.64 262.884C1043.12 263.613 1044.64 263.534 1045.63 261.525C1046.62 259.517 1043.4 250.02 1041.39 249.03C1039.38 248.04 1038.12 248.91 1037.39 250.389C1036.66 251.868 1038.75 254.387 1038.75 254.387Z" stroke="#206AAE" stroke-width="1.0557"/>
<path d="M989.66 219.689L988.24 231.746L992.958 232.302L994.378 220.245C994.378 220.245 997.277 221.761 998.572 220.739C999.866 219.717 1000.45 218.303 999.065 216.545C997.678 214.787 987.718 213.614 985.96 215.001C984.202 216.389 984.444 217.901 985.466 219.195C986.488 220.49 989.66 219.689 989.66 219.689Z" stroke="#206AAE" stroke-width="1.0557"/>
<path d="M1018.88 231.072L1011.38 240.62L1015.12 243.554L1022.61 234.006C1022.61 234.006 1024.3 236.811 1025.93 236.614C1027.57 236.417 1028.81 235.517 1028.54 233.293C1028.28 231.07 1020.39 224.875 1018.16 225.143C1015.94 225.41 1015.36 226.827 1015.56 228.464C1015.75 230.101 1018.88 231.072 1018.88 231.072Z" stroke="#206AAE" stroke-width="1.0557"/>
<path d="M1010.42 333.136L1006.19 321.759L1001.73 323.418L1005.97 334.795C1005.97 334.795 1002.7 334.769 1002.02 336.269C1001.33 337.768 1001.45 339.295 1003.49 340.226C1005.53 341.157 1014.92 337.656 1015.86 335.62C1016.79 333.583 1015.88 332.348 1014.38 331.663C1012.88 330.977 1010.42 333.136 1010.42 333.136Z" stroke="#206AAE" stroke-width="1.0557"/>
<path d="M1043.68 283.06L1031.59 281.99L1031.17 286.723L1043.26 287.792C1043.26 287.792 1041.83 290.734 1042.89 291.998C1043.95 293.262 1045.38 293.808 1047.1 292.37C1048.81 290.932 1049.7 280.942 1048.26 279.225C1046.82 277.508 1045.32 277.794 1044.05 278.853C1042.79 279.912 1043.68 283.06 1043.68 283.06Z" stroke="#206AAE" stroke-width="1.0557"/>
<path d="M1033.15 312.596L1023.39 305.378L1020.57 309.198L1030.33 316.416C1030.33 316.416 1027.57 318.18 1027.82 319.811C1028.06 321.442 1029 322.654 1031.21 322.322C1033.43 321.99 1039.39 313.926 1039.06 311.711C1038.73 309.496 1037.29 308.956 1035.66 309.2C1034.03 309.445 1033.15 312.596 1033.15 312.596Z" stroke="#206AAE" stroke-width="1.0557"/>
<path d="M930.135 302.472L941.708 298.803L940.272 294.274L928.699 297.944C928.699 297.944 928.887 294.678 927.423 293.919C925.959 293.16 924.428 293.207 923.397 295.195C922.367 297.183 925.398 306.743 927.386 307.774C929.374 308.805 930.652 307.962 931.411 306.498C932.171 305.034 930.135 302.472 930.135 302.472Z" stroke="#206AAE" stroke-width="1.0557"/>
<path d="M978.506 338.166L980.172 326.14L975.466 325.488L973.8 337.514C973.8 337.514 970.932 335.939 969.617 336.934C968.302 337.93 967.686 339.331 969.038 341.117C970.389 342.903 980.323 344.28 982.109 342.928C983.895 341.577 983.684 340.061 982.689 338.745C981.694 337.43 978.506 338.166 978.506 338.166Z" stroke="#206AAE" stroke-width="1.0557"/>
<path d="M949.526 326.189L957.218 316.796L953.543 313.786L945.851 323.179C945.851 323.179 944.225 320.34 942.584 320.503C940.943 320.667 939.686 321.542 939.908 323.77C940.13 325.999 947.89 332.353 950.118 332.131C952.347 331.909 952.957 330.505 952.794 328.864C952.63 327.223 949.526 326.189 949.526 326.189Z" stroke="#206AAE" stroke-width="1.0557"/>
<path d="M960.063 224.318L964.067 235.779L968.552 234.212L964.548 222.751C964.548 222.751 967.818 222.844 968.534 221.358C969.25 219.873 969.159 218.345 967.141 217.372C965.124 216.399 955.656 219.707 954.683 221.724C953.711 223.742 954.591 224.995 956.076 225.711C957.562 226.427 960.063 224.318 960.063 224.318Z" stroke="#206AAE" stroke-width="1.0557"/>
<path d="M925.789 273.705L937.858 275.021L938.373 270.299L926.304 268.983C926.304 268.983 927.795 266.07 926.762 264.785C925.729 263.499 924.31 262.924 922.564 264.327C920.818 265.73 919.731 275.7 921.134 277.445C922.536 279.191 924.046 278.936 925.332 277.903C926.617 276.87 925.789 273.705 925.789 273.705Z" stroke="#206AAE" stroke-width="1.0557"/>
<path d="M936.92 244.39L946.532 251.806L949.434 248.045L939.822 240.629C939.822 240.629 942.612 238.921 942.401 237.285C942.19 235.65 941.279 234.419 939.058 234.706C936.836 234.993 930.71 242.933 930.997 245.154C931.284 247.375 932.705 247.945 934.34 247.734C935.976 247.523 936.92 244.39 936.92 244.39Z" stroke="#206AAE" stroke-width="1.0557"/>
<path d="M1030.91 284.608C1027.88 310.37 1004.3 328.777 978.236 325.707C952.173 322.638 933.516 299.256 936.551 273.494C939.585 247.732 963.164 229.325 989.226 232.394C1015.29 235.464 1033.95 258.846 1030.91 284.608Z" fill="#488BC8" stroke="#206AAE" stroke-width="1.0557"/>
<path fill-rule="evenodd" clip-rule="evenodd" d="M1024.61 304.119C1015.95 309.072 1005.66 311.397 994.952 310.136C968.605 307.033 949.735 283.394 952.804 257.337C953.645 250.197 956.046 243.615 959.631 237.887C946.99 245.122 937.848 257.965 936.026 273.432C932.957 299.489 951.828 323.128 978.174 326.231C997.301 328.484 1015.11 319.294 1024.61 304.119Z" fill="#206AAE"/>
<path d="M1019.94 264.985C1018.91 273.671 1017.82 280.681 1012.32 280.033C1006.82 279.385 1008.43 272.436 1009.45 263.75C1010.47 255.065 995.997 244.885 1001.5 245.533C1007 246.18 1020.96 256.299 1019.94 264.985Z" fill="#39125C" fill-opacity="0.5"/>
<path d="M966.574 314.383C958.73 310.516 952.489 307.141 954.939 302.173C957.388 297.205 966.878 306.544 974.723 310.411C982.567 314.278 994.947 312.468 992.498 317.437C990.048 322.405 974.419 318.251 966.574 314.383Z" fill="#39125C" fill-opacity="0.5"/>
<path d="M950.905 256.59C954.101 248.449 956.941 241.948 962.097 243.972C967.252 245.996 963.928 252.308 960.731 260.448C957.535 268.589 956.817 273.577 951.661 271.553C946.505 269.529 947.708 264.731 950.905 256.59Z" fill="#39125C" fill-opacity="0.5"/>
<path d="M1025.58 280.259C1025.07 284.602 1021.13 287.707 1016.79 287.196C1012.44 286.684 1009.34 282.749 1009.85 278.406C1010.36 274.064 1014.3 270.958 1018.64 271.469C1022.98 271.981 1026.09 275.916 1025.58 280.259Z" fill="#39125C" fill-opacity="0.5"/>
<path d="M977.968 251.265C977.661 253.871 975.3 255.735 972.694 255.428C970.089 255.121 968.225 252.76 968.532 250.154C968.839 247.548 971.2 245.685 973.806 245.992C976.411 246.299 978.275 248.66 977.968 251.265Z" fill="#39125C" fill-opacity="0.5"/>
<circle cx="967.943" cy="277.722" r="4.75067" transform="rotate(6.71721 967.943 277.722)" fill="#206AAE"/>
<path d="M974.757 278.525C974.314 282.289 970.904 284.981 967.14 284.538C963.376 284.094 960.684 280.684 961.127 276.92C961.571 273.156 964.981 270.465 968.745 270.908C972.509 271.351 975.201 274.762 974.757 278.525Z" fill="#DEDEDE" fill-opacity="0.51"/>
<path d="M1010.1 294.38C1009.65 298.144 1006.24 300.836 1002.48 300.393C998.714 299.949 996.022 296.539 996.465 292.775C996.908 289.011 1000.32 286.32 1004.08 286.763C1007.85 287.206 1010.54 290.617 1010.1 294.38Z" fill="#DEDEDE" fill-opacity="0.51"/>
<path d="M979.692 272.729C979.249 276.492 975.838 279.184 972.075 278.741C968.311 278.298 965.619 274.887 966.062 271.123C966.505 267.36 969.916 264.668 973.68 265.111C977.444 265.554 980.135 268.965 979.692 272.729Z" fill="#DEDEDE" fill-opacity="0.51"/>
<mask id="path-13-inside-1" fill="white">
<path fill-rule="evenodd" clip-rule="evenodd" d="M377.243 224.059L393.796 178.88C394.556 176.805 396.53 175.426 398.74 175.426L410.997 175.426C412.738 175.426 414.366 176.287 415.347 177.725C416.328 179.163 416.534 180.994 415.899 182.614L388.73 251.863C387.939 253.879 385.994 255.205 383.829 255.205L370.434 255.205C368.268 255.205 366.323 253.879 365.532 251.863L338.364 182.614C337.728 180.994 337.934 179.163 338.915 177.725C339.896 176.287 341.524 175.426 343.265 175.426L355.649 175.426C357.855 175.426 359.827 176.801 360.589 178.871L377.243 224.059ZM443.921 175.426C446.829 175.426 449.186 177.783 449.186 180.691L449.186 249.939C449.186 252.847 446.829 255.205 443.921 255.205L432.422 255.205C429.514 255.205 427.157 252.847 427.157 249.939L427.157 180.691C427.157 177.783 429.514 175.426 432.422 175.426L443.921 175.426ZM522.708 250.223C521.97 250.732 521.205 251.221 520.415 251.689L520.389 251.704C514.999 254.857 508.829 256.342 502.061 256.342C495.001 256.342 488.482 254.588 482.639 251.022C476.802 247.461 472.242 242.473 468.963 236.205C465.656 229.882 464.067 222.792 464.067 215.063C464.067 207.271 465.648 200.196 468.988 194.001C472.278 187.814 476.851 182.915 482.695 179.448L482.728 179.429C488.629 175.986 495.155 174.289 502.188 174.289C509.025 174.289 515.24 175.767 520.642 178.926C521.356 179.344 522.049 179.78 522.721 180.232C522.953 177.539 525.213 175.426 527.966 175.426L539.592 175.426C542.5 175.426 544.857 177.783 544.857 180.691L544.857 249.939C544.857 252.847 542.5 255.205 539.592 255.205L527.966 255.205C525.153 255.205 522.855 252.999 522.708 250.223ZM513.648 197.294C513.605 197.27 513.563 197.245 513.521 197.22C510.834 195.621 507.854 194.802 504.462 194.802C501.03 194.802 498.021 195.599 495.322 197.141C492.703 198.638 490.549 200.84 488.87 203.929C487.254 206.902 486.35 210.556 486.35 215.063C486.35 219.656 487.255 223.404 488.882 226.47C490.559 229.549 492.721 231.804 495.363 233.386C498.052 234.914 501.048 235.702 504.462 235.702C507.887 235.702 510.89 234.909 513.585 233.373C516.314 231.782 518.503 229.527 520.169 226.47C521.802 223.392 522.701 219.682 522.701 215.189C522.701 210.682 521.797 207.029 520.181 204.056C518.519 200.998 516.345 198.799 513.648 197.294ZM585.548 178.799C585.875 178.587 586.208 178.38 586.547 178.18L586.592 178.154C591.349 175.405 596.896 174.162 603 174.162C605.907 174.162 608.265 176.52 608.265 179.428L608.265 191.306C608.265 194.214 605.907 196.571 603 196.571L599.967 196.571C594.449 196.571 591.246 198.048 589.338 200.118C587.355 202.27 585.898 206 585.898 212.283L585.898 249.939C585.898 252.847 583.541 255.205 580.633 255.205L569.134 255.205C566.226 255.205 563.868 252.847 563.868 249.939L563.868 180.691C563.868 177.783 566.226 175.426 569.134 175.426L580.633 175.426C582.874 175.426 584.788 176.826 585.548 178.799ZM687.797 175.426C690.705 175.426 693.062 177.783 693.062 180.691L693.062 249.939C693.062 252.847 690.705 255.205 687.797 255.205L676.297 255.205C674.007 255.205 672.058 253.742 671.334 251.7C670.729 252.063 670.106 252.407 669.467 252.733L669.427 252.753C664.758 255.088 659.645 256.216 654.184 256.216C648.06 256.216 642.381 254.966 637.26 252.356C637.247 252.349 637.235 252.343 637.222 252.336C637.211 252.33 637.199 252.324 637.188 252.318C631.953 249.547 627.827 245.438 624.834 240.149C624.821 240.127 624.809 240.105 624.797 240.083C621.834 234.668 620.486 228.317 620.486 221.255L620.486 180.691C620.486 177.783 622.843 175.426 625.751 175.426L637.124 175.426C640.032 175.426 642.389 177.783 642.389 180.691L642.389 219.738C642.389 225.682 643.879 229.486 646.137 231.922C648.404 234.289 651.628 235.702 656.458 235.702C661.443 235.702 664.783 234.215 667.141 231.689C669.461 229.202 671.032 225.171 671.032 218.727L671.032 180.691C671.032 177.783 673.39 175.426 676.297 175.426L687.797 175.426ZM725.518 253.278C725.491 253.266 725.464 253.254 725.437 253.242C720.528 251.082 716.445 248.04 713.389 244.035L713.349 243.983C710.276 239.849 708.587 235.111 708.275 229.91C708.188 228.461 708.703 227.041 709.698 225.985C710.693 224.928 712.08 224.329 713.531 224.329L725.409 224.329C728.119 224.329 730.386 226.386 730.65 229.083C730.837 231.01 731.645 232.52 733.38 233.856C735.191 235.19 737.821 236.081 741.71 236.081C745.361 236.081 747.551 235.272 748.869 234.262C750.217 233.228 750.598 232.276 750.598 231.111C750.598 230.395 750.447 230.053 750.345 229.884C750.242 229.713 750.001 229.41 749.349 229.063C749.312 229.044 749.275 229.023 749.238 229.003C747.159 227.833 743.531 226.494 738.014 225.094L737.974 225.084C732.708 223.703 728.253 222.287 724.674 220.818C724.623 220.798 724.573 220.776 724.523 220.753C720.613 219.004 717.218 216.478 714.37 213.222C714.332 213.179 714.294 213.134 714.258 213.089C711.041 209.158 709.656 204.265 709.656 198.888C709.656 194.224 711.068 189.916 713.795 186.097C716.534 182.263 720.326 179.398 724.909 177.398C729.565 175.281 734.738 174.289 740.32 174.289C748.886 174.289 756.358 176.468 762.238 181.298C768.23 186.22 771.334 192.978 771.737 201.026C771.809 202.466 771.287 203.873 770.293 204.918C769.299 205.963 767.92 206.554 766.478 206.554L754.979 206.554C752.213 206.554 749.919 204.414 749.726 201.655C749.57 199.412 748.744 197.881 747.236 196.656C747.214 196.639 747.193 196.621 747.172 196.604C745.769 195.427 743.557 194.549 739.941 194.549C736.522 194.549 734.44 195.285 733.173 196.202C732.012 197.043 731.685 197.815 731.685 198.888C731.685 199.877 731.936 200.432 732.31 200.864C733.272 201.743 734.502 202.541 736.074 203.218C738.137 203.976 741.05 204.884 744.871 205.941C749.941 207.316 754.225 208.732 757.646 210.207C761.532 211.793 764.859 214.228 767.575 217.455C770.803 221.182 772.271 225.854 772.374 231.006C772.374 231.028 772.375 231.051 772.375 231.073L772.375 231.111C772.375 235.945 771.011 240.411 768.275 244.35C765.551 248.272 761.766 251.239 757.165 253.339L757.117 253.361C752.533 255.398 747.4 256.342 741.837 256.342C735.941 256.342 730.472 255.358 725.518 253.278ZM438.361 171.2C434.808 171.2 431.605 169.91 429.078 167.383C426.551 164.856 425.261 161.653 425.261 158.1C425.261 154.547 426.551 151.344 429.078 148.817C431.605 146.29 434.808 145 438.361 145C441.875 145 445.014 146.324 447.444 148.87C449.937 151.389 451.208 154.571 451.208 158.1C451.208 161.628 449.937 164.811 447.444 167.33C445.014 169.875 441.875 171.2 438.361 171.2Z"/>
</mask>
<path fill-rule="evenodd" clip-rule="evenodd" d="M377.243 224.059L393.796 178.88C394.556 176.805 396.53 175.426 398.74 175.426L410.997 175.426C412.738 175.426 414.366 176.287 415.347 177.725C416.328 179.163 416.534 180.994 415.899 182.614L388.73 251.863C387.939 253.879 385.994 255.205 383.829 255.205L370.434 255.205C368.268 255.205 366.323 253.879 365.532 251.863L338.364 182.614C337.728 180.994 337.934 179.163 338.915 177.725C339.896 176.287 341.524 175.426 343.265 175.426L355.649 175.426C357.855 175.426 359.827 176.801 360.589 178.871L377.243 224.059ZM443.921 175.426C446.829 175.426 449.186 177.783 449.186 180.691L449.186 249.939C449.186 252.847 446.829 255.205 443.921 255.205L432.422 255.205C429.514 255.205 427.157 252.847 427.157 249.939L427.157 180.691C427.157 177.783 429.514 175.426 432.422 175.426L443.921 175.426ZM522.708 250.223C521.97 250.732 521.205 251.221 520.415 251.689L520.389 251.704C514.999 254.857 508.829 256.342 502.061 256.342C495.001 256.342 488.482 254.588 482.639 251.022C476.802 247.461 472.242 242.473 468.963 236.205C465.656 229.882 464.067 222.792 464.067 215.063C464.067 207.271 465.648 200.196 468.988 194.001C472.278 187.814 476.851 182.915 482.695 179.448L482.728 179.429C488.629 175.986 495.155 174.289 502.188 174.289C509.025 174.289 515.24 175.767 520.642 178.926C521.356 179.344 522.049 179.78 522.721 180.232C522.953 177.539 525.213 175.426 527.966 175.426L539.592 175.426C542.5 175.426 544.857 177.783 544.857 180.691L544.857 249.939C544.857 252.847 542.5 255.205 539.592 255.205L527.966 255.205C525.153 255.205 522.855 252.999 522.708 250.223ZM513.648 197.294C513.605 197.27 513.563 197.245 513.521 197.22C510.834 195.621 507.854 194.802 504.462 194.802C501.03 194.802 498.021 195.599 495.322 197.141C492.703 198.638 490.549 200.84 488.87 203.929C487.254 206.902 486.35 210.556 486.35 215.063C486.35 219.656 487.255 223.404 488.882 226.47C490.559 229.549 492.721 231.804 495.363 233.386C498.052 234.914 501.048 235.702 504.462 235.702C507.887 235.702 510.89 234.909 513.585 233.373C516.314 231.782 518.503 229.527 520.169 226.47C521.802 223.392 522.701 219.682 522.701 215.189C522.701 210.682 521.797 207.029 520.181 204.056C518.519 200.998 516.345 198.799 513.648 197.294ZM585.548 178.799C585.875 178.587 586.208 178.38 586.547 178.18L586.592 178.154C591.349 175.405 596.896 174.162 603 174.162C605.907 174.162 608.265 176.52 608.265 179.428L608.265 191.306C608.265 194.214 605.907 196.571 603 196.571L599.967 196.571C594.449 196.571 591.246 198.048 589.338 200.118C587.355 202.27 585.898 206 585.898 212.283L585.898 249.939C585.898 252.847 583.541 255.205 580.633 255.205L569.134 255.205C566.226 255.205 563.868 252.847 563.868 249.939L563.868 180.691C563.868 177.783 566.226 175.426 569.134 175.426L580.633 175.426C582.874 175.426 584.788 176.826 585.548 178.799ZM687.797 175.426C690.705 175.426 693.062 177.783 693.062 180.691L693.062 249.939C693.062 252.847 690.705 255.205 687.797 255.205L676.297 255.205C674.007 255.205 672.058 253.742 671.334 251.7C670.729 252.063 670.106 252.407 669.467 252.733L669.427 252.753C664.758 255.088 659.645 256.216 654.184 256.216C648.06 256.216 642.381 254.966 637.26 252.356C637.247 252.349 637.235 252.343 637.222 252.336C637.211 252.33 637.199 252.324 637.188 252.318C631.953 249.547 627.827 245.438 624.834 240.149C624.821 240.127 624.809 240.105 624.797 240.083C621.834 234.668 620.486 228.317 620.486 221.255L620.486 180.691C620.486 177.783 622.843 175.426 625.751 175.426L637.124 175.426C640.032 175.426 642.389 177.783 642.389 180.691L642.389 219.738C642.389 225.682 643.879 229.486 646.137 231.922C648.404 234.289 651.628 235.702 656.458 235.702C661.443 235.702 664.783 234.215 667.141 231.689C669.461 229.202 671.032 225.171 671.032 218.727L671.032 180.691C671.032 177.783 673.39 175.426 676.297 175.426L687.797 175.426ZM725.518 253.278C725.491 253.266 725.464 253.254 725.437 253.242C720.528 251.082 716.445 248.04 713.389 244.035L713.349 243.983C710.276 239.849 708.587 235.111 708.275 229.91C708.188 228.461 708.703 227.041 709.698 225.985C710.693 224.928 712.08 224.329 713.531 224.329L725.409 224.329C728.119 224.329 730.386 226.386 730.65 229.083C730.837 231.01 731.645 232.52 733.38 233.856C735.191 235.19 737.821 236.081 741.71 236.081C745.361 236.081 747.551 235.272 748.869 234.262C750.217 233.228 750.598 232.276 750.598 231.111C750.598 230.395 750.447 230.053 750.345 229.884C750.242 229.713 750.001 229.41 749.349 229.063C749.312 229.044 749.275 229.023 749.238 229.003C747.159 227.833 743.531 226.494 738.014 225.094L737.974 225.084C732.708 223.703 728.253 222.287 724.674 220.818C724.623 220.798 724.573 220.776 724.523 220.753C720.613 219.004 717.218 216.478 714.37 213.222C714.332 213.179 714.294 213.134 714.258 213.089C711.041 209.158 709.656 204.265 709.656 198.888C709.656 194.224 711.068 189.916 713.795 186.097C716.534 182.263 720.326 179.398 724.909 177.398C729.565 175.281 734.738 174.289 740.32 174.289C748.886 174.289 756.358 176.468 762.238 181.298C768.23 186.22 771.334 192.978 771.737 201.026C771.809 202.466 771.287 203.873 770.293 204.918C769.299 205.963 767.92 206.554 766.478 206.554L754.979 206.554C752.213 206.554 749.919 204.414 749.726 201.655C749.57 199.412 748.744 197.881 747.236 196.656C747.214 196.639 747.193 196.621 747.172 196.604C745.769 195.427 743.557 194.549 739.941 194.549C736.522 194.549 734.44 195.285 733.173 196.202C732.012 197.043 731.685 197.815 731.685 198.888C731.685 199.877 731.936 200.432 732.31 200.864C733.272 201.743 734.502 202.541 736.074 203.218C738.137 203.976 741.05 204.884 744.871 205.941C749.941 207.316 754.225 208.732 757.646 210.207C761.532 211.793 764.859 214.228 767.575 217.455C770.803 221.182 772.271 225.854 772.374 231.006C772.374 231.028 772.375 231.051 772.375 231.073L772.375 231.111C772.375 235.945 771.011 240.411 768.275 244.35C765.551 248.272 761.766 251.239 757.165 253.339L757.117 253.361C752.533 255.398 747.4 256.342 741.837 256.342C735.941 256.342 730.472 255.358 725.518 253.278ZM438.361 171.2C434.808 171.2 431.605 169.91 429.078 167.383C426.551 164.856 425.261 161.653 425.261 158.1C425.261 154.547 426.551 151.344 429.078 148.817C431.605 146.29 434.808 145 438.361 145C441.875 145 445.014 146.324 447.444 148.87C449.937 151.389 451.208 154.571 451.208 158.1C451.208 161.628 449.937 164.811 447.444 167.33C445.014 169.875 441.875 171.2 438.361 171.2Z" fill="#91D487"/>
<path fill-rule="evenodd" clip-rule="evenodd" d="M377.243 224.059L393.796 178.88C394.556 176.805 396.53 175.426 398.74 175.426L410.997 175.426C412.738 175.426 414.366 176.287 415.347 177.725C416.328 179.163 416.534 180.994 415.899 182.614L388.73 251.863C387.939 253.879 385.994 255.205 383.829 255.205L370.434 255.205C368.268 255.205 366.323 253.879 365.532 251.863L338.364 182.614C337.728 180.994 337.934 179.163 338.915 177.725C339.896 176.287 341.524 175.426 343.265 175.426L355.649 175.426C357.855 175.426 359.827 176.801 360.589 178.871L377.243 224.059ZM443.921 175.426C446.829 175.426 449.186 177.783 449.186 180.691L449.186 249.939C449.186 252.847 446.829 255.205 443.921 255.205L432.422 255.205C429.514 255.205 427.157 252.847 427.157 249.939L427.157 180.691C427.157 177.783 429.514 175.426 432.422 175.426L443.921 175.426ZM522.708 250.223C521.97 250.732 521.205 251.221 520.415 251.689L520.389 251.704C514.999 254.857 508.829 256.342 502.061 256.342C495.001 256.342 488.482 254.588 482.639 251.022C476.802 247.461 472.242 242.473 468.963 236.205C465.656 229.882 464.067 222.792 464.067 215.063C464.067 207.271 465.648 200.196 468.988 194.001C472.278 187.814 476.851 182.915 482.695 179.448L482.728 179.429C488.629 175.986 495.155 174.289 502.188 174.289C509.025 174.289 515.24 175.767 520.642 178.926C521.356 179.344 522.049 179.78 522.721 180.232C522.953 177.539 525.213 175.426 527.966 175.426L539.592 175.426C542.5 175.426 544.857 177.783 544.857 180.691L544.857 249.939C544.857 252.847 542.5 255.205 539.592 255.205L527.966 255.205C525.153 255.205 522.855 252.999 522.708 250.223ZM513.648 197.294C513.605 197.27 513.563 197.245 513.521 197.22C510.834 195.621 507.854 194.802 504.462 194.802C501.03 194.802 498.021 195.599 495.322 197.141C492.703 198.638 490.549 200.84 488.87 203.929C487.254 206.902 486.35 210.556 486.35 215.063C486.35 219.656 487.255 223.404 488.882 226.47C490.559 229.549 492.721 231.804 495.363 233.386C498.052 234.914 501.048 235.702 504.462 235.702C507.887 235.702 510.89 234.909 513.585 233.373C516.314 231.782 518.503 229.527 520.169 226.47C521.802 223.392 522.701 219.682 522.701 215.189C522.701 210.682 521.797 207.029 520.181 204.056C518.519 200.998 516.345 198.799 513.648 197.294ZM585.548 178.799C585.875 178.587 586.208 178.38 586.547 178.18L586.592 178.154C591.349 175.405 596.896 174.162 603 174.162C605.907 174.162 608.265 176.52 608.265 179.428L608.265 191.306C608.265 194.214 605.907 196.571 603 196.571L599.967 196.571C594.449 196.571 591.246 198.048 589.338 200.118C587.355 202.27 585.898 206 585.898 212.283L585.898 249.939C585.898 252.847 583.541 255.205 580.633 255.205L569.134 255.205C566.226 255.205 563.868 252.847 563.868 249.939L563.868 180.691C563.868 177.783 566.226 175.426 569.134 175.426L580.633 175.426C582.874 175.426 584.788 176.826 585.548 178.799ZM687.797 175.426C690.705 175.426 693.062 177.783 693.062 180.691L693.062 249.939C693.062 252.847 690.705 255.205 687.797 255.205L676.297 255.205C674.007 255.205 672.058 253.742 671.334 251.7C670.729 252.063 670.106 252.407 669.467 252.733L669.427 252.753C664.758 255.088 659.645 256.216 654.184 256.216C648.06 256.216 642.381 254.966 637.26 252.356C637.247 252.349 637.235 252.343 637.222 252.336C637.211 252.33 637.199 252.324 637.188 252.318C631.953 249.547 627.827 245.438 624.834 240.149C624.821 240.127 624.809 240.105 624.797 240.083C621.834 234.668 620.486 228.317 620.486 221.255L620.486 180.691C620.486 177.783 622.843 175.426 625.751 175.426L637.124 175.426C640.032 175.426 642.389 177.783 642.389 180.691L642.389 219.738C642.389 225.682 643.879 229.486 646.137 231.922C648.404 234.289 651.628 235.702 656.458 235.702C661.443 235.702 664.783 234.215 667.141 231.689C669.461 229.202 671.032 225.171 671.032 218.727L671.032 180.691C671.032 177.783 673.39 175.426 676.297 175.426L687.797 175.426ZM725.518 253.278C725.491 253.266 725.464 253.254 725.437 253.242C720.528 251.082 716.445 248.04 713.389 244.035L713.349 243.983C710.276 239.849 708.587 235.111 708.275 229.91C708.188 228.461 708.703 227.041 709.698 225.985C710.693 224.928 712.08 224.329 713.531 224.329L725.409 224.329C728.119 224.329 730.386 226.386 730.65 229.083C730.837 231.01 731.645 232.52 733.38 233.856C735.191 235.19 737.821 236.081 741.71 236.081C745.361 236.081 747.551 235.272 748.869 234.262C750.217 233.228 750.598 232.276 750.598 231.111C750.598 230.395 750.447 230.053 750.345 229.884C750.242 229.713 750.001 229.41 749.349 229.063C749.312 229.044 749.275 229.023 749.238 229.003C747.159 227.833 743.531 226.494 738.014 225.094L737.974 225.084C732.708 223.703 728.253 222.287 724.674 220.818C724.623 220.798 724.573 220.776 724.523 220.753C720.613 219.004 717.218 216.478 714.37 213.222C714.332 213.179 714.294 213.134 714.258 213.089C711.041 209.158 709.656 204.265 709.656 198.888C709.656 194.224 711.068 189.916 713.795 186.097C716.534 182.263 720.326 179.398 724.909 177.398C729.565 175.281 734.738 174.289 740.32 174.289C748.886 174.289 756.358 176.468 762.238 181.298C768.23 186.22 771.334 192.978 771.737 201.026C771.809 202.466 771.287 203.873 770.293 204.918C769.299 205.963 767.92 206.554 766.478 206.554L754.979 206.554C752.213 206.554 749.919 204.414 749.726 201.655C749.57 199.412 748.744 197.881 747.236 196.656C747.214 196.639 747.193 196.621 747.172 196.604C745.769 195.427 743.557 194.549 739.941 194.549C736.522 194.549 734.44 195.285 733.173 196.202C732.012 197.043 731.685 197.815 731.685 198.888C731.685 199.877 731.936 200.432 732.31 200.864C733.272 201.743 734.502 202.541 736.074 203.218C738.137 203.976 741.05 204.884 744.871 205.941C749.941 207.316 754.225 208.732 757.646 210.207C761.532 211.793 764.859 214.228 767.575 217.455C770.803 221.182 772.271 225.854 772.374 231.006C772.374 231.028 772.375 231.051 772.375 231.073L772.375 231.111C772.375 235.945 771.011 240.411 768.275 244.35C765.551 248.272 761.766 251.239 757.165 253.339L757.117 253.361C752.533 255.398 747.4 256.342 741.837 256.342C735.941 256.342 730.472 255.358 725.518 253.278ZM438.361 171.2C434.808 171.2 431.605 169.91 429.078 167.383C426.551 164.856 425.261 161.653 425.261 158.1C425.261 154.547 426.551 151.344 429.078 148.817C431.605 146.29 434.808 145 438.361 145C441.875 145 445.014 146.324 447.444 148.87C449.937 151.389 451.208 154.571 451.208 158.1C451.208 161.628 449.937 164.811 447.444 167.33C445.014 169.875 441.875 171.2 438.361 171.2Z" fill="url(#paint0_linear)"/>
<path fill-rule="evenodd" clip-rule="evenodd" d="M377.243 224.059L393.796 178.88C394.556 176.805 396.53 175.426 398.74 175.426L410.997 175.426C412.738 175.426 414.366 176.287 415.347 177.725C416.328 179.163 416.534 180.994 415.899 182.614L388.73 251.863C387.939 253.879 385.994 255.205 383.829 255.205L370.434 255.205C368.268 255.205 366.323 253.879 365.532 251.863L338.364 182.614C337.728 180.994 337.934 179.163 338.915 177.725C339.896 176.287 341.524 175.426 343.265 175.426L355.649 175.426C357.855 175.426 359.827 176.801 360.589 178.871L377.243 224.059ZM443.921 175.426C446.829 175.426 449.186 177.783 449.186 180.691L449.186 249.939C449.186 252.847 446.829 255.205 443.921 255.205L432.422 255.205C429.514 255.205 427.157 252.847 427.157 249.939L427.157 180.691C427.157 177.783 429.514 175.426 432.422 175.426L443.921 175.426ZM522.708 250.223C521.97 250.732 521.205 251.221 520.415 251.689L520.389 251.704C514.999 254.857 508.829 256.342 502.061 256.342C495.001 256.342 488.482 254.588 482.639 251.022C476.802 247.461 472.242 242.473 468.963 236.205C465.656 229.882 464.067 222.792 464.067 215.063C464.067 207.271 465.648 200.196 468.988 194.001C472.278 187.814 476.851 182.915 482.695 179.448L482.728 179.429C488.629 175.986 495.155 174.289 502.188 174.289C509.025 174.289 515.24 175.767 520.642 178.926C521.356 179.344 522.049 179.78 522.721 180.232C522.953 177.539 525.213 175.426 527.966 175.426L539.592 175.426C542.5 175.426 544.857 177.783 544.857 180.691L544.857 249.939C544.857 252.847 542.5 255.205 539.592 255.205L527.966 255.205C525.153 255.205 522.855 252.999 522.708 250.223ZM513.648 197.294C513.605 197.27 513.563 197.245 513.521 197.22C510.834 195.621 507.854 194.802 504.462 194.802C501.03 194.802 498.021 195.599 495.322 197.141C492.703 198.638 490.549 200.84 488.87 203.929C487.254 206.902 486.35 210.556 486.35 215.063C486.35 219.656 487.255 223.404 488.882 226.47C490.559 229.549 492.721 231.804 495.363 233.386C498.052 234.914 501.048 235.702 504.462 235.702C507.887 235.702 510.89 234.909 513.585 233.373C516.314 231.782 518.503 229.527 520.169 226.47C521.802 223.392 522.701 219.682 522.701 215.189C522.701 210.682 521.797 207.029 520.181 204.056C518.519 200.998 516.345 198.799 513.648 197.294ZM585.548 178.799C585.875 178.587 586.208 178.38 586.547 178.18L586.592 178.154C591.349 175.405 596.896 174.162 603 174.162C605.907 174.162 608.265 176.52 608.265 179.428L608.265 191.306C608.265 194.214 605.907 196.571 603 196.571L599.967 196.571C594.449 196.571 591.246 198.048 589.338 200.118C587.355 202.27 585.898 206 585.898 212.283L585.898 249.939C585.898 252.847 583.541 255.205 580.633 255.205L569.134 255.205C566.226 255.205 563.868 252.847 563.868 249.939L563.868 180.691C563.868 177.783 566.226 175.426 569.134 175.426L580.633 175.426C582.874 175.426 584.788 176.826 585.548 178.799ZM687.797 175.426C690.705 175.426 693.062 177.783 693.062 180.691L693.062 249.939C693.062 252.847 690.705 255.205 687.797 255.205L676.297 255.205C674.007 255.205 672.058 253.742 671.334 251.7C670.729 252.063 670.106 252.407 669.467 252.733L669.427 252.753C664.758 255.088 659.645 256.216 654.184 256.216C648.06 256.216 642.381 254.966 637.26 252.356C637.247 252.349 637.235 252.343 637.222 252.336C637.211 252.33 637.199 252.324 637.188 252.318C631.953 249.547 627.827 245.438 624.834 240.149C624.821 240.127 624.809 240.105 624.797 240.083C621.834 234.668 620.486 228.317 620.486 221.255L620.486 180.691C620.486 177.783 622.843 175.426 625.751 175.426L637.124 175.426C640.032 175.426 642.389 177.783 642.389 180.691L642.389 219.738C642.389 225.682 643.879 229.486 646.137 231.922C648.404 234.289 651.628 235.702 656.458 235.702C661.443 235.702 664.783 234.215 667.141 231.689C669.461 229.202 671.032 225.171 671.032 218.727L671.032 180.691C671.032 177.783 673.39 175.426 676.297 175.426L687.797 175.426ZM725.518 253.278C725.491 253.266 725.464 253.254 725.437 253.242C720.528 251.082 716.445 248.04 713.389 244.035L713.349 243.983C710.276 239.849 708.587 235.111 708.275 229.91C708.188 228.461 708.703 227.041 709.698 225.985C710.693 224.928 712.08 224.329 713.531 224.329L725.409 224.329C728.119 224.329 730.386 226.386 730.65 229.083C730.837 231.01 731.645 232.52 733.38 233.856C735.191 235.19 737.821 236.081 741.71 236.081C745.361 236.081 747.551 235.272 748.869 234.262C750.217 233.228 750.598 232.276 750.598 231.111C750.598 230.395 750.447 230.053 750.345 229.884C750.242 229.713 750.001 229.41 749.349 229.063C749.312 229.044 749.275 229.023 749.238 229.003C747.159 227.833 743.531 226.494 738.014 225.094L737.974 225.084C732.708 223.703 728.253 222.287 724.674 220.818C724.623 220.798 724.573 220.776 724.523 220.753C720.613 219.004 717.218 216.478 714.37 213.222C714.332 213.179 714.294 213.134 714.258 213.089C711.041 209.158 709.656 204.265 709.656 198.888C709.656 194.224 711.068 189.916 713.795 186.097C716.534 182.263 720.326 179.398 724.909 177.398C729.565 175.281 734.738 174.289 740.32 174.289C748.886 174.289 756.358 176.468 762.238 181.298C768.23 186.22 771.334 192.978 771.737 201.026C771.809 202.466 771.287 203.873 770.293 204.918C769.299 205.963 767.92 206.554 766.478 206.554L754.979 206.554C752.213 206.554 749.919 204.414 749.726 201.655C749.57 199.412 748.744 197.881 747.236 196.656C747.214 196.639 747.193 196.621 747.172 196.604C745.769 195.427 743.557 194.549 739.941 194.549C736.522 194.549 734.44 195.285 733.173 196.202C732.012 197.043 731.685 197.815 731.685 198.888C731.685 199.877 731.936 200.432 732.31 200.864C733.272 201.743 734.502 202.541 736.074 203.218C738.137 203.976 741.05 204.884 744.871 205.941C749.941 207.316 754.225 208.732 757.646 210.207C761.532 211.793 764.859 214.228 767.575 217.455C770.803 221.182 772.271 225.854 772.374 231.006C772.374 231.028 772.375 231.051 772.375 231.073L772.375 231.111C772.375 235.945 771.011 240.411 768.275 244.35C765.551 248.272 761.766 251.239 757.165 253.339L757.117 253.361C752.533 255.398 747.4 256.342 741.837 256.342C735.941 256.342 730.472 255.358 725.518 253.278ZM438.361 171.2C434.808 171.2 431.605 169.91 429.078 167.383C426.551 164.856 425.261 161.653 425.261 158.1C425.261 154.547 426.551 151.344 429.078 148.817C431.605 146.29 434.808 145 438.361 145C441.875 145 445.014 146.324 447.444 148.87C449.937 151.389 451.208 154.571 451.208 158.1C451.208 161.628 449.937 164.811 447.444 167.33C445.014 169.875 441.875 171.2 438.361 171.2Z" stroke="#2A7940" stroke-width="7.0203" stroke-linecap="round" stroke-linejoin="round" mask="url(#path-13-inside-1)"/>
<path d="M134.516 134.338C142.912 158.133 130.116 184.393 105.856 192.954C99.936 195.043 91.9867 195.385 83.1286 194.241C74.302 193.102 64.7236 190.507 55.6338 186.866C46.5414 183.224 37.9958 178.559 31.2122 173.316C24.3999 168.05 19.5167 162.319 17.4958 156.592C9.09948 132.797 21.8953 106.537 46.1556 97.9766C52.0756 95.8877 60.0249 95.5453 68.883 96.6889C77.7096 97.8283 87.2879 100.424 96.3778 104.065C105.47 107.706 114.016 112.371 120.799 117.614C127.612 122.88 132.495 128.611 134.516 134.338Z" fill="#E9E9E0"/>
<path d="M134.516 134.338C142.912 158.133 130.116 184.393 105.856 192.954C99.936 195.043 91.9867 195.385 83.1286 194.241C74.302 193.102 64.7236 190.507 55.6338 186.866C46.5414 183.224 37.9958 178.559 31.2122 173.316C24.3999 168.05 19.5167 162.319 17.4958 156.592C9.09948 132.797 21.8953 106.537 46.1556 97.9766C52.0756 95.8877 60.0249 95.5453 68.883 96.6889C77.7096 97.8283 87.2879 100.424 96.3778 104.065C105.47 107.706 114.016 112.371 120.799 117.614C127.612 122.88 132.495 128.611 134.516 134.338Z" fill="url(#paint1_linear)"/>
<path d="M134.516 134.338C142.912 158.133 130.116 184.393 105.856 192.954C99.936 195.043 91.9867 195.385 83.1286 194.241C74.302 193.102 64.7236 190.507 55.6338 186.866C46.5414 183.224 37.9958 178.559 31.2122 173.316C24.3999 168.05 19.5167 162.319 17.4958 156.592C9.09948 132.797 21.8953 106.537 46.1556 97.9766C52.0756 95.8877 60.0249 95.5453 68.883 96.6889C77.7096 97.8283 87.2879 100.424 96.3778 104.065C105.47 107.706 114.016 112.371 120.799 117.614C127.612 122.88 132.495 128.611 134.516 134.338Z" stroke="#2A7940" stroke-width="3.56838"/>
<path d="M52.5378 144.808C53.5369 147.64 52.0516 150.745 49.2203 151.744C46.3891 152.743 43.2841 151.257 42.285 148.426C41.286 145.595 42.7713 142.49 45.6025 141.491C48.4338 140.492 51.5388 141.977 52.5378 144.808Z" fill="#40B561"/>
<path d="M44.3717 161.88C45.0633 163.84 44.035 165.99 42.0749 166.681C40.1149 167.373 37.9652 166.345 37.2736 164.385C36.5819 162.424 37.6102 160.275 39.5703 159.583C41.5304 158.891 43.68 159.92 44.3717 161.88Z" fill="#40B561"/>
<path d="M57.6395 164.293C58.1775 165.818 57.3777 167.49 55.8532 168.028C54.3287 168.566 52.6567 167.766 52.1188 166.241C51.5808 164.717 52.3806 163.045 53.9051 162.507C55.4296 161.969 57.1016 162.769 57.6395 164.293Z" fill="#40B561"/>
<path d="M68.1809 177.188C68.7188 178.712 67.919 180.384 66.3945 180.922C64.87 181.46 63.1981 180.66 62.6601 179.136C62.1222 177.611 62.9219 175.939 64.4465 175.401C65.971 174.863 67.6429 175.663 68.1809 177.188Z" fill="#40B561"/>
<path d="M72.3472 143.14C73.3463 145.971 71.861 149.076 69.0297 150.075C66.1985 151.074 63.0934 149.589 62.0944 146.757C61.0954 143.926 62.5807 140.821 65.4119 139.822C68.2431 138.823 71.3482 140.308 72.3472 143.14Z" fill="#40B561"/>
<path d="M55.1833 129.685C55.8749 131.645 54.8466 133.795 52.8865 134.486C50.9264 135.178 48.7768 134.15 48.0852 132.189C47.3935 130.229 48.4218 128.08 50.3819 127.388C52.342 126.696 54.4916 127.725 55.1833 129.685Z" fill="#40B561"/>
<path d="M78.5642 135.625C78.9485 136.714 78.3772 137.908 77.2883 138.292C76.1993 138.676 75.0051 138.105 74.6209 137.016C74.2366 135.927 74.8079 134.733 75.8968 134.349C76.9858 133.964 78.18 134.536 78.5642 135.625Z" fill="#40B561"/>
<path d="M91.0021 168.248C91.3863 169.337 90.8151 170.531 89.7261 170.916C88.6372 171.3 87.4429 170.729 87.0587 169.64C86.6745 168.551 87.2457 167.356 88.3347 166.972C89.4236 166.588 90.6179 167.159 91.0021 168.248Z" fill="#40B561"/>
<path d="M82.9856 168.318C83.9846 171.149 82.4993 174.254 79.6681 175.253C76.8369 176.252 73.7318 174.767 72.7328 171.936C71.7337 169.104 73.219 165.999 76.0503 165C78.8815 164.001 81.9866 165.486 82.9856 168.318Z" fill="#40B561"/>
<path d="M89.6322 179.335C90.3239 181.295 89.2956 183.444 87.3355 184.136C85.3754 184.828 83.2258 183.799 82.5341 181.839C81.8425 179.879 82.8708 177.73 84.8309 177.038C86.7909 176.346 88.9406 177.375 89.6322 179.335Z" fill="#40B561"/>
<path d="M57.5875 114.213C58.5865 117.044 57.1012 120.149 54.27 121.148C51.4387 122.147 48.3337 120.662 47.3346 117.831C46.3356 114.999 47.8209 111.894 50.6521 110.895C53.4834 109.896 56.5884 111.382 57.5875 114.213Z" fill="#40B561"/>
<path d="M67.3363 108.999C68.0279 110.959 66.9996 113.109 65.0395 113.8C63.0795 114.492 60.9298 113.464 60.2382 111.504C59.5465 109.544 60.5748 107.394 62.5349 106.702C64.495 106.011 66.6446 107.039 67.3363 108.999Z" fill="#40B561"/>
<path d="M113.774 159.838C114.312 161.363 113.512 163.035 111.987 163.573C110.463 164.111 108.791 163.311 108.253 161.787C107.715 160.262 108.515 158.59 110.039 158.052C111.564 157.514 113.236 158.314 113.774 159.838Z" fill="#40B561"/>
<path d="M95.8285 144.728C96.3665 146.252 95.5667 147.924 94.0422 148.462C92.5177 149 90.8457 148.2 90.3078 146.676C89.7698 145.151 90.5696 143.48 92.0941 142.942C93.6186 142.404 95.2906 143.203 95.8285 144.728Z" fill="#40B561"/>
<path d="M102.567 128.692C103.566 131.524 102.081 134.629 99.2493 135.628C96.418 136.627 93.313 135.141 92.314 132.31C91.3149 129.479 92.8002 126.374 95.6315 125.375C98.4627 124.376 101.568 125.861 102.567 128.692Z" fill="#40B561"/>
<path d="M85.4028 115.238C86.0945 117.198 85.0662 119.347 83.1061 120.039C81.146 120.731 78.9963 119.702 78.3047 117.742C77.6131 115.782 78.6414 113.632 80.6014 112.941C82.5615 112.249 84.7112 113.277 85.4028 115.238Z" fill="#40B561"/>
<path d="M108.784 121.177C109.168 122.266 108.597 123.461 107.508 123.845C106.419 124.229 105.225 123.658 104.84 122.569C104.456 121.48 105.027 120.286 106.116 119.901C107.205 119.517 108.4 120.088 108.784 121.177Z" fill="#40B561"/>
<path d="M110.685 139.131C111.069 140.22 110.498 141.414 109.409 141.798C108.32 142.183 107.125 141.611 106.741 140.523C106.357 139.434 106.928 138.239 108.017 137.855C109.106 137.471 110.3 138.042 110.685 139.131Z" fill="#40B561"/>
<path d="M111.89 147.574C112.889 150.406 111.404 153.511 108.573 154.51C105.741 155.509 102.636 154.023 101.637 151.192C100.638 148.361 102.124 145.256 104.955 144.257C107.786 143.258 110.891 144.743 111.89 147.574Z" fill="#40B561"/>
<path d="M120.473 139.225C121.165 141.185 120.137 143.334 118.176 144.026C116.216 144.718 114.067 143.689 113.375 141.729C112.683 139.769 113.712 137.619 115.672 136.928C117.632 136.236 119.782 137.264 120.473 139.225Z" fill="#40B561"/>
<path d="M965.499 137.89C961.05 122.061 970.484 105.53 986.622 100.994C990.56 99.8865 995.743 100.001 1001.45 101.121C1007.14 102.236 1013.26 104.33 1019.02 107.083C1024.78 109.837 1030.13 113.233 1034.32 116.93C1038.53 120.643 1041.46 124.577 1042.53 128.386C1046.98 144.215 1037.55 160.746 1021.41 165.283C1017.47 166.39 1012.29 166.275 1006.58 165.155C1000.89 164.04 994.768 161.946 989.012 159.193C983.255 156.439 977.896 153.043 973.708 149.346C969.502 145.633 966.57 141.699 965.499 137.89Z" fill="#E9E9E0"/>
<path d="M965.499 137.89C961.05 122.061 970.484 105.53 986.622 100.994C990.56 99.8865 995.743 100.001 1001.45 101.121C1007.14 102.236 1013.26 104.33 1019.02 107.083C1024.78 109.837 1030.13 113.233 1034.32 116.93C1038.53 120.643 1041.46 124.577 1042.53 128.386C1046.98 144.215 1037.55 160.746 1021.41 165.283C1017.47 166.39 1012.29 166.275 1006.58 165.155C1000.89 164.04 994.768 161.946 989.012 159.193C983.255 156.439 977.896 153.043 973.708 149.346C969.502 145.633 966.57 141.699 965.499 137.89Z" fill="url(#paint2_linear)"/>
<path d="M965.499 137.89C961.05 122.061 970.484 105.53 986.622 100.994C990.56 99.8865 995.743 100.001 1001.45 101.121C1007.14 102.236 1013.26 104.33 1019.02 107.083C1024.78 109.837 1030.13 113.233 1034.32 116.93C1038.53 120.643 1041.46 124.577 1042.53 128.386C1046.98 144.215 1037.55 160.746 1021.41 165.283C1017.47 166.39 1012.29 166.275 1006.58 165.155C1000.89 164.04 994.768 161.946 989.012 159.193C983.255 156.439 977.896 153.043 973.708 149.346C969.502 145.633 966.57 141.699 965.499 137.89Z" stroke="#2A7940" stroke-width="2.32514"/>
<path d="M1019.24 134.56C1018.72 132.677 1019.81 130.721 1021.7 130.191C1023.58 129.662 1025.54 130.759 1026.06 132.643C1026.59 134.526 1025.5 136.482 1023.61 137.011C1021.73 137.541 1019.77 136.443 1019.24 134.56Z" fill="#40B561"/>
<path d="M1025.28 123.806C1024.91 122.503 1025.67 121.148 1026.98 120.782C1028.28 120.415 1029.63 121.175 1030 122.479C1030.37 123.783 1029.61 125.137 1028.3 125.504C1027 125.87 1025.65 125.11 1025.28 123.806Z" fill="#40B561"/>
<path d="M1016.75 121.674C1016.47 120.66 1017.06 119.607 1018.07 119.322C1019.09 119.037 1020.14 119.628 1020.43 120.642C1020.71 121.656 1020.12 122.709 1019.11 122.994C1018.09 123.279 1017.04 122.688 1016.75 121.674Z" fill="#40B561"/>
<path d="M1010.45 112.843C1010.16 111.828 1010.75 110.775 1011.77 110.49C1012.78 110.205 1013.83 110.796 1014.12 111.81C1014.4 112.824 1013.81 113.877 1012.8 114.163C1011.79 114.448 1010.73 113.857 1010.45 112.843Z" fill="#40B561"/>
<path d="M1006.29 134.804C1005.76 132.921 1006.86 130.965 1008.74 130.436C1010.63 129.906 1012.58 131.004 1013.11 132.887C1013.64 134.77 1012.55 136.726 1010.66 137.256C1008.78 137.785 1006.82 136.688 1006.29 134.804Z" fill="#40B561"/>
<path d="M1016.88 144.281C1016.52 142.977 1017.28 141.623 1018.58 141.257C1019.88 140.89 1021.24 141.65 1021.6 142.954C1021.97 144.258 1021.21 145.612 1019.91 145.978C1018.6 146.345 1017.25 145.585 1016.88 144.281Z" fill="#40B561"/>
<path d="M1001.93 139.427C1001.73 138.702 1002.15 137.95 1002.88 137.746C1003.6 137.543 1004.35 137.965 1004.56 138.689C1004.76 139.414 1004.34 140.166 1003.61 140.37C1002.89 140.573 1002.14 140.151 1001.93 139.427Z" fill="#40B561"/>
<path d="M995.23 117.687C995.026 116.962 995.448 116.21 996.172 116.006C996.897 115.803 997.649 116.225 997.853 116.949C998.056 117.674 997.634 118.426 996.91 118.63C996.185 118.833 995.433 118.411 995.23 117.687Z" fill="#40B561"/>
<path d="M1000.44 117.982C999.915 116.098 1001.01 114.142 1002.9 113.613C1004.78 113.084 1006.74 114.181 1007.26 116.064C1007.79 117.948 1006.7 119.904 1004.81 120.433C1002.93 120.963 1000.97 119.865 1000.44 117.982Z" fill="#40B561"/>
<path d="M996.591 110.536C996.224 109.232 996.984 107.878 998.288 107.512C999.592 107.145 1000.95 107.905 1001.31 109.209C1001.68 110.513 1000.92 111.867 999.615 112.233C998.311 112.6 996.957 111.84 996.591 110.536Z" fill="#40B561"/>
<path d="M1014.66 154.239C1014.13 152.356 1015.23 150.4 1017.11 149.871C1019 149.341 1020.95 150.439 1021.48 152.322C1022.01 154.205 1020.91 156.161 1019.03 156.691C1017.15 157.22 1015.19 156.123 1014.66 154.239Z" fill="#40B561"/>
<path d="M1008.1 157.215C1007.74 155.912 1008.5 154.558 1009.8 154.191C1011.1 153.825 1012.46 154.584 1012.82 155.888C1013.19 157.192 1012.43 158.546 1011.13 158.913C1009.82 159.279 1008.47 158.519 1008.1 157.215Z" fill="#40B561"/>
<path d="M980.066 122.188C979.781 121.174 980.372 120.121 981.386 119.836C982.4 119.551 983.453 120.142 983.738 121.156C984.024 122.17 983.433 123.223 982.418 123.508C981.404 123.793 980.351 123.202 980.066 122.188Z" fill="#40B561"/>
<path d="M991.093 132.775C990.808 131.761 991.399 130.708 992.413 130.423C993.427 130.138 994.48 130.729 994.765 131.743C995.051 132.757 994.46 133.81 993.445 134.095C992.431 134.38 991.378 133.789 991.093 132.775Z" fill="#40B561"/>
<path d="M986.031 142.916C985.502 141.032 986.599 139.076 988.483 138.547C990.366 138.017 992.322 139.115 992.851 140.998C993.381 142.882 992.283 144.838 990.4 145.367C988.517 145.896 986.561 144.799 986.031 142.916Z" fill="#40B561"/>
<path d="M996.62 152.392C996.254 151.089 997.014 149.735 998.318 149.368C999.621 149.001 1000.98 149.761 1001.34 151.065C1001.71 152.369 1000.95 153.723 999.645 154.09C998.341 154.456 996.987 153.696 996.62 152.392Z" fill="#40B561"/>
<path d="M981.67 147.538C981.466 146.814 981.888 146.061 982.613 145.858C983.337 145.654 984.089 146.076 984.293 146.801C984.497 147.525 984.075 148.277 983.35 148.481C982.626 148.684 981.874 148.262 981.67 147.538Z" fill="#40B561"/>
<path d="M981.196 135.784C980.992 135.059 981.414 134.307 982.139 134.103C982.863 133.9 983.615 134.322 983.819 135.046C984.023 135.771 983.601 136.523 982.876 136.726C982.152 136.93 981.4 136.508 981.196 135.784Z" fill="#40B561"/>
<path d="M980.77 130.242C980.241 128.359 981.339 126.403 983.222 125.874C985.105 125.344 987.061 126.442 987.59 128.325C988.12 130.209 987.022 132.164 985.139 132.694C983.256 133.223 981.3 132.126 980.77 130.242Z" fill="#40B561"/>
<path d="M974.835 135.307C974.469 134.004 975.229 132.649 976.532 132.283C977.836 131.916 979.19 132.676 979.557 133.98C979.923 135.284 979.164 136.638 977.86 137.005C976.556 137.371 975.202 136.611 974.835 135.307Z" fill="#40B561"/>
<path d="M335.144 98.5392L332.497 92.8948L330.288 93.9308L332.936 99.5752C332.936 99.5752 331.26 99.6996 330.972 100.496C330.685 101.293 330.812 102.068 331.893 102.459C332.975 102.85 337.638 100.663 338.029 99.5816C338.419 98.5 337.904 97.9061 337.108 97.6183C336.311 97.3305 335.144 98.5392 335.144 98.5392Z" fill="#206AAE"/>
<path d="M350.058 71.5104L343.824 71.4721L343.809 73.9117L350.043 73.95C350.043 73.95 349.435 75.516 350.03 76.1185C350.625 76.7209 351.38 76.94 352.198 76.1318C353.016 75.3236 353.048 70.1735 352.24 69.3553C351.432 68.5371 350.674 68.7468 350.071 69.342C349.469 69.9371 350.058 71.5104 350.058 71.5104Z" fill="#206AAE"/>
<path d="M345.912 87.0701L340.612 83.7868L339.327 85.8607L344.627 89.144C344.627 89.144 343.292 90.163 343.485 90.9874C343.679 91.8118 344.209 92.3925 345.329 92.1294C346.448 91.8663 349.161 87.4882 348.898 86.3686C348.635 85.2491 347.879 85.0329 347.054 85.2266C346.23 85.4203 345.912 87.0701 345.912 87.0701Z" fill="#206AAE"/>
<path d="M293.341 88.5666L298.907 85.7562L297.807 83.5786L292.242 86.3889C292.242 86.3889 292.069 84.7178 291.264 84.4532C290.46 84.1887 289.688 84.3383 289.329 85.4308C288.969 86.5232 291.291 91.1205 292.383 91.4798C293.476 91.8391 294.054 91.3068 294.319 90.5023C294.584 89.6978 293.341 88.5666 293.341 88.5666Z" fill="#206AAE"/>
<path d="M320.792 102.689L320.649 96.456L318.21 96.5119L318.353 102.745C318.353 102.745 316.77 102.182 316.185 102.794C315.6 103.407 315.403 104.168 316.235 104.962C317.066 105.757 322.215 105.639 323.01 104.807C323.804 103.976 323.572 103.224 322.96 102.639C322.348 102.054 320.792 102.689 320.792 102.689Z" fill="#206AAE"/>
<path d="M305.119 98.9966L308.246 93.6036L306.136 92.3796L303.008 97.7727C303.008 97.7727 301.951 96.4671 301.132 96.6847C300.314 96.9022 299.749 97.4491 300.044 98.5605C300.34 99.6719 304.795 102.256 305.906 101.96C307.018 101.665 307.212 100.903 306.994 100.085C306.777 99.2662 305.119 98.9966 305.119 98.9966Z" fill="#206AAE"/>
<path d="M304.42 45.8445L306.952 51.5418L309.181 50.5512L306.65 44.8538C306.65 44.8538 308.327 44.7636 308.631 43.9733C308.935 43.1829 308.824 42.4045 307.751 41.9916C306.677 41.5787 301.971 43.6701 301.558 44.7434C301.145 45.8167 301.648 46.421 302.439 46.7251C303.229 47.0292 304.42 45.8445 304.42 45.8445Z" fill="#206AAE"/>
<path d="M288.958 72.563L295.19 72.7286L295.255 70.2899L289.022 70.1242C289.022 70.1242 289.663 68.571 289.08 67.9565C288.497 67.342 287.747 67.1076 286.912 67.8989C286.078 68.6902 285.941 73.8386 286.732 74.6731C287.523 75.5076 288.285 75.3134 288.9 74.7307C289.514 74.148 288.958 72.563 288.958 72.563Z" fill="#206AAE"/>
<path d="M293.42 57.0913L298.652 60.4821L299.979 58.4349L294.747 55.0441C294.747 55.0441 296.104 54.0525 295.927 53.2243C295.75 52.3961 295.232 51.8048 294.107 52.0449C292.982 52.285 290.181 56.6069 290.421 57.7316C290.661 58.8562 291.413 59.0878 292.241 58.911C293.069 58.7342 293.42 57.0913 293.42 57.0913Z" fill="#206AAE"/>
<path d="M346.011 56.6689L340.389 59.365L341.444 61.5647L347.066 58.8686C347.066 58.8686 347.205 60.5429 348.003 60.8239C348.802 61.1048 349.577 60.971 349.959 59.8861C350.34 58.8012 348.113 54.1574 347.028 53.7759C345.943 53.3943 345.354 53.9148 345.073 54.7137C344.792 55.5126 346.011 56.6689 346.011 56.6689Z" fill="#206AAE"/>
<path d="M318.854 41.9889L318.87 48.2234L321.309 48.2173L321.294 41.9829C321.294 41.9829 322.865 42.5778 323.462 41.9775C324.06 41.3772 324.272 40.6201 323.457 39.809C322.642 38.9978 317.492 39.0106 316.68 39.8258C315.869 40.641 316.086 41.3969 316.686 41.9943C317.286 42.5916 318.854 41.9889 318.854 41.9889Z" fill="#206AAE"/>
<path d="M334.449 46.0005L331.212 51.3285L333.297 52.5954L336.534 47.2673C336.534 47.2673 337.565 48.5942 338.387 48.3934C339.21 48.1926 339.786 47.6574 339.513 46.5402C339.241 45.4229 334.839 42.7485 333.722 43.0212C332.605 43.2939 332.395 44.0517 332.596 44.8744C332.797 45.6972 334.449 46.0005 334.449 46.0005Z" fill="#206AAE"/>
<path d="M335.144 98.5392L332.497 92.8948L330.288 93.9308L332.936 99.5752C332.936 99.5752 331.26 99.6996 330.972 100.496C330.685 101.293 330.812 102.068 331.893 102.459C332.975 102.85 337.638 100.663 338.029 99.5816C338.419 98.5 337.904 97.9061 337.108 97.6183C336.311 97.3305 335.144 98.5392 335.144 98.5392Z" stroke="#206AAE" stroke-width="0.542129"/>
<path d="M350.058 71.5104L343.824 71.4721L343.809 73.9117L350.043 73.95C350.043 73.95 349.435 75.516 350.03 76.1185C350.625 76.7209 351.38 76.94 352.198 76.1318C353.016 75.3236 353.048 70.1735 352.24 69.3553C351.432 68.5371 350.674 68.7468 350.071 69.342C349.469 69.9371 350.058 71.5104 350.058 71.5104Z" stroke="#206AAE" stroke-width="0.542129"/>
<path d="M345.912 87.0701L340.612 83.7868L339.327 85.8607L344.627 89.144C344.627 89.144 343.292 90.163 343.485 90.9874C343.679 91.8118 344.209 92.3925 345.329 92.1294C346.448 91.8663 349.161 87.4882 348.898 86.3686C348.635 85.2491 347.879 85.0329 347.054 85.2266C346.23 85.4203 345.912 87.0701 345.912 87.0701Z" stroke="#206AAE" stroke-width="0.542129"/>
<path d="M293.341 88.5666L298.907 85.7562L297.807 83.5786L292.242 86.3889C292.242 86.3889 292.069 84.7178 291.264 84.4532C290.46 84.1887 289.688 84.3383 289.329 85.4308C288.969 86.5232 291.291 91.1205 292.383 91.4798C293.476 91.8391 294.054 91.3068 294.319 90.5023C294.584 89.6978 293.341 88.5666 293.341 88.5666Z" stroke="#206AAE" stroke-width="0.542129"/>
<path d="M320.792 102.689L320.649 96.456L318.21 96.5119L318.353 102.745C318.353 102.745 316.77 102.182 316.185 102.794C315.6 103.407 315.403 104.168 316.235 104.962C317.066 105.757 322.215 105.639 323.01 104.807C323.804 103.976 323.572 103.224 322.96 102.639C322.348 102.054 320.792 102.689 320.792 102.689Z" stroke="#206AAE" stroke-width="0.542129"/>
<path d="M305.119 98.9966L308.246 93.6036L306.136 92.3796L303.008 97.7727C303.008 97.7727 301.951 96.4671 301.132 96.6847C300.314 96.9022 299.749 97.4491 300.044 98.5605C300.34 99.6719 304.795 102.256 305.906 101.96C307.018 101.665 307.212 100.903 306.994 100.085C306.777 99.2662 305.119 98.9966 305.119 98.9966Z" stroke="#206AAE" stroke-width="0.542129"/>
<path d="M304.42 45.8445L306.952 51.5418L309.181 50.5512L306.65 44.8538C306.65 44.8538 308.327 44.7636 308.631 43.9733C308.935 43.1829 308.824 42.4045 307.751 41.9916C306.677 41.5787 301.971 43.6701 301.558 44.7434C301.145 45.8167 301.648 46.421 302.439 46.7251C303.229 47.0292 304.42 45.8445 304.42 45.8445Z" stroke="#206AAE" stroke-width="0.542129"/>
<path d="M288.958 72.563L295.19 72.7286L295.255 70.2899L289.022 70.1242C289.022 70.1242 289.663 68.571 289.08 67.9565C288.497 67.342 287.747 67.1076 286.912 67.8989C286.078 68.6902 285.941 73.8386 286.732 74.6731C287.523 75.5076 288.285 75.3134 288.9 74.7307C289.514 74.148 288.958 72.563 288.958 72.563Z" stroke="#206AAE" stroke-width="0.542129"/>
<path d="M293.42 57.0913L298.652 60.4821L299.979 58.4349L294.747 55.0441C294.747 55.0441 296.104 54.0525 295.927 53.2243C295.75 52.3961 295.232 51.8048 294.107 52.0449C292.982 52.285 290.181 56.6069 290.421 57.7316C290.661 58.8562 291.413 59.0878 292.241 58.911C293.069 58.7342 293.42 57.0913 293.42 57.0913Z" stroke="#206AAE" stroke-width="0.542129"/>
<path d="M346.011 56.6689L340.389 59.365L341.444 61.5647L347.066 58.8686C347.066 58.8686 347.205 60.5429 348.003 60.8239C348.802 61.1048 349.577 60.971 349.959 59.8861C350.34 58.8012 348.113 54.1574 347.028 53.7759C345.943 53.3943 345.354 53.9148 345.073 54.7137C344.792 55.5126 346.011 56.6689 346.011 56.6689Z" stroke="#206AAE" stroke-width="0.542129"/>
<path d="M318.854 41.9889L318.87 48.2234L321.309 48.2173L321.294 41.9829C321.294 41.9829 322.865 42.5778 323.462 41.9775C324.06 41.3772 324.272 40.6201 323.457 39.809C322.642 38.9978 317.492 39.0106 316.68 39.8258C315.869 40.641 316.086 41.3969 316.686 41.9943C317.286 42.5916 318.854 41.9889 318.854 41.9889Z" stroke="#206AAE" stroke-width="0.542129"/>
<path d="M334.449 46.0005L331.212 51.3285L333.297 52.5954L336.534 47.2673C336.534 47.2673 337.565 48.5942 338.387 48.3934C339.21 48.1926 339.786 47.6574 339.513 46.5402C339.241 45.4229 334.839 42.7485 333.722 43.0212C332.605 43.2939 332.395 44.0517 332.596 44.8744C332.797 45.6972 334.449 46.0005 334.449 46.0005Z" stroke="#206AAE" stroke-width="0.542129"/>
<path d="M319.276 96.2584C305.956 96.1765 295.219 85.1908 295.302 71.7148C295.385 58.2388 306.255 47.3858 319.576 47.4677C332.897 47.5496 343.633 58.5353 343.55 72.0113C343.468 85.4873 332.597 96.3402 319.276 96.2584Z" fill="#488BC8" stroke="#206AAE" stroke-width="0.542129"/>
<path fill-rule="evenodd" clip-rule="evenodd" d="M308.959 94.154C305.938 90.0189 304.165 84.8972 304.199 79.3605C304.283 65.7377 315.273 54.7613 328.746 54.8441C332.437 54.8668 335.932 55.7174 339.06 57.2207C334.648 51.1815 327.573 47.2469 319.576 47.1978C306.102 47.1149 295.112 58.0914 295.029 71.7142C294.968 81.6045 300.672 90.1706 308.959 94.154Z" fill="#206AAE"/>
<path d="M328.665 89.5405C324.174 89.5129 320.534 89.3532 320.551 86.5089C320.569 83.6645 324.207 84.0917 328.698 84.1193C333.189 84.1469 337.56 76.179 337.543 79.0233C337.525 81.8677 333.156 89.5681 328.665 89.5405Z" fill="#39125C" fill-opacity="0.5"/>
<path d="M300.416 65.1196C301.943 60.8961 303.31 57.5189 305.985 58.4861C308.66 59.4532 304.434 64.8284 302.907 69.052C301.38 73.2755 303.008 79.4908 300.334 78.5236C297.659 77.5564 298.889 69.3432 300.416 65.1196Z" fill="#39125C" fill-opacity="0.5"/>
<path d="M329.019 53.8322C333.356 55 336.836 56.0792 336.096 58.8258C335.356 61.5724 331.946 60.2348 327.609 59.067C323.273 57.8993 320.686 57.8167 321.426 55.0702C322.165 52.3236 324.682 52.6645 329.019 53.8322Z" fill="#39125C" fill-opacity="0.5"/>
<path d="M321.191 93.2896C318.945 93.2758 317.136 91.4442 317.15 89.1987C317.164 86.9531 318.995 85.144 321.241 85.1578C323.486 85.1716 325.296 87.0031 325.282 89.2486C325.268 91.4942 323.436 93.3034 321.191 93.2896Z" fill="#39125C" fill-opacity="0.5"/>
<path d="M333.277 67.3411C331.93 67.3329 330.845 66.2339 330.853 64.8866C330.861 63.5393 331.96 62.4538 333.307 62.4621C334.655 62.4704 335.74 63.5693 335.732 64.9166C335.724 66.2639 334.625 67.3494 333.277 67.3411Z" fill="#39125C" fill-opacity="0.5"/>
<circle cx="319.204" cy="63.7305" r="2.43918" transform="rotate(90.3521 319.204 63.7305)" fill="#206AAE"/>
<path d="M319.182 67.2546C317.236 67.2426 315.668 65.6553 315.68 63.7091C315.692 61.763 317.279 60.195 319.225 60.207C321.172 60.219 322.74 61.8063 322.728 63.7524C322.716 65.6986 321.128 67.2665 319.182 67.2546Z" fill="#DEDEDE" fill-opacity="0.51"/>
<path d="M313.102 86.1921C311.156 86.1801 309.588 84.5928 309.6 82.6466C309.612 80.7005 311.199 79.1326 313.146 79.1445C315.092 79.1565 316.66 80.7438 316.648 82.6899C316.636 84.6361 315.048 86.204 313.102 86.1921Z" fill="#DEDEDE" fill-opacity="0.51"/>
<path d="M322.422 69.443C320.475 69.4311 318.907 67.8437 318.919 65.8976C318.931 63.9515 320.519 62.3835 322.465 62.3955C324.411 62.4074 325.979 63.9948 325.967 65.9409C325.955 67.887 324.368 69.455 322.422 69.443Z" fill="#DEDEDE" fill-opacity="0.51"/>
<path d="M682.945 367.365C670.234 367.287 659.969 356.743 660.048 343.784C660.068 340.621 661.261 336.795 663.314 332.791C665.359 328.802 668.223 324.704 671.499 321.016C674.776 317.327 678.444 314.072 682.087 311.751C685.744 309.42 689.294 308.083 692.353 308.101C705.064 308.18 715.329 318.723 715.25 331.683C715.23 334.845 714.037 338.672 711.984 342.675C709.939 346.665 707.075 350.762 703.799 354.45C700.522 358.139 696.854 361.394 693.211 363.715C689.554 366.046 686.004 367.384 682.945 367.365Z" fill="#E9E9E0"/>
<path d="M682.945 367.365C670.234 367.287 659.969 356.743 660.048 343.784C660.068 340.621 661.261 336.795 663.314 332.791C665.359 328.802 668.223 324.704 671.499 321.016C674.776 317.327 678.444 314.072 682.087 311.751C685.744 309.42 689.294 308.083 692.353 308.101C705.064 308.18 715.329 318.723 715.25 331.683C715.23 334.845 714.037 338.672 711.984 342.675C709.939 346.665 707.075 350.762 703.799 354.45C700.522 358.139 696.854 361.394 693.211 363.715C689.554 366.046 686.004 367.384 682.945 367.365Z" fill="url(#paint3_linear)"/>
<path d="M682.945 367.365C670.234 367.287 659.969 356.743 660.048 343.784C660.068 340.621 661.261 336.795 663.314 332.791C665.359 328.802 668.223 324.704 671.499 321.016C674.776 317.327 678.444 314.072 682.087 311.751C685.744 309.42 689.294 308.083 692.353 308.101C705.064 308.18 715.329 318.723 715.25 331.683C715.23 334.845 714.037 338.672 711.984 342.675C709.939 346.665 707.075 350.762 703.799 354.45C700.522 358.139 696.854 361.394 693.211 363.715C689.554 366.046 686.004 367.384 682.945 367.365Z" stroke="#2A7940" stroke-width="1.79758"/>
<path d="M691.962 326.721C690.45 326.712 689.232 325.478 689.241 323.966C689.25 322.454 690.484 321.235 691.996 321.244C693.508 321.254 694.727 322.487 694.718 324C694.708 325.512 693.475 326.73 691.962 326.721Z" fill="#40B561"/>
<path d="M685.263 319.939C684.216 319.933 683.372 319.079 683.379 318.031C683.385 316.984 684.239 316.141 685.286 316.147C686.333 316.154 687.177 317.008 687.171 318.055C687.164 319.102 686.31 319.945 685.263 319.939Z" fill="#40B561"/>
<path d="M681.856 325.816C681.042 325.811 680.386 325.147 680.391 324.333C680.396 323.518 681.06 322.862 681.875 322.867C682.689 322.872 683.345 323.537 683.34 324.351C683.335 325.165 682.671 325.821 681.856 325.816Z" fill="#40B561"/>
<path d="M673.947 328.614C673.132 328.609 672.476 327.945 672.481 327.13C672.486 326.316 673.15 325.66 673.965 325.665C674.779 325.67 675.435 326.334 675.43 327.149C675.425 327.963 674.761 328.619 673.947 328.614Z" fill="#40B561"/>
<path d="M689.375 336.396C687.863 336.386 686.644 335.153 686.653 333.64C686.663 332.128 687.896 330.909 689.409 330.919C690.921 330.928 692.14 332.162 692.13 333.674C692.121 335.186 690.887 336.405 689.375 336.396Z" fill="#40B561"/>
<path d="M698.68 330.554C697.633 330.548 696.789 329.694 696.796 328.647C696.802 327.6 697.656 326.756 698.703 326.763C699.75 326.769 700.594 327.623 700.587 328.67C700.581 329.717 699.727 330.561 698.68 330.554Z" fill="#40B561"/>
<path d="M691.877 340.624C691.295 340.62 690.827 340.146 690.83 339.564C690.834 338.983 691.308 338.514 691.89 338.518C692.472 338.521 692.94 338.996 692.937 339.577C692.933 340.159 692.459 340.628 691.877 340.624Z" fill="#40B561"/>
<path d="M674.292 340.956C673.71 340.952 673.242 340.478 673.245 339.896C673.249 339.315 673.723 338.846 674.305 338.85C674.887 338.853 675.355 339.328 675.352 339.909C675.348 340.491 674.874 340.96 674.292 340.956Z" fill="#40B561"/>
<path d="M675.626 337.144C674.114 337.135 672.895 335.901 672.905 334.389C672.914 332.877 674.147 331.658 675.66 331.667C677.172 331.677 678.391 332.91 678.382 334.423C678.372 335.935 677.139 337.154 675.626 337.144Z" fill="#40B561"/>
<path d="M669.271 338.416C668.224 338.41 667.38 337.556 667.386 336.509C667.393 335.461 668.247 334.618 669.294 334.624C670.341 334.631 671.185 335.485 671.178 336.532C671.172 337.579 670.318 338.422 669.271 338.416Z" fill="#40B561"/>
<path d="M705.604 334.333C704.091 334.323 702.873 333.09 702.882 331.577C702.891 330.065 704.125 328.846 705.637 328.856C707.15 328.865 708.368 330.099 708.359 331.611C708.35 333.123 707.116 334.342 705.604 334.333Z" fill="#40B561"/>
<path d="M706.412 339.843C705.365 339.836 704.522 338.982 704.528 337.935C704.535 336.888 705.389 336.045 706.436 336.051C707.483 336.057 708.326 336.911 708.32 337.958C708.314 339.006 707.46 339.849 706.412 339.843Z" fill="#40B561"/>
<path d="M674.395 353.184C673.58 353.179 672.924 352.515 672.929 351.701C672.934 350.886 673.599 350.23 674.413 350.235C675.227 350.24 675.883 350.904 675.878 351.719C675.873 352.533 675.209 353.189 674.395 353.184Z" fill="#40B561"/>
<path d="M684.618 347.255C683.803 347.25 683.147 346.586 683.152 345.771C683.157 344.957 683.821 344.301 684.636 344.306C685.45 344.311 686.106 344.975 686.101 345.789C686.096 346.604 685.432 347.26 684.618 347.255Z" fill="#40B561"/>
<path d="M691.07 353.184C689.557 353.174 688.339 351.941 688.348 350.428C688.357 348.916 689.591 347.697 691.103 347.707C692.616 347.716 693.834 348.95 693.825 350.462C693.815 351.974 692.582 353.193 691.07 353.184Z" fill="#40B561"/>
<path d="M700.374 347.342C699.327 347.336 698.484 346.482 698.49 345.435C698.497 344.388 699.351 343.544 700.398 343.551C701.445 343.557 702.288 344.411 702.282 345.458C702.275 346.505 701.421 347.349 700.374 347.342Z" fill="#40B561"/>
<path d="M693.571 357.412C692.99 357.409 692.521 356.934 692.525 356.352C692.528 355.771 693.003 355.302 693.584 355.306C694.166 355.309 694.635 355.784 694.631 356.365C694.628 356.947 694.153 357.416 693.571 357.412Z" fill="#40B561"/>
<path d="M684.737 355.251C684.155 355.248 683.687 354.773 683.69 354.192C683.694 353.61 684.168 353.141 684.75 353.145C685.332 353.148 685.8 353.623 685.797 354.205C685.793 354.786 685.319 355.255 684.737 355.251Z" fill="#40B561"/>
<path d="M680.529 354.383C679.017 354.374 677.798 353.14 677.808 351.628C677.817 350.115 679.051 348.897 680.563 348.906C682.075 348.915 683.294 350.149 683.285 351.661C683.275 353.174 682.042 354.392 680.529 354.383Z" fill="#40B561"/>
<path d="M683.023 359.875C681.976 359.869 681.133 359.015 681.139 357.968C681.146 356.921 682 356.077 683.047 356.084C684.094 356.09 684.937 356.944 684.931 357.991C684.924 359.038 684.07 359.882 683.023 359.875Z" fill="#40B561"/>
<defs>
<linearGradient id="paint0_linear" x1="614.808" y1="248.138" x2="604.238" y2="147.882" gradientUnits="userSpaceOnUse">
<stop stop-color="#D9EB66" stop-opacity="0.71"/>
<stop offset="0.297988" stop-color="#8EC661"/>
<stop offset="0.880208" stop-color="#91D487"/>
</linearGradient>
<linearGradient id="paint1_linear" x1="107.739" y1="185.352" x2="45.4785" y2="112.186" gradientUnits="userSpaceOnUse">
<stop stop-color="#D9EB66" stop-opacity="0.71"/>
<stop offset="0.297988" stop-color="#8EC661"/>
<stop offset="0.880208" stop-color="#91D487"/>
</linearGradient>
<linearGradient id="paint2_linear" x1="985.075" y1="105.856" x2="1022.45" y2="156.072" gradientUnits="userSpaceOnUse">
<stop stop-color="#D9EB66" stop-opacity="0.71"/>
<stop offset="0.297988" stop-color="#8EC661"/>
<stop offset="0.880208" stop-color="#91D487"/>
</linearGradient>
<linearGradient id="paint3_linear" x1="663.331" y1="345.973" x2="708.63" y2="328.939" gradientUnits="userSpaceOnUse">
<stop stop-color="#D9EB66" stop-opacity="0.71"/>
<stop offset="0.297988" stop-color="#8EC661"/>
<stop offset="0.880208" stop-color="#91D487"/>
</linearGradient>
</defs>
</svg>
